M48
; DRILL file {KiCad (6.0.0)} date Fri Aug 19 12:32:03 2022
; FORMAT={-:-/ absolute / metric / decimal}
; #@! TF.CreationDate,2022-08-19T12:32:03+02:00
; #@! TF.GenerationSoftware,Kicad,Pcbnew,(6.0.0)
; #@! TF.FileFunction,NonPlated,1,2,NPTH
FMAT,2
METRIC
; #@! TA.AperFunction,NonPlated,NPTH,ComponentDrill
T1C0.500
%
G90
G05
T1
X76.15Y-75.85
X76.15Y-76.6
X76.15Y-77.35
X77.65Y-75.85
X77.65Y-76.6
X77.65Y-77.35
X102.05Y-125.95
X102.05Y-127.45
X102.55Y-37.05
X102.55Y-38.55
X102.8Y-125.95
X102.8Y-127.45
X103.3Y-37.05
X103.3Y-38.55
X103.55Y-125.95
X103.55Y-127.45
X104.05Y-37.05
X104.05Y-38.55
X194.85Y-37.05
X194.85Y-38.55
X194.95Y-125.95
X194.95Y-127.45
X195.6Y-37.05
X195.6Y-38.55
X195.7Y-125.95
X195.7Y-127.45
X196.35Y-37.05
X196.35Y-38.55
X196.45Y-125.95
X196.45Y-127.45
X232.05Y-75.95
X232.05Y-76.7
X232.05Y-77.45
X233.55Y-75.95
X233.55Y-76.7
X233.55Y-77.45
T0
M30
