G04 #@! TF.GenerationSoftware,KiCad,Pcbnew,(6.0.0)*
G04 #@! TF.CreationDate,2022-08-19T12:31:47+02:00*
G04 #@! TF.ProjectId,Block Schematic Munin 400,426c6f63-6b20-4536-9368-656d61746963,rev?*
G04 #@! TF.SameCoordinates,Original*
G04 #@! TF.FileFunction,Copper,L1,Top*
G04 #@! TF.FilePolarity,Positive*
%FSLAX46Y46*%
G04 Gerber Fmt 4.6, Leading zero omitted, Abs format (unit mm)*
G04 Created by KiCad (PCBNEW (6.0.0)) date 2022-08-19 12:31:47*
%MOMM*%
%LPD*%
G01*
G04 APERTURE LIST*
G04 APERTURE END LIST*
G04 #@! TA.AperFunction,NonConductor*
G36*
X196027207Y-37439848D02*
G01*
X196057953Y-37459875D01*
X196072388Y-37472623D01*
X196202163Y-37533553D01*
X196311009Y-37550500D01*
X196385940Y-37550500D01*
X196461471Y-37539683D01*
X196531739Y-37549825D01*
X196585369Y-37596348D01*
X196605333Y-37664480D01*
X196603187Y-37687565D01*
X196599500Y-37707290D01*
X196599500Y-37892710D01*
X196600570Y-37898434D01*
X196600571Y-37898445D01*
X196603275Y-37912909D01*
X196596132Y-37983545D01*
X196551933Y-38039106D01*
X196484712Y-38061951D01*
X196460041Y-38060562D01*
X196388991Y-38049500D01*
X196314060Y-38049500D01*
X196272661Y-38055429D01*
X196216968Y-38063404D01*
X196216965Y-38063405D01*
X196208082Y-38064677D01*
X196199914Y-38068391D01*
X196199913Y-38068391D01*
X196185437Y-38074973D01*
X196077572Y-38124016D01*
X196070771Y-38129876D01*
X196070765Y-38129880D01*
X196057701Y-38141137D01*
X195993039Y-38170451D01*
X195922793Y-38160152D01*
X195892045Y-38140124D01*
X195884341Y-38133320D01*
X195877612Y-38127377D01*
X195747837Y-38066447D01*
X195638991Y-38049500D01*
X195564060Y-38049500D01*
X195522661Y-38055429D01*
X195466968Y-38063404D01*
X195466965Y-38063405D01*
X195458082Y-38064677D01*
X195449914Y-38068391D01*
X195449913Y-38068391D01*
X195435437Y-38074973D01*
X195327572Y-38124016D01*
X195320771Y-38129876D01*
X195320765Y-38129880D01*
X195307701Y-38141137D01*
X195243039Y-38170451D01*
X195172793Y-38160152D01*
X195142045Y-38140124D01*
X195134341Y-38133320D01*
X195127612Y-38127377D01*
X194997837Y-38066447D01*
X194888991Y-38049500D01*
X194814060Y-38049500D01*
X194738529Y-38060317D01*
X194668261Y-38050175D01*
X194614631Y-38003652D01*
X194594667Y-37935520D01*
X194596813Y-37912435D01*
X194599429Y-37898441D01*
X194599429Y-37898438D01*
X194600500Y-37892710D01*
X194600500Y-37707290D01*
X194599429Y-37701559D01*
X194599429Y-37701555D01*
X194596725Y-37687091D01*
X194603868Y-37616455D01*
X194648067Y-37560894D01*
X194715288Y-37538049D01*
X194739959Y-37539438D01*
X194811009Y-37550500D01*
X194885940Y-37550500D01*
X194927339Y-37544571D01*
X194983032Y-37536596D01*
X194983035Y-37536595D01*
X194991918Y-37535323D01*
X195011381Y-37526474D01*
X195034023Y-37516179D01*
X195122428Y-37475984D01*
X195129229Y-37470124D01*
X195129235Y-37470120D01*
X195142299Y-37458863D01*
X195206961Y-37429549D01*
X195277207Y-37439848D01*
X195307953Y-37459875D01*
X195322388Y-37472623D01*
X195452163Y-37533553D01*
X195561009Y-37550500D01*
X195635940Y-37550500D01*
X195677339Y-37544571D01*
X195733032Y-37536596D01*
X195733035Y-37536595D01*
X195741918Y-37535323D01*
X195761381Y-37526474D01*
X195784023Y-37516179D01*
X195872428Y-37475984D01*
X195879229Y-37470124D01*
X195879235Y-37470120D01*
X195892299Y-37458863D01*
X195956961Y-37429549D01*
X196027207Y-37439848D01*
G37*
G04 #@! TD.AperFunction*
G04 #@! TA.AperFunction,NonConductor*
G36*
X103727207Y-37439848D02*
G01*
X103757953Y-37459875D01*
X103772388Y-37472623D01*
X103902163Y-37533553D01*
X104011009Y-37550500D01*
X104085940Y-37550500D01*
X104161471Y-37539683D01*
X104231739Y-37549825D01*
X104285369Y-37596348D01*
X104305333Y-37664480D01*
X104303187Y-37687565D01*
X104299500Y-37707290D01*
X104299500Y-37892710D01*
X104300570Y-37898434D01*
X104300571Y-37898445D01*
X104303275Y-37912909D01*
X104296132Y-37983545D01*
X104251933Y-38039106D01*
X104184712Y-38061951D01*
X104160041Y-38060562D01*
X104088991Y-38049500D01*
X104014060Y-38049500D01*
X103972661Y-38055429D01*
X103916968Y-38063404D01*
X103916965Y-38063405D01*
X103908082Y-38064677D01*
X103899914Y-38068391D01*
X103899913Y-38068391D01*
X103885437Y-38074973D01*
X103777572Y-38124016D01*
X103770771Y-38129876D01*
X103770765Y-38129880D01*
X103757701Y-38141137D01*
X103693039Y-38170451D01*
X103622793Y-38160152D01*
X103592045Y-38140124D01*
X103584341Y-38133320D01*
X103577612Y-38127377D01*
X103447837Y-38066447D01*
X103338991Y-38049500D01*
X103264060Y-38049500D01*
X103222661Y-38055429D01*
X103166968Y-38063404D01*
X103166965Y-38063405D01*
X103158082Y-38064677D01*
X103149914Y-38068391D01*
X103149913Y-38068391D01*
X103135437Y-38074973D01*
X103027572Y-38124016D01*
X103020771Y-38129876D01*
X103020765Y-38129880D01*
X103007701Y-38141137D01*
X102943039Y-38170451D01*
X102872793Y-38160152D01*
X102842045Y-38140124D01*
X102834341Y-38133320D01*
X102827612Y-38127377D01*
X102697837Y-38066447D01*
X102588991Y-38049500D01*
X102514060Y-38049500D01*
X102438529Y-38060317D01*
X102368261Y-38050175D01*
X102314631Y-38003652D01*
X102294667Y-37935520D01*
X102296813Y-37912435D01*
X102299429Y-37898441D01*
X102299429Y-37898438D01*
X102300500Y-37892710D01*
X102300500Y-37707290D01*
X102299429Y-37701559D01*
X102299429Y-37701555D01*
X102296725Y-37687091D01*
X102303868Y-37616455D01*
X102348067Y-37560894D01*
X102415288Y-37538049D01*
X102439959Y-37539438D01*
X102511009Y-37550500D01*
X102585940Y-37550500D01*
X102627339Y-37544571D01*
X102683032Y-37536596D01*
X102683035Y-37536595D01*
X102691918Y-37535323D01*
X102711381Y-37526474D01*
X102734023Y-37516179D01*
X102822428Y-37475984D01*
X102829229Y-37470124D01*
X102829235Y-37470120D01*
X102842299Y-37458863D01*
X102906961Y-37429549D01*
X102977207Y-37439848D01*
X103007953Y-37459875D01*
X103022388Y-37472623D01*
X103152163Y-37533553D01*
X103261009Y-37550500D01*
X103335940Y-37550500D01*
X103377339Y-37544571D01*
X103433032Y-37536596D01*
X103433035Y-37536595D01*
X103441918Y-37535323D01*
X103461381Y-37526474D01*
X103484023Y-37516179D01*
X103572428Y-37475984D01*
X103579229Y-37470124D01*
X103579235Y-37470120D01*
X103592299Y-37458863D01*
X103656961Y-37429549D01*
X103727207Y-37439848D01*
G37*
G04 #@! TD.AperFunction*
G04 #@! TA.AperFunction,NonConductor*
G36*
X76787833Y-75596863D02*
G01*
X76801560Y-75599429D01*
X76801561Y-75599429D01*
X76807290Y-75600500D01*
X76992710Y-75600500D01*
X76998436Y-75599430D01*
X76998443Y-75599429D01*
X77011519Y-75596985D01*
X77082155Y-75604131D01*
X77137715Y-75648331D01*
X77160558Y-75715552D01*
X77155385Y-75756943D01*
X77149907Y-75775261D01*
X77149031Y-75918624D01*
X77188428Y-76056471D01*
X77252659Y-76158272D01*
X77272092Y-76226553D01*
X77251828Y-76294036D01*
X77190985Y-76387905D01*
X77149907Y-76525261D01*
X77149031Y-76668624D01*
X77188428Y-76806471D01*
X77252659Y-76908272D01*
X77272092Y-76976553D01*
X77251828Y-77044036D01*
X77190985Y-77137905D01*
X77149907Y-77275261D01*
X77149852Y-77284237D01*
X77149852Y-77284238D01*
X77149712Y-77307113D01*
X77149031Y-77418624D01*
X77151498Y-77427255D01*
X77151498Y-77427256D01*
X77156472Y-77444661D01*
X77155958Y-77515656D01*
X77117143Y-77575102D01*
X77052350Y-77604127D01*
X77012167Y-77603137D01*
X76998440Y-77600571D01*
X76998439Y-77600571D01*
X76992710Y-77599500D01*
X76807290Y-77599500D01*
X76801564Y-77600570D01*
X76801557Y-77600571D01*
X76788481Y-77603015D01*
X76717845Y-77595869D01*
X76662285Y-77551669D01*
X76639442Y-77484448D01*
X76644615Y-77443055D01*
X76650093Y-77424739D01*
X76650341Y-77384238D01*
X76650841Y-77302291D01*
X76650969Y-77281376D01*
X76611572Y-77143529D01*
X76547341Y-77041728D01*
X76527908Y-76973447D01*
X76548172Y-76905964D01*
X76604129Y-76819633D01*
X76609015Y-76812095D01*
X76650093Y-76674739D01*
X76650341Y-76634238D01*
X76650914Y-76540351D01*
X76650969Y-76531376D01*
X76611572Y-76393529D01*
X76547341Y-76291728D01*
X76527908Y-76223447D01*
X76548172Y-76155964D01*
X76604129Y-76069633D01*
X76609015Y-76062095D01*
X76650093Y-75924739D01*
X76650341Y-75884238D01*
X76650914Y-75790351D01*
X76650969Y-75781376D01*
X76643528Y-75755339D01*
X76644042Y-75684344D01*
X76682857Y-75624898D01*
X76747650Y-75595873D01*
X76787833Y-75596863D01*
G37*
G04 #@! TD.AperFunction*
G04 #@! TA.AperFunction,NonConductor*
G36*
X232687833Y-75696863D02*
G01*
X232701560Y-75699429D01*
X232701561Y-75699429D01*
X232707290Y-75700500D01*
X232892710Y-75700500D01*
X232898436Y-75699430D01*
X232898443Y-75699429D01*
X232911519Y-75696985D01*
X232982155Y-75704131D01*
X233037715Y-75748331D01*
X233060558Y-75815552D01*
X233055385Y-75856943D01*
X233049907Y-75875261D01*
X233049852Y-75884237D01*
X233049852Y-75884238D01*
X233049648Y-75917652D01*
X233049031Y-76018624D01*
X233088428Y-76156471D01*
X233152659Y-76258272D01*
X233172092Y-76326553D01*
X233151828Y-76394036D01*
X233090985Y-76487905D01*
X233049907Y-76625261D01*
X233049852Y-76634237D01*
X233049852Y-76634238D01*
X233049642Y-76668624D01*
X233049031Y-76768624D01*
X233088428Y-76906471D01*
X233152659Y-77008272D01*
X233172092Y-77076553D01*
X233151828Y-77144036D01*
X233090985Y-77237905D01*
X233049907Y-77375261D01*
X233049852Y-77384237D01*
X233049852Y-77384238D01*
X233049642Y-77418624D01*
X233049031Y-77518624D01*
X233051498Y-77527255D01*
X233051498Y-77527256D01*
X233056472Y-77544661D01*
X233055958Y-77615656D01*
X233017143Y-77675102D01*
X232952350Y-77704127D01*
X232912167Y-77703137D01*
X232898440Y-77700571D01*
X232898439Y-77700571D01*
X232892710Y-77699500D01*
X232707290Y-77699500D01*
X232701564Y-77700570D01*
X232701557Y-77700571D01*
X232688481Y-77703015D01*
X232617845Y-77695869D01*
X232562285Y-77651669D01*
X232539442Y-77584448D01*
X232544615Y-77543055D01*
X232547520Y-77533341D01*
X232550093Y-77524739D01*
X232550969Y-77381376D01*
X232511572Y-77243529D01*
X232447341Y-77141728D01*
X232427908Y-77073447D01*
X232448172Y-77005964D01*
X232456523Y-76993080D01*
X232509015Y-76912095D01*
X232550093Y-76774739D01*
X232550969Y-76631376D01*
X232511572Y-76493529D01*
X232447341Y-76391728D01*
X232427908Y-76323447D01*
X232448172Y-76255964D01*
X232468259Y-76224973D01*
X232509015Y-76162095D01*
X232550093Y-76024739D01*
X232550969Y-75881376D01*
X232543528Y-75855339D01*
X232544042Y-75784344D01*
X232582857Y-75724898D01*
X232647650Y-75695873D01*
X232687833Y-75696863D01*
G37*
G04 #@! TD.AperFunction*
G04 #@! TA.AperFunction,NonConductor*
G36*
X194307598Y-38611677D02*
G01*
X194358011Y-38661668D01*
X194368828Y-38687893D01*
X194388428Y-38756471D01*
X194464930Y-38877720D01*
X194572388Y-38972623D01*
X194702163Y-39033553D01*
X194811009Y-39050500D01*
X194885940Y-39050500D01*
X194927339Y-39044571D01*
X194983032Y-39036596D01*
X194983035Y-39036595D01*
X194991918Y-39035323D01*
X195122428Y-38975984D01*
X195129229Y-38970124D01*
X195129235Y-38970120D01*
X195142299Y-38958863D01*
X195206961Y-38929549D01*
X195277207Y-38939848D01*
X195307953Y-38959875D01*
X195322388Y-38972623D01*
X195452163Y-39033553D01*
X195561009Y-39050500D01*
X195635940Y-39050500D01*
X195677339Y-39044571D01*
X195733032Y-39036596D01*
X195733035Y-39036595D01*
X195741918Y-39035323D01*
X195872428Y-38975984D01*
X195879229Y-38970124D01*
X195879235Y-38970120D01*
X195892299Y-38958863D01*
X195956961Y-38929549D01*
X196027207Y-38939848D01*
X196057953Y-38959875D01*
X196072388Y-38972623D01*
X196202163Y-39033553D01*
X196311009Y-39050500D01*
X196385940Y-39050500D01*
X196427339Y-39044571D01*
X196483032Y-39036596D01*
X196483035Y-39036595D01*
X196491918Y-39035323D01*
X196622428Y-38975984D01*
X196664366Y-38939848D01*
X196724237Y-38888260D01*
X196724240Y-38888257D01*
X196731037Y-38882400D01*
X196809015Y-38762095D01*
X196831639Y-38686445D01*
X196870320Y-38626911D01*
X196935047Y-38597741D01*
X197005270Y-38608195D01*
X197028287Y-38621995D01*
X197065097Y-38649792D01*
X197071048Y-38654286D01*
X197237029Y-38736935D01*
X197242630Y-38738529D01*
X197242631Y-38738529D01*
X197409771Y-38786085D01*
X197409775Y-38786086D01*
X197415371Y-38787678D01*
X197600000Y-38804786D01*
X197600000Y-38801232D01*
X197607547Y-38800501D01*
X228850467Y-38804399D01*
X228857516Y-38804597D01*
X228969347Y-38810877D01*
X228969889Y-38810909D01*
X229003952Y-38812969D01*
X229168485Y-38822922D01*
X229181974Y-38824471D01*
X229323709Y-38848552D01*
X229325304Y-38848834D01*
X229490221Y-38879056D01*
X229502372Y-38881913D01*
X229555770Y-38897297D01*
X229646335Y-38923389D01*
X229648938Y-38924169D01*
X229760277Y-38958863D01*
X229803181Y-38972232D01*
X229813906Y-38976116D01*
X229822560Y-38979700D01*
X229954653Y-39034415D01*
X229958147Y-39035925D01*
X230103158Y-39101189D01*
X230112394Y-39105810D01*
X230246817Y-39180102D01*
X230251027Y-39182536D01*
X230386102Y-39264192D01*
X230393825Y-39269256D01*
X230519611Y-39358506D01*
X230524385Y-39362066D01*
X230569284Y-39397243D01*
X230648169Y-39459046D01*
X230654421Y-39464280D01*
X230769636Y-39567242D01*
X230774772Y-39572098D01*
X230885801Y-39683127D01*
X230890657Y-39688263D01*
X230993619Y-39803478D01*
X230998853Y-39809730D01*
X231031056Y-39850833D01*
X231080805Y-39914332D01*
X231095825Y-39933504D01*
X231099393Y-39938289D01*
X231148240Y-40007132D01*
X231188640Y-40064070D01*
X231193705Y-40071794D01*
X231275363Y-40206872D01*
X231277797Y-40211082D01*
X231352089Y-40345505D01*
X231356710Y-40354741D01*
X231421974Y-40499752D01*
X231423484Y-40503246D01*
X231481782Y-40643989D01*
X231485667Y-40654718D01*
X231487451Y-40660443D01*
X231533730Y-40808961D01*
X231534510Y-40811564D01*
X231543499Y-40842764D01*
X231571658Y-40940501D01*
X231575984Y-40955518D01*
X231578843Y-40967678D01*
X231585170Y-41002204D01*
X231609063Y-41132584D01*
X231609345Y-41134180D01*
X231626297Y-41233948D01*
X231633428Y-41275921D01*
X231634977Y-41289414D01*
X231636904Y-41321267D01*
X231646990Y-41488010D01*
X231647022Y-41488552D01*
X231653232Y-41599135D01*
X231653406Y-41608669D01*
X231649280Y-41819196D01*
X231647502Y-41909899D01*
X231644871Y-41909847D01*
X231644870Y-41909903D01*
X231647500Y-41909903D01*
X231647500Y-41909971D01*
X231647498Y-41910089D01*
X231644867Y-41910044D01*
X231644866Y-41910108D01*
X231647501Y-41910096D01*
X231799447Y-74688567D01*
X231799450Y-74689229D01*
X231798568Y-74700000D01*
X231795214Y-74700000D01*
X231796736Y-74716428D01*
X231796736Y-74716430D01*
X231810315Y-74862973D01*
X231812322Y-74884629D01*
X231813914Y-74890225D01*
X231813915Y-74890229D01*
X231828066Y-74939964D01*
X231863065Y-75062971D01*
X231945714Y-75228952D01*
X231968593Y-75259249D01*
X231975555Y-75268468D01*
X232000644Y-75334883D01*
X231985844Y-75404320D01*
X231935853Y-75454732D01*
X231913977Y-75463833D01*
X231908082Y-75464677D01*
X231777572Y-75524016D01*
X231770768Y-75529878D01*
X231770769Y-75529878D01*
X231675763Y-75611740D01*
X231675760Y-75611743D01*
X231668963Y-75617600D01*
X231590985Y-75737905D01*
X231549907Y-75875261D01*
X231549852Y-75884237D01*
X231549852Y-75884238D01*
X231549648Y-75917652D01*
X231549031Y-76018624D01*
X231588428Y-76156471D01*
X231652659Y-76258272D01*
X231672092Y-76326553D01*
X231651828Y-76394036D01*
X231590985Y-76487905D01*
X231549907Y-76625261D01*
X231549852Y-76634237D01*
X231549852Y-76634238D01*
X231549642Y-76668624D01*
X231549031Y-76768624D01*
X231588428Y-76906471D01*
X231652659Y-77008272D01*
X231672092Y-77076553D01*
X231651828Y-77144036D01*
X231590985Y-77237905D01*
X231549907Y-77375261D01*
X231549852Y-77384237D01*
X231549852Y-77384238D01*
X231549642Y-77418624D01*
X231549031Y-77518624D01*
X231588428Y-77656471D01*
X231664930Y-77777720D01*
X231772388Y-77872623D01*
X231902163Y-77933553D01*
X231911035Y-77934934D01*
X231911796Y-77935167D01*
X231971093Y-77974212D01*
X231999867Y-78039116D01*
X231988984Y-78109273D01*
X231975512Y-78131589D01*
X231945714Y-78171048D01*
X231943117Y-78176263D01*
X231943116Y-78176265D01*
X231929674Y-78203261D01*
X231863065Y-78337029D01*
X231861471Y-78342630D01*
X231861471Y-78342631D01*
X231814603Y-78507355D01*
X231812322Y-78515371D01*
X231795214Y-78700000D01*
X231798798Y-78700000D01*
X231799517Y-78707327D01*
X231812404Y-84200000D01*
X231901498Y-122173155D01*
X231901494Y-122173926D01*
X231901459Y-122174021D01*
X231901494Y-122174096D01*
X231901490Y-122174881D01*
X231900163Y-122291771D01*
X231900156Y-122292304D01*
X231896297Y-122540035D01*
X231895511Y-122552259D01*
X231877229Y-122713600D01*
X231877039Y-122715186D01*
X231851854Y-122914786D01*
X231849962Y-122925810D01*
X231813497Y-123093344D01*
X231812905Y-123095932D01*
X231770120Y-123274275D01*
X231768091Y-123282731D01*
X231765337Y-123292469D01*
X231710954Y-123458914D01*
X231709743Y-123462443D01*
X231645922Y-123639808D01*
X231642553Y-123648211D01*
X231570858Y-123809939D01*
X231568847Y-123814252D01*
X231511408Y-123931557D01*
X231486685Y-123982047D01*
X231482960Y-123989082D01*
X231394787Y-124143521D01*
X231391824Y-124148441D01*
X231292118Y-124305624D01*
X231288257Y-124311357D01*
X231184762Y-124456250D01*
X231180605Y-124461742D01*
X231064281Y-124607003D01*
X231060514Y-124611490D01*
X231014178Y-124664137D01*
X230944060Y-124743805D01*
X230943081Y-124744917D01*
X230937618Y-124750740D01*
X230818732Y-124869684D01*
X230805547Y-124882875D01*
X230802103Y-124886191D01*
X230672369Y-125006465D01*
X230665533Y-125012361D01*
X230518461Y-125130249D01*
X230515560Y-125132506D01*
X230375666Y-125237995D01*
X230367401Y-125243721D01*
X230205203Y-125346716D01*
X230202969Y-125348101D01*
X230084163Y-125420064D01*
X230062251Y-125433337D01*
X230056289Y-125436948D01*
X230046476Y-125442312D01*
X229865817Y-125530879D01*
X229864423Y-125531551D01*
X229717701Y-125601186D01*
X229706393Y-125605894D01*
X229473215Y-125689923D01*
X229458335Y-125695214D01*
X229382450Y-125722197D01*
X229340118Y-125729479D01*
X208460368Y-125709696D01*
X197710415Y-125699510D01*
X197700000Y-125698628D01*
X197700000Y-125695214D01*
X197683573Y-125696736D01*
X197683572Y-125696736D01*
X197530447Y-125710925D01*
X197515371Y-125712322D01*
X197509775Y-125713914D01*
X197509771Y-125713915D01*
X197342631Y-125761471D01*
X197337029Y-125763065D01*
X197171048Y-125845714D01*
X197166402Y-125849223D01*
X197166398Y-125849225D01*
X197154854Y-125857943D01*
X197128253Y-125878032D01*
X197061839Y-125903122D01*
X196992402Y-125888323D01*
X196941989Y-125838332D01*
X196931172Y-125812107D01*
X196914038Y-125752158D01*
X196911572Y-125743529D01*
X196835070Y-125622280D01*
X196811186Y-125601186D01*
X196734341Y-125533320D01*
X196727612Y-125527377D01*
X196597837Y-125466447D01*
X196488991Y-125449500D01*
X196414060Y-125449500D01*
X196387442Y-125453312D01*
X196316968Y-125463404D01*
X196316965Y-125463405D01*
X196308082Y-125464677D01*
X196177572Y-125524016D01*
X196170771Y-125529876D01*
X196170765Y-125529880D01*
X196157701Y-125541137D01*
X196093039Y-125570451D01*
X196022793Y-125560152D01*
X195992045Y-125540124D01*
X195984341Y-125533320D01*
X195977612Y-125527377D01*
X195847837Y-125466447D01*
X195738991Y-125449500D01*
X195664060Y-125449500D01*
X195637442Y-125453312D01*
X195566968Y-125463404D01*
X195566965Y-125463405D01*
X195558082Y-125464677D01*
X195427572Y-125524016D01*
X195420771Y-125529876D01*
X195420765Y-125529880D01*
X195407701Y-125541137D01*
X195343039Y-125570451D01*
X195272793Y-125560152D01*
X195242045Y-125540124D01*
X195234341Y-125533320D01*
X195227612Y-125527377D01*
X195097837Y-125466447D01*
X194988991Y-125449500D01*
X194914060Y-125449500D01*
X194887442Y-125453312D01*
X194816968Y-125463404D01*
X194816965Y-125463405D01*
X194808082Y-125464677D01*
X194677572Y-125524016D01*
X194670768Y-125529878D01*
X194670769Y-125529878D01*
X194575763Y-125611740D01*
X194575760Y-125611743D01*
X194568963Y-125617600D01*
X194490985Y-125737905D01*
X194488411Y-125746512D01*
X194468361Y-125813555D01*
X194429680Y-125873089D01*
X194364953Y-125902259D01*
X194294730Y-125891805D01*
X194271713Y-125878005D01*
X194233600Y-125849224D01*
X194228952Y-125845714D01*
X194062971Y-125763065D01*
X194057369Y-125761471D01*
X193890229Y-125713915D01*
X193890225Y-125713914D01*
X193884629Y-125712322D01*
X193700000Y-125695214D01*
X193700000Y-125698770D01*
X193692464Y-125699500D01*
X104810479Y-125699500D01*
X104800000Y-125698618D01*
X104800000Y-125695214D01*
X104783574Y-125696736D01*
X104783573Y-125696736D01*
X104630447Y-125710925D01*
X104615371Y-125712322D01*
X104609775Y-125713914D01*
X104609771Y-125713915D01*
X104442631Y-125761471D01*
X104437029Y-125763065D01*
X104271048Y-125845714D01*
X104266402Y-125849223D01*
X104266398Y-125849225D01*
X104254854Y-125857943D01*
X104228253Y-125878032D01*
X104161839Y-125903122D01*
X104092402Y-125888323D01*
X104041989Y-125838332D01*
X104031172Y-125812107D01*
X104014038Y-125752158D01*
X104011572Y-125743529D01*
X103935070Y-125622280D01*
X103911186Y-125601186D01*
X103834341Y-125533320D01*
X103827612Y-125527377D01*
X103697837Y-125466447D01*
X103588991Y-125449500D01*
X103514060Y-125449500D01*
X103487442Y-125453312D01*
X103416968Y-125463404D01*
X103416965Y-125463405D01*
X103408082Y-125464677D01*
X103277572Y-125524016D01*
X103270771Y-125529876D01*
X103270765Y-125529880D01*
X103257701Y-125541137D01*
X103193039Y-125570451D01*
X103122793Y-125560152D01*
X103092045Y-125540124D01*
X103084341Y-125533320D01*
X103077612Y-125527377D01*
X102947837Y-125466447D01*
X102838991Y-125449500D01*
X102764060Y-125449500D01*
X102737442Y-125453312D01*
X102666968Y-125463404D01*
X102666965Y-125463405D01*
X102658082Y-125464677D01*
X102527572Y-125524016D01*
X102520771Y-125529876D01*
X102520765Y-125529880D01*
X102507701Y-125541137D01*
X102443039Y-125570451D01*
X102372793Y-125560152D01*
X102342045Y-125540124D01*
X102334341Y-125533320D01*
X102327612Y-125527377D01*
X102197837Y-125466447D01*
X102088991Y-125449500D01*
X102014060Y-125449500D01*
X101987442Y-125453312D01*
X101916968Y-125463404D01*
X101916965Y-125463405D01*
X101908082Y-125464677D01*
X101777572Y-125524016D01*
X101770768Y-125529878D01*
X101770769Y-125529878D01*
X101675763Y-125611740D01*
X101675760Y-125611743D01*
X101668963Y-125617600D01*
X101590985Y-125737905D01*
X101588411Y-125746512D01*
X101568361Y-125813555D01*
X101529680Y-125873089D01*
X101464953Y-125902259D01*
X101394730Y-125891805D01*
X101371713Y-125878005D01*
X101333600Y-125849224D01*
X101328952Y-125845714D01*
X101162971Y-125763065D01*
X101157369Y-125761471D01*
X100990229Y-125713915D01*
X100990225Y-125713914D01*
X100984629Y-125712322D01*
X100969553Y-125710925D01*
X100818037Y-125696885D01*
X100818036Y-125696885D01*
X100800000Y-125695214D01*
X100800000Y-125698788D01*
X100792602Y-125699511D01*
X81537082Y-125729495D01*
X81530895Y-125729352D01*
X81465489Y-125726239D01*
X81397850Y-125723019D01*
X81397817Y-125723017D01*
X81216408Y-125713716D01*
X81183742Y-125712041D01*
X81172274Y-125710925D01*
X81009600Y-125687551D01*
X81008232Y-125687347D01*
X80825721Y-125659075D01*
X80815322Y-125657013D01*
X80725753Y-125635298D01*
X80649985Y-125616930D01*
X80647793Y-125616376D01*
X80474696Y-125571043D01*
X80465448Y-125568238D01*
X80302479Y-125511873D01*
X80299442Y-125510779D01*
X80271275Y-125500222D01*
X80134082Y-125448802D01*
X80126004Y-125445450D01*
X80060836Y-125415710D01*
X79968071Y-125373376D01*
X79964326Y-125371592D01*
X79907107Y-125343168D01*
X79807164Y-125293520D01*
X79800315Y-125289848D01*
X79649381Y-125202774D01*
X79645054Y-125200160D01*
X79497199Y-125106737D01*
X79491457Y-125102885D01*
X79349283Y-125001729D01*
X79344484Y-124998139D01*
X79289456Y-124954903D01*
X79207086Y-124890184D01*
X79202498Y-124886400D01*
X79070571Y-124772190D01*
X79065475Y-124767528D01*
X78939698Y-124645950D01*
X78936123Y-124642352D01*
X78815857Y-124516352D01*
X78810635Y-124510529D01*
X78697583Y-124376285D01*
X78695010Y-124373127D01*
X78641862Y-124305624D01*
X78587595Y-124236699D01*
X78582420Y-124229634D01*
X78483090Y-124083649D01*
X78481309Y-124080959D01*
X78422196Y-123989108D01*
X78387974Y-123935932D01*
X78383063Y-123927614D01*
X78298077Y-123770180D01*
X78297001Y-123768143D01*
X78218947Y-123617002D01*
X78214483Y-123607386D01*
X78143856Y-123436803D01*
X78143333Y-123435522D01*
X78082116Y-123282947D01*
X78078320Y-123272069D01*
X78017025Y-123066734D01*
X78016975Y-123066566D01*
X77983600Y-122953250D01*
X77978468Y-122917878D01*
X77978463Y-122914786D01*
X77900518Y-78610587D01*
X77901400Y-78600000D01*
X77904786Y-78600000D01*
X77897459Y-78520921D01*
X77888215Y-78421166D01*
X77887678Y-78415371D01*
X77836935Y-78237029D01*
X77754286Y-78071048D01*
X77724445Y-78031532D01*
X77699356Y-77965117D01*
X77714156Y-77895680D01*
X77764147Y-77845268D01*
X77786023Y-77836167D01*
X77791918Y-77835323D01*
X77922428Y-77775984D01*
X77965750Y-77738655D01*
X78024237Y-77688260D01*
X78024240Y-77688257D01*
X78031037Y-77682400D01*
X78109015Y-77562095D01*
X78150093Y-77424739D01*
X78150341Y-77384238D01*
X78150841Y-77302291D01*
X78150969Y-77281376D01*
X78111572Y-77143529D01*
X78047341Y-77041728D01*
X78027908Y-76973447D01*
X78048172Y-76905964D01*
X78104129Y-76819633D01*
X78109015Y-76812095D01*
X78150093Y-76674739D01*
X78150341Y-76634238D01*
X78150914Y-76540351D01*
X78150969Y-76531376D01*
X78111572Y-76393529D01*
X78047341Y-76291728D01*
X78027908Y-76223447D01*
X78048172Y-76155964D01*
X78104129Y-76069633D01*
X78109015Y-76062095D01*
X78150093Y-75924739D01*
X78150341Y-75884238D01*
X78150914Y-75790351D01*
X78150969Y-75781376D01*
X78111572Y-75643529D01*
X78035070Y-75522280D01*
X78003004Y-75493960D01*
X77981341Y-75474828D01*
X77927612Y-75427377D01*
X77797837Y-75366447D01*
X77788965Y-75365066D01*
X77788204Y-75364833D01*
X77728907Y-75325788D01*
X77700133Y-75260884D01*
X77711016Y-75190727D01*
X77724488Y-75168411D01*
X77754286Y-75128952D01*
X77763858Y-75109730D01*
X77834337Y-74968188D01*
X77836935Y-74962971D01*
X77857632Y-74890229D01*
X77886085Y-74790229D01*
X77886086Y-74790225D01*
X77887678Y-74784629D01*
X77891075Y-74747974D01*
X77903115Y-74618038D01*
X77903115Y-74618037D01*
X77904786Y-74600000D01*
X77901166Y-74600000D01*
X77900463Y-74592937D01*
X77724569Y-41674986D01*
X77727060Y-41649373D01*
X77749741Y-41537052D01*
X77749839Y-41536570D01*
X77791737Y-41333183D01*
X77794805Y-41321267D01*
X77841000Y-41172381D01*
X77841446Y-41170974D01*
X77871990Y-41076457D01*
X77895993Y-41002183D01*
X77899939Y-40991620D01*
X77963304Y-40842764D01*
X77964290Y-40840509D01*
X77978368Y-40809153D01*
X78034524Y-40684070D01*
X78039133Y-40674835D01*
X78118422Y-40531081D01*
X78120095Y-40528145D01*
X78205812Y-40382317D01*
X78210847Y-40374437D01*
X78304957Y-40238525D01*
X78307510Y-40234972D01*
X78407955Y-40100291D01*
X78413176Y-40093755D01*
X78520979Y-39967628D01*
X78524586Y-39963588D01*
X78638732Y-39841113D01*
X78643916Y-39835868D01*
X78764141Y-39721150D01*
X78768881Y-39716852D01*
X78841945Y-39653902D01*
X78895613Y-39607664D01*
X78900543Y-39603629D01*
X79031782Y-39501697D01*
X79037726Y-39497353D01*
X79175766Y-39402557D01*
X79180295Y-39399588D01*
X79320954Y-39311641D01*
X79328194Y-39307442D01*
X79476239Y-39228030D01*
X79480179Y-39226005D01*
X79628482Y-39153048D01*
X79637015Y-39149237D01*
X79715169Y-39117755D01*
X79793920Y-39086033D01*
X79797133Y-39084789D01*
X79950960Y-39027662D01*
X79960789Y-39024464D01*
X80033873Y-39003959D01*
X80125997Y-38978113D01*
X80128328Y-38977484D01*
X80284842Y-38936854D01*
X80295915Y-38934505D01*
X80358328Y-38924169D01*
X80470975Y-38905514D01*
X80472371Y-38905291D01*
X80626442Y-38881628D01*
X80638680Y-38880356D01*
X80846052Y-38869000D01*
X80970922Y-38862652D01*
X80976933Y-38862490D01*
X101289330Y-38800533D01*
X101300000Y-38801415D01*
X101300000Y-38804786D01*
X101316427Y-38803264D01*
X101316428Y-38803264D01*
X101478834Y-38788215D01*
X101484629Y-38787678D01*
X101490225Y-38786086D01*
X101490229Y-38786085D01*
X101657369Y-38738529D01*
X101657370Y-38738529D01*
X101662971Y-38736935D01*
X101828952Y-38654286D01*
X101833600Y-38650776D01*
X101833602Y-38650775D01*
X101865202Y-38626911D01*
X101871747Y-38621968D01*
X101938161Y-38596878D01*
X102007598Y-38611677D01*
X102058011Y-38661668D01*
X102068828Y-38687893D01*
X102088428Y-38756471D01*
X102164930Y-38877720D01*
X102272388Y-38972623D01*
X102402163Y-39033553D01*
X102511009Y-39050500D01*
X102585940Y-39050500D01*
X102627339Y-39044571D01*
X102683032Y-39036596D01*
X102683035Y-39036595D01*
X102691918Y-39035323D01*
X102822428Y-38975984D01*
X102829229Y-38970124D01*
X102829235Y-38970120D01*
X102842299Y-38958863D01*
X102906961Y-38929549D01*
X102977207Y-38939848D01*
X103007953Y-38959875D01*
X103022388Y-38972623D01*
X103152163Y-39033553D01*
X103261009Y-39050500D01*
X103335940Y-39050500D01*
X103377339Y-39044571D01*
X103433032Y-39036596D01*
X103433035Y-39036595D01*
X103441918Y-39035323D01*
X103572428Y-38975984D01*
X103579229Y-38970124D01*
X103579235Y-38970120D01*
X103592299Y-38958863D01*
X103656961Y-38929549D01*
X103727207Y-38939848D01*
X103757953Y-38959875D01*
X103772388Y-38972623D01*
X103902163Y-39033553D01*
X104011009Y-39050500D01*
X104085940Y-39050500D01*
X104127339Y-39044571D01*
X104183032Y-39036596D01*
X104183035Y-39036595D01*
X104191918Y-39035323D01*
X104322428Y-38975984D01*
X104364366Y-38939848D01*
X104424237Y-38888260D01*
X104424240Y-38888257D01*
X104431037Y-38882400D01*
X104509015Y-38762095D01*
X104531639Y-38686445D01*
X104570320Y-38626911D01*
X104635047Y-38597741D01*
X104705270Y-38608195D01*
X104728287Y-38621995D01*
X104765097Y-38649792D01*
X104771048Y-38654286D01*
X104937029Y-38736935D01*
X104942630Y-38738529D01*
X104942631Y-38738529D01*
X105109771Y-38786085D01*
X105109775Y-38786086D01*
X105115371Y-38787678D01*
X105300000Y-38804786D01*
X105300000Y-38801230D01*
X105307536Y-38800500D01*
X193589521Y-38800500D01*
X193600000Y-38801382D01*
X193600000Y-38804786D01*
X193616426Y-38803264D01*
X193616427Y-38803264D01*
X193778834Y-38788215D01*
X193784629Y-38787678D01*
X193790225Y-38786086D01*
X193790229Y-38786085D01*
X193957369Y-38738529D01*
X193957370Y-38738529D01*
X193962971Y-38736935D01*
X194128952Y-38654286D01*
X194133600Y-38650776D01*
X194133602Y-38650775D01*
X194165202Y-38626911D01*
X194171747Y-38621968D01*
X194238161Y-38596878D01*
X194307598Y-38611677D01*
G37*
G04 #@! TD.AperFunction*
G04 #@! TA.AperFunction,NonConductor*
G36*
X196127207Y-126339848D02*
G01*
X196157953Y-126359875D01*
X196172388Y-126372623D01*
X196302163Y-126433553D01*
X196411009Y-126450500D01*
X196485940Y-126450500D01*
X196561471Y-126439683D01*
X196631739Y-126449825D01*
X196685369Y-126496348D01*
X196705333Y-126564480D01*
X196703187Y-126587565D01*
X196699500Y-126607290D01*
X196699500Y-126792710D01*
X196700570Y-126798434D01*
X196700571Y-126798445D01*
X196703275Y-126812909D01*
X196696132Y-126883545D01*
X196651933Y-126939106D01*
X196584712Y-126961951D01*
X196560041Y-126960562D01*
X196488991Y-126949500D01*
X196414060Y-126949500D01*
X196372661Y-126955429D01*
X196316968Y-126963404D01*
X196316965Y-126963405D01*
X196308082Y-126964677D01*
X196299914Y-126968391D01*
X196299913Y-126968391D01*
X196285437Y-126974973D01*
X196177572Y-127024016D01*
X196170771Y-127029876D01*
X196170765Y-127029880D01*
X196157701Y-127041137D01*
X196093039Y-127070451D01*
X196022793Y-127060152D01*
X195992045Y-127040124D01*
X195984341Y-127033320D01*
X195977612Y-127027377D01*
X195847837Y-126966447D01*
X195738991Y-126949500D01*
X195664060Y-126949500D01*
X195622661Y-126955429D01*
X195566968Y-126963404D01*
X195566965Y-126963405D01*
X195558082Y-126964677D01*
X195549914Y-126968391D01*
X195549913Y-126968391D01*
X195535437Y-126974973D01*
X195427572Y-127024016D01*
X195420771Y-127029876D01*
X195420765Y-127029880D01*
X195407701Y-127041137D01*
X195343039Y-127070451D01*
X195272793Y-127060152D01*
X195242045Y-127040124D01*
X195234341Y-127033320D01*
X195227612Y-127027377D01*
X195097837Y-126966447D01*
X194988991Y-126949500D01*
X194914060Y-126949500D01*
X194838529Y-126960317D01*
X194768261Y-126950175D01*
X194714631Y-126903652D01*
X194694667Y-126835520D01*
X194696813Y-126812435D01*
X194699429Y-126798441D01*
X194699429Y-126798438D01*
X194700500Y-126792710D01*
X194700500Y-126607290D01*
X194699429Y-126601559D01*
X194699429Y-126601555D01*
X194696725Y-126587091D01*
X194703868Y-126516455D01*
X194748067Y-126460894D01*
X194815288Y-126438049D01*
X194839959Y-126439438D01*
X194911009Y-126450500D01*
X194985940Y-126450500D01*
X195027339Y-126444571D01*
X195083032Y-126436596D01*
X195083035Y-126436595D01*
X195091918Y-126435323D01*
X195111381Y-126426474D01*
X195149643Y-126409077D01*
X195222428Y-126375984D01*
X195229229Y-126370124D01*
X195229235Y-126370120D01*
X195242299Y-126358863D01*
X195306961Y-126329549D01*
X195377207Y-126339848D01*
X195407953Y-126359875D01*
X195422388Y-126372623D01*
X195552163Y-126433553D01*
X195661009Y-126450500D01*
X195735940Y-126450500D01*
X195777339Y-126444571D01*
X195833032Y-126436596D01*
X195833035Y-126436595D01*
X195841918Y-126435323D01*
X195861381Y-126426474D01*
X195899643Y-126409077D01*
X195972428Y-126375984D01*
X195979229Y-126370124D01*
X195979235Y-126370120D01*
X195992299Y-126358863D01*
X196056961Y-126329549D01*
X196127207Y-126339848D01*
G37*
G04 #@! TD.AperFunction*
G04 #@! TA.AperFunction,NonConductor*
G36*
X103227207Y-126339848D02*
G01*
X103257953Y-126359875D01*
X103272388Y-126372623D01*
X103402163Y-126433553D01*
X103511009Y-126450500D01*
X103585940Y-126450500D01*
X103661471Y-126439683D01*
X103731739Y-126449825D01*
X103785369Y-126496348D01*
X103805333Y-126564480D01*
X103803187Y-126587565D01*
X103799500Y-126607290D01*
X103799500Y-126792710D01*
X103800570Y-126798434D01*
X103800571Y-126798445D01*
X103803275Y-126812909D01*
X103796132Y-126883545D01*
X103751933Y-126939106D01*
X103684712Y-126961951D01*
X103660041Y-126960562D01*
X103588991Y-126949500D01*
X103514060Y-126949500D01*
X103472661Y-126955429D01*
X103416968Y-126963404D01*
X103416965Y-126963405D01*
X103408082Y-126964677D01*
X103399914Y-126968391D01*
X103399913Y-126968391D01*
X103385437Y-126974973D01*
X103277572Y-127024016D01*
X103270771Y-127029876D01*
X103270765Y-127029880D01*
X103257701Y-127041137D01*
X103193039Y-127070451D01*
X103122793Y-127060152D01*
X103092045Y-127040124D01*
X103084341Y-127033320D01*
X103077612Y-127027377D01*
X102947837Y-126966447D01*
X102838991Y-126949500D01*
X102764060Y-126949500D01*
X102722661Y-126955429D01*
X102666968Y-126963404D01*
X102666965Y-126963405D01*
X102658082Y-126964677D01*
X102649914Y-126968391D01*
X102649913Y-126968391D01*
X102635437Y-126974973D01*
X102527572Y-127024016D01*
X102520771Y-127029876D01*
X102520765Y-127029880D01*
X102507701Y-127041137D01*
X102443039Y-127070451D01*
X102372793Y-127060152D01*
X102342045Y-127040124D01*
X102334341Y-127033320D01*
X102327612Y-127027377D01*
X102197837Y-126966447D01*
X102088991Y-126949500D01*
X102014060Y-126949500D01*
X101938529Y-126960317D01*
X101868261Y-126950175D01*
X101814631Y-126903652D01*
X101794667Y-126835520D01*
X101796813Y-126812435D01*
X101799429Y-126798441D01*
X101799429Y-126798438D01*
X101800500Y-126792710D01*
X101800500Y-126607290D01*
X101799429Y-126601559D01*
X101799429Y-126601555D01*
X101796725Y-126587091D01*
X101803868Y-126516455D01*
X101848067Y-126460894D01*
X101915288Y-126438049D01*
X101939959Y-126439438D01*
X102011009Y-126450500D01*
X102085940Y-126450500D01*
X102127339Y-126444571D01*
X102183032Y-126436596D01*
X102183035Y-126436595D01*
X102191918Y-126435323D01*
X102211381Y-126426474D01*
X102249643Y-126409077D01*
X102322428Y-126375984D01*
X102329229Y-126370124D01*
X102329235Y-126370120D01*
X102342299Y-126358863D01*
X102406961Y-126329549D01*
X102477207Y-126339848D01*
X102507953Y-126359875D01*
X102522388Y-126372623D01*
X102652163Y-126433553D01*
X102761009Y-126450500D01*
X102835940Y-126450500D01*
X102877339Y-126444571D01*
X102933032Y-126436596D01*
X102933035Y-126436595D01*
X102941918Y-126435323D01*
X102961381Y-126426474D01*
X102999643Y-126409077D01*
X103072428Y-126375984D01*
X103079229Y-126370124D01*
X103079235Y-126370120D01*
X103092299Y-126358863D01*
X103156961Y-126329549D01*
X103227207Y-126339848D01*
G37*
G04 #@! TD.AperFunction*
G04 #@! TA.AperFunction,NonConductor*
G36*
X325211621Y-27780502D02*
G01*
X325258114Y-27834158D01*
X325269500Y-27886500D01*
X325269500Y-162633500D01*
X325249498Y-162701621D01*
X325195842Y-162748114D01*
X325143500Y-162759500D01*
X15396500Y-162759500D01*
X15328379Y-162739498D01*
X15281886Y-162685842D01*
X15270500Y-162633500D01*
X15270500Y-156938554D01*
X22029499Y-156938554D01*
X22029503Y-156938615D01*
X22045536Y-157216675D01*
X22046361Y-157220880D01*
X22046362Y-157220888D01*
X22057193Y-157276092D01*
X22099169Y-157490047D01*
X22100556Y-157494097D01*
X22100557Y-157494102D01*
X22120353Y-157551921D01*
X22189407Y-157753610D01*
X22314580Y-158002488D01*
X22472371Y-158232076D01*
X22659861Y-158438125D01*
X22663156Y-158440880D01*
X22867994Y-158612150D01*
X22873580Y-158616821D01*
X22877207Y-158619096D01*
X23105933Y-158762577D01*
X23105937Y-158762579D01*
X23109573Y-158764860D01*
X23174926Y-158794368D01*
X23359563Y-158877735D01*
X23359567Y-158877737D01*
X23363475Y-158879501D01*
X23367594Y-158880721D01*
X23626473Y-158957405D01*
X23626478Y-158957406D01*
X23630586Y-158958623D01*
X23634820Y-158959271D01*
X23634825Y-158959272D01*
X23868361Y-158995008D01*
X23905963Y-159000762D01*
X24047862Y-159002991D01*
X24180221Y-159005070D01*
X24180227Y-159005070D01*
X24184512Y-159005137D01*
X24461077Y-158971669D01*
X24730542Y-158900977D01*
X24734502Y-158899337D01*
X24734507Y-158899335D01*
X24859231Y-158847672D01*
X24987919Y-158794368D01*
X25228446Y-158653815D01*
X25447673Y-158481919D01*
X25451832Y-158477628D01*
X25638559Y-158284939D01*
X25641542Y-158281861D01*
X25644075Y-158278413D01*
X25644079Y-158278408D01*
X25803929Y-158060798D01*
X25806467Y-158057343D01*
X25939396Y-157812520D01*
X25959242Y-157760000D01*
X26869459Y-157760000D01*
X26869500Y-157760099D01*
X26869617Y-157760383D01*
X26870000Y-157760541D01*
X26870099Y-157760500D01*
X43119901Y-157760500D01*
X43120000Y-157760541D01*
X43120099Y-157760500D01*
X43120383Y-157760383D01*
X43120541Y-157760000D01*
X43120500Y-157759901D01*
X43120500Y-156938554D01*
X156829499Y-156938554D01*
X156829503Y-156938615D01*
X156845536Y-157216675D01*
X156846361Y-157220880D01*
X156846362Y-157220888D01*
X156857193Y-157276092D01*
X156899169Y-157490047D01*
X156900556Y-157494097D01*
X156900557Y-157494102D01*
X156920353Y-157551921D01*
X156989407Y-157753610D01*
X157114580Y-158002488D01*
X157272371Y-158232076D01*
X157459861Y-158438125D01*
X157463156Y-158440880D01*
X157667994Y-158612150D01*
X157673580Y-158616821D01*
X157677207Y-158619096D01*
X157905933Y-158762577D01*
X157905937Y-158762579D01*
X157909573Y-158764860D01*
X157974926Y-158794368D01*
X158159563Y-158877735D01*
X158159567Y-158877737D01*
X158163475Y-158879501D01*
X158167594Y-158880721D01*
X158426473Y-158957405D01*
X158426478Y-158957406D01*
X158430586Y-158958623D01*
X158434820Y-158959271D01*
X158434825Y-158959272D01*
X158668361Y-158995008D01*
X158705963Y-159000762D01*
X158847862Y-159002991D01*
X158980221Y-159005070D01*
X158980227Y-159005070D01*
X158984512Y-159005137D01*
X159261077Y-158971669D01*
X159530542Y-158900977D01*
X159534502Y-158899337D01*
X159534507Y-158899335D01*
X159659230Y-158847673D01*
X159787919Y-158794368D01*
X160028446Y-158653815D01*
X160247673Y-158481919D01*
X160251832Y-158477628D01*
X160438559Y-158284939D01*
X160441542Y-158281861D01*
X160444075Y-158278413D01*
X160444079Y-158278408D01*
X160603929Y-158060798D01*
X160606467Y-158057343D01*
X160739396Y-157812520D01*
X160837868Y-157551921D01*
X160900061Y-157280369D01*
X160924826Y-157002889D01*
X160925275Y-156960000D01*
X160923813Y-156938554D01*
X314822168Y-156938554D01*
X314822172Y-156938615D01*
X314838205Y-157216675D01*
X314839030Y-157220880D01*
X314839031Y-157220888D01*
X314849862Y-157276092D01*
X314891838Y-157490047D01*
X314893225Y-157494097D01*
X314893226Y-157494102D01*
X314913022Y-157551921D01*
X314982076Y-157753610D01*
X315107249Y-158002488D01*
X315265040Y-158232076D01*
X315452530Y-158438125D01*
X315455825Y-158440880D01*
X315660663Y-158612150D01*
X315666249Y-158616821D01*
X315669876Y-158619096D01*
X315898602Y-158762577D01*
X315898606Y-158762579D01*
X315902242Y-158764860D01*
X315967595Y-158794368D01*
X316152232Y-158877735D01*
X316152236Y-158877737D01*
X316156144Y-158879501D01*
X316160263Y-158880721D01*
X316419142Y-158957405D01*
X316419147Y-158957406D01*
X316423255Y-158958623D01*
X316427489Y-158959271D01*
X316427494Y-158959272D01*
X316661030Y-158995008D01*
X316698632Y-159000762D01*
X316840531Y-159002991D01*
X316972890Y-159005070D01*
X316972896Y-159005070D01*
X316977181Y-159005137D01*
X317253746Y-158971669D01*
X317523211Y-158900977D01*
X317527171Y-158899337D01*
X317527176Y-158899335D01*
X317651899Y-158847673D01*
X317780588Y-158794368D01*
X318021115Y-158653815D01*
X318240342Y-158481919D01*
X318244501Y-158477628D01*
X318431228Y-158284939D01*
X318434211Y-158281861D01*
X318436744Y-158278413D01*
X318436748Y-158278408D01*
X318596598Y-158060798D01*
X318599136Y-158057343D01*
X318732065Y-157812520D01*
X318830537Y-157551921D01*
X318892730Y-157280369D01*
X318917495Y-157002889D01*
X318917944Y-156960000D01*
X318898996Y-156682062D01*
X318842503Y-156409267D01*
X318749510Y-156146663D01*
X318621738Y-155899110D01*
X318608887Y-155880824D01*
X318464014Y-155674692D01*
X318461551Y-155671187D01*
X318390163Y-155594365D01*
X318274835Y-155470256D01*
X318274832Y-155470253D01*
X318271914Y-155467113D01*
X318056335Y-155290664D01*
X317818804Y-155145105D01*
X317808116Y-155140413D01*
X317567648Y-155034855D01*
X317563716Y-155033129D01*
X317538585Y-155025970D01*
X317315618Y-154962456D01*
X317295791Y-154956808D01*
X317090144Y-154927541D01*
X317024240Y-154918161D01*
X317024238Y-154918161D01*
X317019988Y-154917556D01*
X317015699Y-154917534D01*
X317015692Y-154917533D01*
X316745695Y-154916119D01*
X316745688Y-154916119D01*
X316741409Y-154916097D01*
X316737164Y-154916656D01*
X316737162Y-154916656D01*
X316697635Y-154921860D01*
X316465209Y-154952460D01*
X316196500Y-155025970D01*
X316192552Y-155027654D01*
X315944205Y-155133583D01*
X315944201Y-155133585D01*
X315940253Y-155135269D01*
X315819583Y-155207488D01*
X315704893Y-155276128D01*
X315704889Y-155276131D01*
X315701211Y-155278332D01*
X315483796Y-155452514D01*
X315292032Y-155654591D01*
X315129467Y-155880824D01*
X314999110Y-156127026D01*
X314997638Y-156131049D01*
X314997636Y-156131053D01*
X314990445Y-156150704D01*
X314903372Y-156388642D01*
X314844026Y-156660830D01*
X314822168Y-156938554D01*
X160923813Y-156938554D01*
X160906327Y-156682062D01*
X160849834Y-156409267D01*
X160756841Y-156146663D01*
X160629069Y-155899110D01*
X160616218Y-155880824D01*
X160471345Y-155674692D01*
X160468882Y-155671187D01*
X160397494Y-155594365D01*
X160282166Y-155470256D01*
X160282163Y-155470253D01*
X160279245Y-155467113D01*
X160063666Y-155290664D01*
X159826135Y-155145105D01*
X159815447Y-155140413D01*
X159574979Y-155034855D01*
X159571047Y-155033129D01*
X159545916Y-155025970D01*
X159322949Y-154962456D01*
X159303122Y-154956808D01*
X159097475Y-154927541D01*
X159031571Y-154918161D01*
X159031569Y-154918161D01*
X159027319Y-154917556D01*
X159023030Y-154917534D01*
X159023023Y-154917533D01*
X158753026Y-154916119D01*
X158753019Y-154916119D01*
X158748740Y-154916097D01*
X158744495Y-154916656D01*
X158744493Y-154916656D01*
X158704966Y-154921860D01*
X158472540Y-154952460D01*
X158203831Y-155025970D01*
X158199883Y-155027654D01*
X157951536Y-155133583D01*
X157951532Y-155133585D01*
X157947584Y-155135269D01*
X157826914Y-155207488D01*
X157712224Y-155276128D01*
X157712220Y-155276131D01*
X157708542Y-155278332D01*
X157491127Y-155452514D01*
X157299363Y-155654591D01*
X157136798Y-155880824D01*
X157006441Y-156127026D01*
X157004969Y-156131049D01*
X157004967Y-156131053D01*
X156997776Y-156150704D01*
X156910703Y-156388642D01*
X156851357Y-156660830D01*
X156829499Y-156938554D01*
X43120500Y-156938554D01*
X43120500Y-155360000D01*
X48019459Y-155360000D01*
X48019500Y-155360099D01*
X48019617Y-155360383D01*
X48020000Y-155360541D01*
X48020099Y-155360500D01*
X63519901Y-155360500D01*
X63520000Y-155360541D01*
X63520099Y-155360500D01*
X63520383Y-155360383D01*
X63520541Y-155360000D01*
X63520500Y-155359901D01*
X63520500Y-152710000D01*
X242819459Y-152710000D01*
X242819500Y-152710099D01*
X242819617Y-152710383D01*
X242820000Y-152710541D01*
X242820099Y-152710500D01*
X252719901Y-152710500D01*
X252720000Y-152710541D01*
X252720099Y-152710500D01*
X252720383Y-152710383D01*
X252720541Y-152710000D01*
X304319459Y-152710000D01*
X304319500Y-152710099D01*
X304319617Y-152710383D01*
X304320000Y-152710541D01*
X304320099Y-152710500D01*
X314219901Y-152710500D01*
X314220000Y-152710541D01*
X314220099Y-152710500D01*
X314220383Y-152710383D01*
X314220541Y-152710000D01*
X314220500Y-152709901D01*
X314220500Y-149300000D01*
X317300000Y-149300000D01*
X317400000Y-149700000D01*
X317406009Y-149709013D01*
X317406010Y-149709016D01*
X317471664Y-149807496D01*
X317600000Y-150000000D01*
X317900000Y-150200000D01*
X317907968Y-150202656D01*
X317907970Y-150202657D01*
X318168956Y-150289652D01*
X318200000Y-150300000D01*
X318600000Y-150300000D01*
X318615521Y-150289653D01*
X318615523Y-150289652D01*
X318893469Y-150104354D01*
X318907012Y-150096494D01*
X319100000Y-150000000D01*
X319300000Y-149700000D01*
X319400000Y-149500000D01*
X319400000Y-149200000D01*
X319371720Y-149086881D01*
X319302628Y-148810511D01*
X319302627Y-148810510D01*
X319300000Y-148800000D01*
X319293991Y-148790987D01*
X319293990Y-148790984D01*
X319106920Y-148510380D01*
X319100000Y-148500000D01*
X319089620Y-148493080D01*
X318809016Y-148306010D01*
X318809013Y-148306009D01*
X318800000Y-148300000D01*
X318789490Y-148297373D01*
X318789489Y-148297372D01*
X318415048Y-148203762D01*
X318400000Y-148200000D01*
X318000000Y-148300000D01*
X317600000Y-148500000D01*
X317300000Y-149100000D01*
X317300000Y-149300000D01*
X314220500Y-149300000D01*
X314220500Y-147810099D01*
X314220541Y-147810000D01*
X314220383Y-147809617D01*
X314220099Y-147809500D01*
X314220000Y-147809459D01*
X314219901Y-147809500D01*
X304320099Y-147809500D01*
X304320000Y-147809459D01*
X304319901Y-147809500D01*
X304319617Y-147809617D01*
X304319459Y-147810000D01*
X304319500Y-147810099D01*
X304319500Y-152709901D01*
X304319459Y-152710000D01*
X252720541Y-152710000D01*
X252720500Y-152709901D01*
X252720500Y-147810099D01*
X252720541Y-147810000D01*
X252720383Y-147809617D01*
X252720099Y-147809500D01*
X252720000Y-147809459D01*
X252719901Y-147809500D01*
X242820099Y-147809500D01*
X242820000Y-147809459D01*
X242819901Y-147809500D01*
X242819617Y-147809617D01*
X242819459Y-147810000D01*
X242819500Y-147810099D01*
X242819500Y-152709901D01*
X242819459Y-152710000D01*
X63520500Y-152710000D01*
X63520500Y-149800000D01*
X237700000Y-149800000D01*
X237800000Y-150200000D01*
X237806009Y-150209013D01*
X237806010Y-150209016D01*
X237990877Y-150486315D01*
X238000000Y-150500000D01*
X238300000Y-150700000D01*
X238307968Y-150702656D01*
X238307970Y-150702657D01*
X238568956Y-150789652D01*
X238600000Y-150800000D01*
X239000000Y-150800000D01*
X239015521Y-150789653D01*
X239015523Y-150789652D01*
X239293469Y-150604354D01*
X239307012Y-150596494D01*
X239500000Y-150500000D01*
X239700000Y-150200000D01*
X239800000Y-150000000D01*
X239800000Y-149700000D01*
X239700000Y-149300000D01*
X239693991Y-149290987D01*
X239693990Y-149290984D01*
X239506920Y-149010380D01*
X239500000Y-149000000D01*
X239489620Y-148993080D01*
X239209016Y-148806010D01*
X239209013Y-148806009D01*
X239200000Y-148800000D01*
X239189490Y-148797373D01*
X239189489Y-148797372D01*
X238815048Y-148703762D01*
X238800000Y-148700000D01*
X238400000Y-148800000D01*
X238000000Y-149000000D01*
X237700000Y-149600000D01*
X237700000Y-149800000D01*
X63520500Y-149800000D01*
X63520500Y-147160099D01*
X63520541Y-147160000D01*
X63520383Y-147159617D01*
X63520099Y-147159500D01*
X63520000Y-147159459D01*
X63519901Y-147159500D01*
X48020099Y-147159500D01*
X48020000Y-147159459D01*
X48019901Y-147159500D01*
X48019617Y-147159617D01*
X48019459Y-147160000D01*
X48019500Y-147160099D01*
X48019500Y-155359901D01*
X48019459Y-155360000D01*
X43120500Y-155360000D01*
X43120500Y-146710000D01*
X83819459Y-146710000D01*
X83819500Y-146710099D01*
X83819617Y-146710383D01*
X83820000Y-146710541D01*
X83820099Y-146710500D01*
X93719901Y-146710500D01*
X93720000Y-146710541D01*
X93720099Y-146710500D01*
X93720383Y-146710383D01*
X93720541Y-146710000D01*
X103319459Y-146710000D01*
X103319500Y-146710099D01*
X103319617Y-146710383D01*
X103320000Y-146710541D01*
X103320099Y-146710500D01*
X113219901Y-146710500D01*
X113220000Y-146710541D01*
X113220099Y-146710500D01*
X113220383Y-146710383D01*
X113220541Y-146710000D01*
X122319459Y-146710000D01*
X122319500Y-146710099D01*
X122319617Y-146710383D01*
X122320000Y-146710541D01*
X122320099Y-146710500D01*
X132219901Y-146710500D01*
X132220000Y-146710541D01*
X132220099Y-146710500D01*
X132220383Y-146710383D01*
X132220541Y-146710000D01*
X141819459Y-146710000D01*
X141819500Y-146710099D01*
X141819617Y-146710383D01*
X141820000Y-146710541D01*
X141820099Y-146710500D01*
X151719901Y-146710500D01*
X151720000Y-146710541D01*
X151720099Y-146710500D01*
X151720383Y-146710383D01*
X151720541Y-146710000D01*
X160819459Y-146710000D01*
X160819500Y-146710099D01*
X160819617Y-146710383D01*
X160820000Y-146710541D01*
X160820099Y-146710500D01*
X170719901Y-146710500D01*
X170720000Y-146710541D01*
X170720099Y-146710500D01*
X170720383Y-146710383D01*
X170720541Y-146710000D01*
X180319459Y-146710000D01*
X180319500Y-146710099D01*
X180319617Y-146710383D01*
X180320000Y-146710541D01*
X180320099Y-146710500D01*
X190219901Y-146710500D01*
X190220000Y-146710541D01*
X190220099Y-146710500D01*
X190220383Y-146710383D01*
X190220541Y-146710000D01*
X199319459Y-146710000D01*
X199319500Y-146710099D01*
X199319617Y-146710383D01*
X199320000Y-146710541D01*
X199320099Y-146710500D01*
X209219901Y-146710500D01*
X209220000Y-146710541D01*
X209220099Y-146710500D01*
X209220383Y-146710383D01*
X209220541Y-146710000D01*
X218819459Y-146710000D01*
X218819500Y-146710099D01*
X218819617Y-146710383D01*
X218820000Y-146710541D01*
X218820099Y-146710500D01*
X228719901Y-146710500D01*
X228720000Y-146710541D01*
X228720099Y-146710500D01*
X228720383Y-146710383D01*
X228720541Y-146710000D01*
X228720500Y-146709901D01*
X228720500Y-141810099D01*
X228720541Y-141810000D01*
X228720383Y-141809617D01*
X228720099Y-141809500D01*
X228720000Y-141809459D01*
X228719901Y-141809500D01*
X218820099Y-141809500D01*
X218820000Y-141809459D01*
X218819901Y-141809500D01*
X218819617Y-141809617D01*
X218819459Y-141810000D01*
X218819500Y-141810099D01*
X218819500Y-146709901D01*
X218819459Y-146710000D01*
X209220541Y-146710000D01*
X209220500Y-146709901D01*
X209220500Y-141810099D01*
X209220541Y-141810000D01*
X209220383Y-141809617D01*
X209220099Y-141809500D01*
X209220000Y-141809459D01*
X209219901Y-141809500D01*
X199320099Y-141809500D01*
X199320000Y-141809459D01*
X199319901Y-141809500D01*
X199319617Y-141809617D01*
X199319459Y-141810000D01*
X199319500Y-141810099D01*
X199319500Y-146709901D01*
X199319459Y-146710000D01*
X190220541Y-146710000D01*
X190220500Y-146709901D01*
X190220500Y-141810099D01*
X190220541Y-141810000D01*
X190220383Y-141809617D01*
X190220099Y-141809500D01*
X190220000Y-141809459D01*
X190219901Y-141809500D01*
X180320099Y-141809500D01*
X180320000Y-141809459D01*
X180319901Y-141809500D01*
X180319617Y-141809617D01*
X180319459Y-141810000D01*
X180319500Y-141810099D01*
X180319500Y-146709901D01*
X180319459Y-146710000D01*
X170720541Y-146710000D01*
X170720500Y-146709901D01*
X170720500Y-141810099D01*
X170720541Y-141810000D01*
X170720383Y-141809617D01*
X170720099Y-141809500D01*
X170720000Y-141809459D01*
X170719901Y-141809500D01*
X160820099Y-141809500D01*
X160820000Y-141809459D01*
X160819901Y-141809500D01*
X160819617Y-141809617D01*
X160819459Y-141810000D01*
X160819500Y-141810099D01*
X160819500Y-146709901D01*
X160819459Y-146710000D01*
X151720541Y-146710000D01*
X151720500Y-146709901D01*
X151720500Y-141810099D01*
X151720541Y-141810000D01*
X151720383Y-141809617D01*
X151720099Y-141809500D01*
X151720000Y-141809459D01*
X151719901Y-141809500D01*
X141820099Y-141809500D01*
X141820000Y-141809459D01*
X141819901Y-141809500D01*
X141819617Y-141809617D01*
X141819459Y-141810000D01*
X141819500Y-141810099D01*
X141819500Y-146709901D01*
X141819459Y-146710000D01*
X132220541Y-146710000D01*
X132220500Y-146709901D01*
X132220500Y-141810099D01*
X132220541Y-141810000D01*
X132220383Y-141809617D01*
X132220099Y-141809500D01*
X132220000Y-141809459D01*
X132219901Y-141809500D01*
X122320099Y-141809500D01*
X122320000Y-141809459D01*
X122319901Y-141809500D01*
X122319617Y-141809617D01*
X122319459Y-141810000D01*
X122319500Y-141810099D01*
X122319500Y-146709901D01*
X122319459Y-146710000D01*
X113220541Y-146710000D01*
X113220500Y-146709901D01*
X113220500Y-141810099D01*
X113220541Y-141810000D01*
X113220383Y-141809617D01*
X113220099Y-141809500D01*
X113220000Y-141809459D01*
X113219901Y-141809500D01*
X103320099Y-141809500D01*
X103320000Y-141809459D01*
X103319901Y-141809500D01*
X103319617Y-141809617D01*
X103319459Y-141810000D01*
X103319500Y-141810099D01*
X103319500Y-146709901D01*
X103319459Y-146710000D01*
X93720541Y-146710000D01*
X93720500Y-146709901D01*
X93720500Y-141810099D01*
X93720541Y-141810000D01*
X93720383Y-141809617D01*
X93720099Y-141809500D01*
X93720000Y-141809459D01*
X93719901Y-141809500D01*
X83820099Y-141809500D01*
X83820000Y-141809459D01*
X83819901Y-141809500D01*
X83819617Y-141809617D01*
X83819459Y-141810000D01*
X83819500Y-141810099D01*
X83819500Y-146709901D01*
X83819459Y-146710000D01*
X43120500Y-146710000D01*
X43120500Y-140760099D01*
X43120541Y-140760000D01*
X43120383Y-140759617D01*
X43120099Y-140759500D01*
X43120000Y-140759459D01*
X43119901Y-140759500D01*
X26870099Y-140759500D01*
X26870000Y-140759459D01*
X26869901Y-140759500D01*
X26869617Y-140759617D01*
X26869459Y-140760000D01*
X26869500Y-140760099D01*
X26869500Y-157759901D01*
X26869459Y-157760000D01*
X25959242Y-157760000D01*
X26037868Y-157551921D01*
X26100061Y-157280369D01*
X26124826Y-157002889D01*
X26125275Y-156960000D01*
X26106327Y-156682062D01*
X26049834Y-156409267D01*
X25956841Y-156146663D01*
X25829069Y-155899110D01*
X25816218Y-155880824D01*
X25671345Y-155674692D01*
X25668882Y-155671187D01*
X25597494Y-155594365D01*
X25482166Y-155470256D01*
X25482163Y-155470253D01*
X25479245Y-155467113D01*
X25263666Y-155290664D01*
X25026135Y-155145105D01*
X25015447Y-155140413D01*
X24774979Y-155034855D01*
X24771047Y-155033129D01*
X24745916Y-155025970D01*
X24522949Y-154962456D01*
X24503122Y-154956808D01*
X24297475Y-154927541D01*
X24231571Y-154918161D01*
X24231569Y-154918161D01*
X24227319Y-154917556D01*
X24223030Y-154917534D01*
X24223023Y-154917533D01*
X23953026Y-154916119D01*
X23953019Y-154916119D01*
X23948740Y-154916097D01*
X23944495Y-154916656D01*
X23944493Y-154916656D01*
X23904966Y-154921860D01*
X23672540Y-154952460D01*
X23403831Y-155025970D01*
X23399883Y-155027654D01*
X23151536Y-155133583D01*
X23151532Y-155133585D01*
X23147584Y-155135269D01*
X23026914Y-155207488D01*
X22912224Y-155276128D01*
X22912220Y-155276131D01*
X22908542Y-155278332D01*
X22691127Y-155452514D01*
X22499363Y-155654591D01*
X22336798Y-155880824D01*
X22206441Y-156127026D01*
X22204969Y-156131049D01*
X22204967Y-156131053D01*
X22197776Y-156150704D01*
X22110703Y-156388642D01*
X22051357Y-156660830D01*
X22029499Y-156938554D01*
X15270500Y-156938554D01*
X15270500Y-136210000D01*
X304319459Y-136210000D01*
X304319500Y-136210099D01*
X304319617Y-136210383D01*
X304320000Y-136210541D01*
X304320099Y-136210500D01*
X314219901Y-136210500D01*
X314220000Y-136210541D01*
X314220099Y-136210500D01*
X314220383Y-136210383D01*
X314220541Y-136210000D01*
X314220500Y-136209901D01*
X314220500Y-132400000D01*
X317200000Y-132400000D01*
X317300000Y-132800000D01*
X317306009Y-132809013D01*
X317306010Y-132809016D01*
X317406320Y-132959480D01*
X317500000Y-133100000D01*
X317800000Y-133300000D01*
X317807968Y-133302656D01*
X317807970Y-133302657D01*
X318068956Y-133389652D01*
X318100000Y-133400000D01*
X318500000Y-133400000D01*
X318515521Y-133389653D01*
X318515523Y-133389652D01*
X318793469Y-133204354D01*
X318807012Y-133196494D01*
X319000000Y-133100000D01*
X319200000Y-132800000D01*
X319300000Y-132600000D01*
X319300000Y-132300000D01*
X319272462Y-132189848D01*
X319202628Y-131910511D01*
X319202627Y-131910510D01*
X319200000Y-131900000D01*
X319193991Y-131890987D01*
X319193990Y-131890984D01*
X319006920Y-131610380D01*
X319000000Y-131600000D01*
X318989446Y-131592964D01*
X318709016Y-131406010D01*
X318709013Y-131406009D01*
X318700000Y-131400000D01*
X318689490Y-131397373D01*
X318689489Y-131397372D01*
X318315048Y-131303762D01*
X318300000Y-131300000D01*
X317900000Y-131400000D01*
X317500000Y-131600000D01*
X317200000Y-132200000D01*
X317200000Y-132400000D01*
X314220500Y-132400000D01*
X314220500Y-131310099D01*
X314220541Y-131310000D01*
X314220383Y-131309617D01*
X314220099Y-131309500D01*
X314220000Y-131309459D01*
X314219901Y-131309500D01*
X304320099Y-131309500D01*
X304320000Y-131309459D01*
X304319901Y-131309500D01*
X304319617Y-131309617D01*
X304319459Y-131310000D01*
X304319500Y-131310099D01*
X304319500Y-136209901D01*
X304319459Y-136210000D01*
X15270500Y-136210000D01*
X15270500Y-127683318D01*
X31533237Y-127683318D01*
X31533241Y-127683403D01*
X31548370Y-128044399D01*
X31569081Y-128178181D01*
X31600793Y-128383027D01*
X31603659Y-128401542D01*
X31698413Y-128750296D01*
X31699703Y-128753555D01*
X31699705Y-128753560D01*
X31807403Y-129025572D01*
X31831453Y-129086315D01*
X31833108Y-129089427D01*
X31833110Y-129089432D01*
X31884923Y-129186877D01*
X32001118Y-129405409D01*
X32003108Y-129408315D01*
X32003109Y-129408317D01*
X32203305Y-129700696D01*
X32203310Y-129700702D01*
X32205296Y-129703603D01*
X32441440Y-129977179D01*
X32444010Y-129979559D01*
X32444014Y-129979563D01*
X32458348Y-129992836D01*
X32706608Y-130222727D01*
X32709430Y-130224808D01*
X32709433Y-130224810D01*
X32807644Y-130297217D01*
X32997495Y-130437187D01*
X33000532Y-130438941D01*
X33000536Y-130438943D01*
X33112875Y-130503802D01*
X33310474Y-130617886D01*
X33389487Y-130652406D01*
X33638423Y-130761164D01*
X33638433Y-130761168D01*
X33641645Y-130762571D01*
X33645002Y-130763610D01*
X33645007Y-130763612D01*
X33967781Y-130863527D01*
X33986880Y-130869439D01*
X34042568Y-130880062D01*
X34338425Y-130936500D01*
X34338430Y-130936501D01*
X34341876Y-130937158D01*
X34539886Y-130952394D01*
X34698711Y-130964615D01*
X34698712Y-130964615D01*
X34702208Y-130964884D01*
X34928709Y-130956974D01*
X35059870Y-130952394D01*
X35059874Y-130952394D01*
X35063385Y-130952271D01*
X35170186Y-130936500D01*
X35417413Y-130899993D01*
X35417419Y-130899992D01*
X35420905Y-130899477D01*
X35424309Y-130898578D01*
X35424312Y-130898577D01*
X35766921Y-130808056D01*
X35766922Y-130808056D01*
X35770312Y-130807160D01*
X36107252Y-130676470D01*
X36427523Y-130509036D01*
X36622807Y-130377315D01*
X36724219Y-130308912D01*
X36724221Y-130308911D01*
X36727135Y-130306945D01*
X37002353Y-130072717D01*
X37004748Y-130070167D01*
X37004756Y-130070159D01*
X37247335Y-129811837D01*
X37247339Y-129811832D01*
X37249746Y-129809269D01*
X37251851Y-129806455D01*
X37251857Y-129806448D01*
X37464123Y-129522706D01*
X37466232Y-129519887D01*
X37468211Y-129516515D01*
X37552476Y-129372887D01*
X37649111Y-129208177D01*
X37657355Y-129189662D01*
X37794673Y-128881240D01*
X37796105Y-128878024D01*
X37905380Y-128533544D01*
X37975576Y-128179029D01*
X37996510Y-127929737D01*
X38005634Y-127821084D01*
X38005635Y-127821073D01*
X38005817Y-127818900D01*
X38005903Y-127812792D01*
X38007049Y-127730692D01*
X38007049Y-127730681D01*
X38007079Y-127728515D01*
X38006916Y-127725589D01*
X38003517Y-127664803D01*
X52833237Y-127664803D01*
X52833241Y-127664888D01*
X52848370Y-128025884D01*
X52903659Y-128383027D01*
X52904581Y-128386419D01*
X52904581Y-128386421D01*
X52913876Y-128420632D01*
X52998413Y-128731781D01*
X52999703Y-128735040D01*
X52999705Y-128735045D01*
X53056315Y-128878024D01*
X53131453Y-129067800D01*
X53133108Y-129070912D01*
X53133110Y-129070917D01*
X53204383Y-129204961D01*
X53301118Y-129386894D01*
X53303108Y-129389800D01*
X53303109Y-129389802D01*
X53503305Y-129682181D01*
X53503310Y-129682187D01*
X53505296Y-129685088D01*
X53741440Y-129958664D01*
X53744010Y-129961044D01*
X53744014Y-129961048D01*
X53771812Y-129986789D01*
X54006608Y-130204212D01*
X54297495Y-130418672D01*
X54300532Y-130420426D01*
X54300536Y-130420428D01*
X54332605Y-130438943D01*
X54610474Y-130599371D01*
X54640404Y-130612447D01*
X54938423Y-130742649D01*
X54938433Y-130742653D01*
X54941645Y-130744056D01*
X54945002Y-130745095D01*
X54945007Y-130745097D01*
X55267781Y-130845012D01*
X55286880Y-130850924D01*
X55290336Y-130851583D01*
X55290335Y-130851583D01*
X55638425Y-130917985D01*
X55638430Y-130917986D01*
X55641876Y-130918643D01*
X55839886Y-130933879D01*
X55998711Y-130946100D01*
X55998712Y-130946100D01*
X56002208Y-130946369D01*
X56228709Y-130938459D01*
X56359870Y-130933879D01*
X56359874Y-130933879D01*
X56363385Y-130933756D01*
X56506626Y-130912604D01*
X56717413Y-130881478D01*
X56717419Y-130881477D01*
X56720905Y-130880962D01*
X56724309Y-130880063D01*
X56724312Y-130880062D01*
X57066921Y-130789541D01*
X57066922Y-130789541D01*
X57070312Y-130788645D01*
X57407252Y-130657955D01*
X57727523Y-130490521D01*
X57996769Y-130308912D01*
X58024219Y-130290397D01*
X58024221Y-130290396D01*
X58027135Y-130288430D01*
X58302353Y-130054202D01*
X58304748Y-130051652D01*
X58304756Y-130051644D01*
X58547335Y-129793322D01*
X58547339Y-129793317D01*
X58549746Y-129790754D01*
X58551851Y-129787940D01*
X58551857Y-129787933D01*
X58754651Y-129516852D01*
X58766232Y-129501372D01*
X58768211Y-129498000D01*
X58842762Y-129370929D01*
X58940962Y-129203551D01*
X273727389Y-129203551D01*
X273727392Y-129203633D01*
X273741174Y-129598310D01*
X273793416Y-129989840D01*
X273883614Y-130374403D01*
X274010909Y-130748329D01*
X274174085Y-131108049D01*
X274371585Y-131450129D01*
X274373374Y-131452628D01*
X274373376Y-131452631D01*
X274478882Y-131600000D01*
X274601523Y-131771304D01*
X274603549Y-131773619D01*
X274603552Y-131773622D01*
X274712391Y-131897947D01*
X274861706Y-132068507D01*
X275149648Y-132338903D01*
X275152098Y-132340790D01*
X275152103Y-132340794D01*
X275290938Y-132447711D01*
X275462602Y-132579910D01*
X275797581Y-132789228D01*
X276151387Y-132964859D01*
X276520643Y-133105126D01*
X276901824Y-133208691D01*
X276904867Y-133209206D01*
X276904873Y-133209207D01*
X277288251Y-133274051D01*
X277288258Y-133274052D01*
X277291292Y-133274565D01*
X277294360Y-133274780D01*
X277294364Y-133274780D01*
X277682264Y-133301904D01*
X277682272Y-133301904D01*
X277685330Y-133302118D01*
X277939470Y-133295019D01*
X278077101Y-133291175D01*
X278077104Y-133291175D01*
X278080175Y-133291089D01*
X278083228Y-133290703D01*
X278083232Y-133290703D01*
X278270711Y-133267019D01*
X278472060Y-133241583D01*
X278475064Y-133240901D01*
X278475067Y-133240900D01*
X278854248Y-133154752D01*
X278854254Y-133154750D01*
X278857244Y-133154071D01*
X279004379Y-133105126D01*
X279229126Y-133030363D01*
X279229132Y-133030361D01*
X279232050Y-133029390D01*
X279244343Y-133023917D01*
X279590100Y-132869976D01*
X279590106Y-132869973D01*
X279592900Y-132868729D01*
X279698014Y-132809016D01*
X279933682Y-132675138D01*
X279933687Y-132675135D01*
X279936350Y-132673622D01*
X280259122Y-132445931D01*
X280558135Y-132187830D01*
X280671765Y-132068507D01*
X280828408Y-131904017D01*
X280828412Y-131904012D01*
X280830535Y-131901783D01*
X280838973Y-131890984D01*
X281071811Y-131592964D01*
X281071813Y-131592961D01*
X281073721Y-131590519D01*
X281075377Y-131587909D01*
X281075383Y-131587901D01*
X281283718Y-131259616D01*
X281283722Y-131259609D01*
X281285372Y-131257009D01*
X281286837Y-131254110D01*
X281432935Y-130964884D01*
X281463469Y-130904438D01*
X281464576Y-130901584D01*
X281464580Y-130901575D01*
X281605195Y-130539047D01*
X281605198Y-130539038D01*
X281606310Y-130536171D01*
X281698995Y-130204212D01*
X281711706Y-130158688D01*
X281711707Y-130158686D01*
X281712534Y-130155722D01*
X281781125Y-129766723D01*
X281809166Y-129402294D01*
X281811279Y-129374838D01*
X281811279Y-129374834D01*
X281811429Y-129372887D01*
X281813005Y-129260000D01*
X281810471Y-129208177D01*
X281794217Y-128875861D01*
X281793709Y-128865472D01*
X281736007Y-128474710D01*
X281718611Y-128404936D01*
X281663149Y-128182493D01*
X281640448Y-128091443D01*
X281623485Y-128043804D01*
X281563626Y-127875703D01*
X281507944Y-127719331D01*
X281339762Y-127361924D01*
X281335787Y-127355255D01*
X281196905Y-127122280D01*
X281137505Y-127022635D01*
X280903104Y-126704702D01*
X280733606Y-126516455D01*
X280640867Y-126413457D01*
X280640859Y-126413449D01*
X280638798Y-126411160D01*
X280347108Y-126144811D01*
X280030820Y-125908197D01*
X279933444Y-125849224D01*
X279695579Y-125705167D01*
X279695570Y-125705162D01*
X279692951Y-125703576D01*
X279336727Y-125532903D01*
X279333013Y-125531551D01*
X278968445Y-125398859D01*
X278968444Y-125398859D01*
X278965549Y-125397805D01*
X278752753Y-125343168D01*
X278585943Y-125300338D01*
X278585940Y-125300337D01*
X278582959Y-125299572D01*
X278192609Y-125239143D01*
X277798225Y-125217094D01*
X277795146Y-125217223D01*
X277795143Y-125217223D01*
X277535996Y-125228084D01*
X277403572Y-125233634D01*
X277400528Y-125234062D01*
X277400526Y-125234062D01*
X277189434Y-125263729D01*
X277012416Y-125288608D01*
X276628492Y-125381489D01*
X276255464Y-125511391D01*
X275896892Y-125677074D01*
X275556199Y-125876958D01*
X275425235Y-125972109D01*
X275239119Y-126107330D01*
X275239113Y-126107335D01*
X275236638Y-126109133D01*
X275234352Y-126111162D01*
X275234349Y-126111165D01*
X275196453Y-126144811D01*
X274941258Y-126371383D01*
X274939179Y-126373629D01*
X274939172Y-126373635D01*
X274687484Y-126645433D01*
X274672878Y-126661206D01*
X274671020Y-126663654D01*
X274671019Y-126663655D01*
X274441189Y-126966447D01*
X274434062Y-126975836D01*
X274432451Y-126978454D01*
X274432448Y-126978459D01*
X274382190Y-127060152D01*
X274227088Y-127312267D01*
X274053931Y-127667291D01*
X273916245Y-128037517D01*
X273815344Y-128419412D01*
X273799312Y-128518396D01*
X273761753Y-128750296D01*
X273752191Y-128809331D01*
X273751997Y-128812411D01*
X273751997Y-128812413D01*
X273749170Y-128857346D01*
X273727389Y-129203551D01*
X58940962Y-129203551D01*
X58949111Y-129189662D01*
X59096105Y-128859509D01*
X59205380Y-128515029D01*
X59275576Y-128160514D01*
X59289436Y-127995455D01*
X59305634Y-127802569D01*
X59305635Y-127802558D01*
X59305817Y-127800385D01*
X59305987Y-127788260D01*
X59307049Y-127712177D01*
X59307049Y-127712166D01*
X59307079Y-127710000D01*
X59306788Y-127704786D01*
X59295163Y-127496878D01*
X59286905Y-127349166D01*
X59286136Y-127344616D01*
X59227224Y-126996311D01*
X59227223Y-126996307D01*
X59226635Y-126992830D01*
X59127021Y-126645433D01*
X59050960Y-126460894D01*
X58990641Y-126314549D01*
X58990637Y-126314541D01*
X58989303Y-126311304D01*
X58815199Y-125994609D01*
X58803505Y-125978031D01*
X58608909Y-125702175D01*
X58608908Y-125702174D01*
X58606878Y-125699296D01*
X58366937Y-125429043D01*
X58313320Y-125380766D01*
X58100984Y-125189578D01*
X58100981Y-125189576D01*
X58098366Y-125187221D01*
X58051466Y-125153644D01*
X57807381Y-124978896D01*
X57807374Y-124978892D01*
X57804514Y-124976844D01*
X57489042Y-124800533D01*
X57155883Y-124660486D01*
X57124975Y-124651389D01*
X56989410Y-124611490D01*
X56809190Y-124558448D01*
X56805734Y-124557839D01*
X56805727Y-124557837D01*
X56592598Y-124520257D01*
X56453283Y-124495692D01*
X56449774Y-124495471D01*
X56449772Y-124495471D01*
X56096117Y-124473221D01*
X56096111Y-124473221D01*
X56092599Y-124473000D01*
X55989824Y-124478026D01*
X55735140Y-124490482D01*
X55735131Y-124490483D01*
X55731633Y-124490654D01*
X55728165Y-124491216D01*
X55728162Y-124491216D01*
X55378360Y-124547872D01*
X55378357Y-124547873D01*
X55374885Y-124548435D01*
X55371498Y-124549381D01*
X55371492Y-124549382D01*
X55149047Y-124611490D01*
X55026800Y-124645622D01*
X54944184Y-124679001D01*
X54694983Y-124779684D01*
X54694979Y-124779686D01*
X54691719Y-124781003D01*
X54688632Y-124782672D01*
X54688628Y-124782674D01*
X54644970Y-124806280D01*
X54373816Y-124952893D01*
X54077055Y-125159147D01*
X54074413Y-125161460D01*
X54074409Y-125161463D01*
X53884407Y-125327797D01*
X53805134Y-125397195D01*
X53561443Y-125664071D01*
X53349019Y-125956448D01*
X53347277Y-125959514D01*
X53347276Y-125959516D01*
X53289062Y-126061992D01*
X53170510Y-126270681D01*
X53145279Y-126329549D01*
X53065172Y-126516455D01*
X53028141Y-126602854D01*
X53009384Y-126664980D01*
X52926620Y-126939106D01*
X52923685Y-126948826D01*
X52906929Y-127040124D01*
X52867674Y-127254008D01*
X52858446Y-127304286D01*
X52833237Y-127664803D01*
X38003517Y-127664803D01*
X37994761Y-127508195D01*
X37986905Y-127367681D01*
X37985932Y-127361924D01*
X37927224Y-127014826D01*
X37927223Y-127014822D01*
X37926635Y-127011345D01*
X37827021Y-126663948D01*
X37756793Y-126493562D01*
X37690641Y-126333064D01*
X37690637Y-126333056D01*
X37689303Y-126329819D01*
X37515199Y-126013124D01*
X37475219Y-125956448D01*
X37308909Y-125720690D01*
X37308908Y-125720689D01*
X37306878Y-125717811D01*
X37066937Y-125447558D01*
X36992757Y-125380766D01*
X36800984Y-125208093D01*
X36800981Y-125208091D01*
X36798366Y-125205736D01*
X36775797Y-125189578D01*
X36507381Y-124997411D01*
X36507374Y-124997407D01*
X36504514Y-124995359D01*
X36189042Y-124819048D01*
X35855883Y-124679001D01*
X35824975Y-124669904D01*
X35611256Y-124607003D01*
X35509190Y-124576963D01*
X35505734Y-124576354D01*
X35505727Y-124576352D01*
X35299018Y-124539904D01*
X35153283Y-124514207D01*
X35149774Y-124513986D01*
X35149772Y-124513986D01*
X34796117Y-124491736D01*
X34796111Y-124491736D01*
X34792599Y-124491515D01*
X34694721Y-124496302D01*
X34435140Y-124508997D01*
X34435131Y-124508998D01*
X34431633Y-124509169D01*
X34428165Y-124509731D01*
X34428162Y-124509731D01*
X34078360Y-124566387D01*
X34078357Y-124566388D01*
X34074885Y-124566950D01*
X34071498Y-124567896D01*
X34071492Y-124567897D01*
X33804825Y-124642352D01*
X33726800Y-124664137D01*
X33579876Y-124723498D01*
X33394983Y-124798199D01*
X33394979Y-124798201D01*
X33391719Y-124799518D01*
X33388632Y-124801187D01*
X33388628Y-124801189D01*
X33277619Y-124861212D01*
X33073816Y-124971408D01*
X32777055Y-125177662D01*
X32774413Y-125179975D01*
X32774409Y-125179978D01*
X32587998Y-125343168D01*
X32505134Y-125415710D01*
X32261443Y-125682586D01*
X32049019Y-125974963D01*
X32047277Y-125978029D01*
X32047276Y-125978031D01*
X32025589Y-126016208D01*
X31870510Y-126289196D01*
X31836157Y-126369347D01*
X31734633Y-126606223D01*
X31728141Y-126621369D01*
X31715374Y-126663655D01*
X31624874Y-126963404D01*
X31623685Y-126967341D01*
X31611576Y-127033320D01*
X31560861Y-127309644D01*
X31558446Y-127322801D01*
X31533237Y-127683318D01*
X15270500Y-127683318D01*
X15270500Y-110210000D01*
X50319459Y-110210000D01*
X50319500Y-110210099D01*
X50319617Y-110210383D01*
X50320000Y-110210541D01*
X50320099Y-110210500D01*
X60219901Y-110210500D01*
X60220000Y-110210541D01*
X60220099Y-110210500D01*
X60220383Y-110210383D01*
X60220541Y-110210000D01*
X60220500Y-110209901D01*
X60220500Y-105310099D01*
X60220541Y-105310000D01*
X60220383Y-105309617D01*
X60220099Y-105309500D01*
X60220000Y-105309459D01*
X60219901Y-105309500D01*
X50320099Y-105309500D01*
X50320000Y-105309459D01*
X50319901Y-105309500D01*
X50319617Y-105309617D01*
X50319459Y-105310000D01*
X50319500Y-105310099D01*
X50319500Y-110209901D01*
X50319459Y-110210000D01*
X15270500Y-110210000D01*
X15270500Y-103188483D01*
X25150940Y-103188483D01*
X25150943Y-103188567D01*
X25151050Y-103191632D01*
X25151050Y-103191636D01*
X25159129Y-103422973D01*
X25164986Y-103590708D01*
X25165392Y-103593752D01*
X25165393Y-103593762D01*
X25192512Y-103797007D01*
X25218215Y-103989642D01*
X25218915Y-103992626D01*
X25218916Y-103992632D01*
X25309416Y-104378481D01*
X25310119Y-104381478D01*
X25439821Y-104762475D01*
X25606083Y-105128998D01*
X25807318Y-105477546D01*
X25809107Y-105480044D01*
X25809109Y-105480048D01*
X25907854Y-105617973D01*
X26041605Y-105804795D01*
X26306707Y-106107619D01*
X26308955Y-106109730D01*
X26597840Y-106381011D01*
X26597847Y-106381017D01*
X26600095Y-106383128D01*
X26602545Y-106385015D01*
X26602550Y-106385019D01*
X26912609Y-106623797D01*
X26918967Y-106628693D01*
X26921566Y-106630317D01*
X26921576Y-106630324D01*
X27068944Y-106722409D01*
X27260281Y-106841969D01*
X27620777Y-107020921D01*
X27796429Y-107087645D01*
X27994130Y-107162745D01*
X27994135Y-107162747D01*
X27997016Y-107163841D01*
X28385406Y-107269364D01*
X28388449Y-107269879D01*
X28388455Y-107269880D01*
X28779198Y-107335970D01*
X28779205Y-107335971D01*
X28782239Y-107336484D01*
X28785310Y-107336699D01*
X28785312Y-107336699D01*
X29180662Y-107364345D01*
X29180670Y-107364345D01*
X29183728Y-107364559D01*
X29443632Y-107357299D01*
X29582967Y-107353407D01*
X29582970Y-107353407D01*
X29586041Y-107353321D01*
X29589094Y-107352935D01*
X29589098Y-107352935D01*
X29733665Y-107334672D01*
X29985337Y-107302878D01*
X29988341Y-107302196D01*
X29988344Y-107302195D01*
X30374809Y-107214393D01*
X30374815Y-107214391D01*
X30377805Y-107213712D01*
X30531017Y-107162745D01*
X30756775Y-107087645D01*
X30756781Y-107087643D01*
X30759699Y-107086672D01*
X30762509Y-107085421D01*
X31124573Y-106924220D01*
X31124579Y-106924217D01*
X31127373Y-106922973D01*
X31136740Y-106917652D01*
X31474650Y-106725693D01*
X31474656Y-106725689D01*
X31477318Y-106724177D01*
X31806194Y-106492180D01*
X32110862Y-106229198D01*
X32112983Y-106226971D01*
X32112989Y-106226965D01*
X32386295Y-105939964D01*
X32388412Y-105937741D01*
X32494238Y-105802291D01*
X32634287Y-105623036D01*
X32634289Y-105623033D01*
X32636197Y-105620591D01*
X32637853Y-105617981D01*
X32637859Y-105617973D01*
X32850197Y-105283382D01*
X32850201Y-105283375D01*
X32851851Y-105280775D01*
X32927168Y-105131674D01*
X33031931Y-104924277D01*
X33033316Y-104921536D01*
X33034423Y-104918682D01*
X33034427Y-104918673D01*
X33177744Y-104549180D01*
X33177747Y-104549170D01*
X33178859Y-104546304D01*
X33287091Y-104158661D01*
X33356979Y-103762305D01*
X33387856Y-103361022D01*
X33389462Y-103246000D01*
X33388149Y-103219143D01*
X33376818Y-102987482D01*
X33369801Y-102844011D01*
X33311007Y-102445859D01*
X33308379Y-102435316D01*
X33230518Y-102123036D01*
X33213641Y-102055344D01*
X33185939Y-101977546D01*
X33147887Y-101870686D01*
X33078632Y-101676195D01*
X32907269Y-101312030D01*
X32905702Y-101309401D01*
X32905697Y-101309392D01*
X32747089Y-101043326D01*
X32701187Y-100966325D01*
X32699373Y-100963865D01*
X32699368Y-100963857D01*
X32596492Y-100824320D01*
X32462354Y-100642379D01*
X32193050Y-100343286D01*
X31895844Y-100071900D01*
X31573574Y-99830811D01*
X31524007Y-99800792D01*
X31231944Y-99623912D01*
X31231935Y-99623907D01*
X31229316Y-99622321D01*
X30866356Y-99448420D01*
X30571113Y-99340960D01*
X30491054Y-99311821D01*
X30491053Y-99311821D01*
X30488158Y-99310767D01*
X30278349Y-99256897D01*
X30101317Y-99211443D01*
X30101314Y-99211442D01*
X30098333Y-99210677D01*
X29700601Y-99149105D01*
X29298759Y-99126638D01*
X29295681Y-99126767D01*
X29295677Y-99126767D01*
X29036149Y-99137645D01*
X28896643Y-99143492D01*
X28893599Y-99143920D01*
X28893597Y-99143920D01*
X28853367Y-99149574D01*
X28498090Y-99199505D01*
X28357705Y-99233468D01*
X28109896Y-99293419D01*
X28109888Y-99293421D01*
X28106905Y-99294143D01*
X28104008Y-99295152D01*
X28104004Y-99295153D01*
X27962031Y-99344593D01*
X27726822Y-99426501D01*
X27544146Y-99510909D01*
X27364267Y-99594025D01*
X27364257Y-99594030D01*
X27361470Y-99595318D01*
X27014334Y-99798981D01*
X26928942Y-99861022D01*
X26691210Y-100033744D01*
X26691204Y-100033749D01*
X26688729Y-100035547D01*
X26686443Y-100037576D01*
X26686440Y-100037579D01*
X26645444Y-100073977D01*
X26387763Y-100302757D01*
X26385684Y-100305002D01*
X26385677Y-100305009D01*
X26211937Y-100492632D01*
X26114309Y-100598061D01*
X26080670Y-100642379D01*
X25899184Y-100881478D01*
X25870976Y-100918640D01*
X25660088Y-101261434D01*
X25483657Y-101623171D01*
X25482586Y-101626052D01*
X25482583Y-101626058D01*
X25424075Y-101783382D01*
X25343367Y-102000399D01*
X25240558Y-102389516D01*
X25231245Y-102447017D01*
X25185542Y-102729198D01*
X25176211Y-102786808D01*
X25176017Y-102789888D01*
X25176017Y-102789890D01*
X25172419Y-102847084D01*
X25150940Y-103188483D01*
X15270500Y-103188483D01*
X15270500Y-95710000D01*
X50319459Y-95710000D01*
X50319500Y-95710099D01*
X50319617Y-95710383D01*
X50320000Y-95710541D01*
X50320099Y-95710500D01*
X60219901Y-95710500D01*
X60220000Y-95710541D01*
X60220099Y-95710500D01*
X60220383Y-95710383D01*
X60220541Y-95710000D01*
X60220500Y-95709901D01*
X60220500Y-90810099D01*
X60220541Y-90810000D01*
X60220383Y-90809617D01*
X60220099Y-90809500D01*
X60220000Y-90809459D01*
X60219901Y-90809500D01*
X50320099Y-90809500D01*
X50320000Y-90809459D01*
X50319901Y-90809500D01*
X50319617Y-90809617D01*
X50319459Y-90810000D01*
X50319500Y-90810099D01*
X50319500Y-95709901D01*
X50319459Y-95710000D01*
X15270500Y-95710000D01*
X15270500Y-91800000D01*
X45200000Y-91800000D01*
X45300000Y-92200000D01*
X45306009Y-92209013D01*
X45306010Y-92209016D01*
X45490877Y-92486315D01*
X45500000Y-92500000D01*
X45800000Y-92700000D01*
X45807968Y-92702656D01*
X45807970Y-92702657D01*
X46068956Y-92789652D01*
X46100000Y-92800000D01*
X46500000Y-92800000D01*
X46515521Y-92789653D01*
X46515523Y-92789652D01*
X46793469Y-92604354D01*
X46807012Y-92596494D01*
X47000000Y-92500000D01*
X47200000Y-92200000D01*
X47300000Y-92000000D01*
X47300000Y-91700000D01*
X47200000Y-91300000D01*
X47193991Y-91290987D01*
X47193990Y-91290984D01*
X47006920Y-91010380D01*
X47000000Y-91000000D01*
X46989620Y-90993080D01*
X46709016Y-90806010D01*
X46709013Y-90806009D01*
X46700000Y-90800000D01*
X46689490Y-90797373D01*
X46689489Y-90797372D01*
X46315048Y-90703762D01*
X46300000Y-90700000D01*
X45900000Y-90800000D01*
X45500000Y-91000000D01*
X45200000Y-91600000D01*
X45200000Y-91800000D01*
X15270500Y-91800000D01*
X15270500Y-81210000D01*
X50319459Y-81210000D01*
X50319500Y-81210099D01*
X50319617Y-81210383D01*
X50320000Y-81210541D01*
X50320099Y-81210500D01*
X60219901Y-81210500D01*
X60220000Y-81210541D01*
X60220099Y-81210500D01*
X60220383Y-81210383D01*
X60220541Y-81210000D01*
X60220500Y-81209901D01*
X60220500Y-77800000D01*
X63200000Y-77800000D01*
X63300000Y-78200000D01*
X63306009Y-78209013D01*
X63306010Y-78209016D01*
X63444228Y-78416342D01*
X63500000Y-78500000D01*
X63800000Y-78700000D01*
X63807968Y-78702656D01*
X63807970Y-78702657D01*
X63990623Y-78763541D01*
X64100000Y-78800000D01*
X64500000Y-78800000D01*
X64515521Y-78789653D01*
X64515523Y-78789652D01*
X64793469Y-78604354D01*
X64807012Y-78596494D01*
X65000000Y-78500000D01*
X65200000Y-78200000D01*
X65300000Y-78000000D01*
X65300000Y-77700000D01*
X65294430Y-77677720D01*
X65229656Y-77418624D01*
X75649031Y-77418624D01*
X75688428Y-77556471D01*
X75764930Y-77677720D01*
X75872388Y-77772623D01*
X76002163Y-77833553D01*
X76011035Y-77834934D01*
X76011796Y-77835167D01*
X76071093Y-77874212D01*
X76099867Y-77939116D01*
X76088984Y-78009273D01*
X76075512Y-78031589D01*
X76045714Y-78071048D01*
X75963065Y-78237029D01*
X75912322Y-78415371D01*
X75911785Y-78421166D01*
X75902542Y-78520921D01*
X75895214Y-78600000D01*
X75898752Y-78600000D01*
X75899489Y-78607662D01*
X75834946Y-122713600D01*
X75834800Y-122813180D01*
X75833005Y-122830715D01*
X75830226Y-122830687D01*
X75844349Y-123250079D01*
X75895208Y-123666616D01*
X75895784Y-123669328D01*
X75895785Y-123669333D01*
X75963721Y-123989108D01*
X75982411Y-124077084D01*
X76105286Y-124478321D01*
X76262885Y-124867232D01*
X76264136Y-124869678D01*
X76264139Y-124869684D01*
X76337125Y-125012361D01*
X76453992Y-125240819D01*
X76677135Y-125596201D01*
X76678802Y-125598401D01*
X76678803Y-125598402D01*
X76927909Y-125927096D01*
X76930593Y-125930638D01*
X76932454Y-125932691D01*
X77210554Y-126239502D01*
X77210563Y-126239511D01*
X77212412Y-126241551D01*
X77291305Y-126314549D01*
X77518394Y-126524671D01*
X77518403Y-126524678D01*
X77520419Y-126526544D01*
X77852239Y-126783419D01*
X78127657Y-126960317D01*
X78197849Y-127005400D01*
X78205314Y-127010195D01*
X78207769Y-127011483D01*
X78207778Y-127011488D01*
X78562585Y-127197604D01*
X78576921Y-127205124D01*
X78964195Y-127366702D01*
X78966824Y-127367537D01*
X78966833Y-127367540D01*
X79361526Y-127492852D01*
X79361535Y-127492854D01*
X79364151Y-127493685D01*
X79490994Y-127521995D01*
X79771005Y-127584491D01*
X79771014Y-127584493D01*
X79773704Y-127585093D01*
X80189697Y-127640222D01*
X80412034Y-127649993D01*
X80590826Y-127657850D01*
X80590827Y-127657850D01*
X80608922Y-127658645D01*
X80608922Y-127655642D01*
X80621522Y-127654126D01*
X87689811Y-127670370D01*
X100789679Y-127700477D01*
X100800000Y-127701358D01*
X100800000Y-127704786D01*
X100816426Y-127703264D01*
X100978834Y-127688215D01*
X100984629Y-127687678D01*
X100990225Y-127686086D01*
X100990229Y-127686085D01*
X101157369Y-127638529D01*
X101157370Y-127638529D01*
X101162971Y-127636935D01*
X101264368Y-127586445D01*
X101323735Y-127556884D01*
X101323737Y-127556883D01*
X101328952Y-127554286D01*
X101333600Y-127550776D01*
X101333602Y-127550775D01*
X101365202Y-127526911D01*
X101371747Y-127521968D01*
X101438161Y-127496878D01*
X101507598Y-127511677D01*
X101558011Y-127561668D01*
X101568828Y-127587893D01*
X101588428Y-127656471D01*
X101664930Y-127777720D01*
X101772388Y-127872623D01*
X101902163Y-127933553D01*
X102011009Y-127950500D01*
X102085940Y-127950500D01*
X102127339Y-127944571D01*
X102183032Y-127936596D01*
X102183035Y-127936595D01*
X102191918Y-127935323D01*
X102322428Y-127875984D01*
X102329229Y-127870124D01*
X102329235Y-127870120D01*
X102342299Y-127858863D01*
X102406961Y-127829549D01*
X102477207Y-127839848D01*
X102507953Y-127859875D01*
X102522388Y-127872623D01*
X102652163Y-127933553D01*
X102761009Y-127950500D01*
X102835940Y-127950500D01*
X102877339Y-127944571D01*
X102933032Y-127936596D01*
X102933035Y-127936595D01*
X102941918Y-127935323D01*
X103072428Y-127875984D01*
X103079229Y-127870124D01*
X103079235Y-127870120D01*
X103092299Y-127858863D01*
X103156961Y-127829549D01*
X103227207Y-127839848D01*
X103257953Y-127859875D01*
X103272388Y-127872623D01*
X103402163Y-127933553D01*
X103511009Y-127950500D01*
X103585940Y-127950500D01*
X103627339Y-127944571D01*
X103683032Y-127936596D01*
X103683035Y-127936595D01*
X103691918Y-127935323D01*
X103822428Y-127875984D01*
X103864366Y-127839848D01*
X103924237Y-127788260D01*
X103924240Y-127788257D01*
X103931037Y-127782400D01*
X104009015Y-127662095D01*
X104031639Y-127586445D01*
X104070320Y-127526911D01*
X104135047Y-127497741D01*
X104205270Y-127508195D01*
X104228287Y-127521995D01*
X104265097Y-127549792D01*
X104271048Y-127554286D01*
X104276263Y-127556883D01*
X104276265Y-127556884D01*
X104335632Y-127586445D01*
X104437029Y-127636935D01*
X104442630Y-127638529D01*
X104442631Y-127638529D01*
X104609771Y-127686085D01*
X104609775Y-127686086D01*
X104615371Y-127687678D01*
X104800000Y-127704786D01*
X104800000Y-127701230D01*
X104807536Y-127700500D01*
X193689521Y-127700500D01*
X193700000Y-127701382D01*
X193700000Y-127704786D01*
X193716426Y-127703264D01*
X193716427Y-127703264D01*
X193878834Y-127688215D01*
X193884629Y-127687678D01*
X193890225Y-127686086D01*
X193890229Y-127686085D01*
X194057369Y-127638529D01*
X194057370Y-127638529D01*
X194062971Y-127636935D01*
X194164368Y-127586445D01*
X194223735Y-127556884D01*
X194223737Y-127556883D01*
X194228952Y-127554286D01*
X194233600Y-127550776D01*
X194233602Y-127550775D01*
X194265202Y-127526911D01*
X194271747Y-127521968D01*
X194338161Y-127496878D01*
X194407598Y-127511677D01*
X194458011Y-127561668D01*
X194468828Y-127587893D01*
X194488428Y-127656471D01*
X194564930Y-127777720D01*
X194672388Y-127872623D01*
X194802163Y-127933553D01*
X194911009Y-127950500D01*
X194985940Y-127950500D01*
X195027339Y-127944571D01*
X195083032Y-127936596D01*
X195083035Y-127936595D01*
X195091918Y-127935323D01*
X195222428Y-127875984D01*
X195229229Y-127870124D01*
X195229235Y-127870120D01*
X195242299Y-127858863D01*
X195306961Y-127829549D01*
X195377207Y-127839848D01*
X195407953Y-127859875D01*
X195422388Y-127872623D01*
X195552163Y-127933553D01*
X195661009Y-127950500D01*
X195735940Y-127950500D01*
X195777339Y-127944571D01*
X195833032Y-127936596D01*
X195833035Y-127936595D01*
X195841918Y-127935323D01*
X195972428Y-127875984D01*
X195979229Y-127870124D01*
X195979235Y-127870120D01*
X195992299Y-127858863D01*
X196056961Y-127829549D01*
X196127207Y-127839848D01*
X196157953Y-127859875D01*
X196172388Y-127872623D01*
X196302163Y-127933553D01*
X196411009Y-127950500D01*
X196485940Y-127950500D01*
X196527339Y-127944571D01*
X196583032Y-127936596D01*
X196583035Y-127936595D01*
X196591918Y-127935323D01*
X196722428Y-127875984D01*
X196764366Y-127839848D01*
X196824237Y-127788260D01*
X196824240Y-127788257D01*
X196831037Y-127782400D01*
X196909015Y-127662095D01*
X196931639Y-127586445D01*
X196970320Y-127526911D01*
X197035047Y-127497741D01*
X197105270Y-127508195D01*
X197128287Y-127521995D01*
X197165097Y-127549792D01*
X197171048Y-127554286D01*
X197176263Y-127556883D01*
X197176265Y-127556884D01*
X197235632Y-127586445D01*
X197337029Y-127636935D01*
X197342630Y-127638529D01*
X197342631Y-127638529D01*
X197509771Y-127686085D01*
X197509775Y-127686086D01*
X197515371Y-127687678D01*
X197521166Y-127688215D01*
X197681963Y-127703115D01*
X197681964Y-127703115D01*
X197700000Y-127704786D01*
X197700000Y-127701299D01*
X197708018Y-127700544D01*
X228985341Y-127873131D01*
X229002716Y-127874944D01*
X229002687Y-127877774D01*
X229422079Y-127863651D01*
X229838616Y-127812792D01*
X229841328Y-127812216D01*
X229841333Y-127812215D01*
X230246374Y-127726165D01*
X230246380Y-127726164D01*
X230249084Y-127725589D01*
X230650321Y-127602714D01*
X231039232Y-127445115D01*
X231041678Y-127443864D01*
X231041684Y-127443861D01*
X231278338Y-127322801D01*
X231412819Y-127254008D01*
X231768201Y-127030865D01*
X231774773Y-127025884D01*
X232100439Y-126779074D01*
X232100445Y-126779069D01*
X232102638Y-126777407D01*
X232182849Y-126704702D01*
X232411502Y-126497446D01*
X232411511Y-126497437D01*
X232413551Y-126495588D01*
X232581629Y-126313937D01*
X232696671Y-126189606D01*
X232696678Y-126189597D01*
X232698544Y-126187581D01*
X232927516Y-125891805D01*
X232953730Y-125857943D01*
X232953732Y-125857940D01*
X232955419Y-125855761D01*
X233182195Y-125502686D01*
X233198038Y-125472485D01*
X233375832Y-125133542D01*
X233377124Y-125131079D01*
X233538702Y-124743805D01*
X233545150Y-124723498D01*
X233664852Y-124346474D01*
X233664854Y-124346465D01*
X233665685Y-124343849D01*
X233725224Y-124077084D01*
X233756491Y-123936995D01*
X233756493Y-123936986D01*
X233757093Y-123934296D01*
X233812222Y-123518303D01*
X233830645Y-123099078D01*
X233827597Y-123099078D01*
X233826090Y-123086696D01*
X233824431Y-120210000D01*
X304319459Y-120210000D01*
X304319500Y-120210099D01*
X304319617Y-120210383D01*
X304320000Y-120210541D01*
X304320099Y-120210500D01*
X314219901Y-120210500D01*
X314220000Y-120210541D01*
X314220099Y-120210500D01*
X314220383Y-120210383D01*
X314220541Y-120210000D01*
X314220500Y-120209901D01*
X314220500Y-116300000D01*
X317200000Y-116300000D01*
X317300000Y-116700000D01*
X317306009Y-116709013D01*
X317306010Y-116709016D01*
X317490877Y-116986315D01*
X317500000Y-117000000D01*
X317800000Y-117200000D01*
X317807968Y-117202656D01*
X317807970Y-117202657D01*
X318068956Y-117289652D01*
X318100000Y-117300000D01*
X318500000Y-117300000D01*
X318515521Y-117289653D01*
X318515523Y-117289652D01*
X318793469Y-117104354D01*
X318807012Y-117096494D01*
X319000000Y-117000000D01*
X319200000Y-116700000D01*
X319300000Y-116500000D01*
X319300000Y-116200000D01*
X319200000Y-115800000D01*
X319193991Y-115790987D01*
X319193990Y-115790984D01*
X319006920Y-115510380D01*
X319000000Y-115500000D01*
X318989620Y-115493080D01*
X318709016Y-115306010D01*
X318709013Y-115306009D01*
X318700000Y-115300000D01*
X318689490Y-115297373D01*
X318689489Y-115297372D01*
X318315048Y-115203762D01*
X318300000Y-115200000D01*
X317900000Y-115300000D01*
X317500000Y-115500000D01*
X317200000Y-116100000D01*
X317200000Y-116300000D01*
X314220500Y-116300000D01*
X314220500Y-115310099D01*
X314220541Y-115310000D01*
X314220383Y-115309617D01*
X314220099Y-115309500D01*
X314220000Y-115309459D01*
X314219901Y-115309500D01*
X304320099Y-115309500D01*
X304320000Y-115309459D01*
X304319901Y-115309500D01*
X304319617Y-115309617D01*
X304319459Y-115310000D01*
X304319500Y-115310099D01*
X304319500Y-120209901D01*
X304319459Y-120210000D01*
X233824431Y-120210000D01*
X233822177Y-116300000D01*
X299200000Y-116300000D01*
X299300000Y-116700000D01*
X299306009Y-116709013D01*
X299306010Y-116709016D01*
X299490877Y-116986315D01*
X299500000Y-117000000D01*
X299800000Y-117200000D01*
X299807968Y-117202656D01*
X299807970Y-117202657D01*
X300068956Y-117289652D01*
X300100000Y-117300000D01*
X300500000Y-117300000D01*
X300515521Y-117289653D01*
X300515523Y-117289652D01*
X300793469Y-117104354D01*
X300807012Y-117096494D01*
X301000000Y-117000000D01*
X301200000Y-116700000D01*
X301300000Y-116500000D01*
X301300000Y-116200000D01*
X301200000Y-115800000D01*
X301193991Y-115790987D01*
X301193990Y-115790984D01*
X301006920Y-115510380D01*
X301000000Y-115500000D01*
X300989620Y-115493080D01*
X300709016Y-115306010D01*
X300709013Y-115306009D01*
X300700000Y-115300000D01*
X300689490Y-115297373D01*
X300689489Y-115297372D01*
X300315048Y-115203762D01*
X300300000Y-115200000D01*
X299900000Y-115300000D01*
X299500000Y-115500000D01*
X299200000Y-116100000D01*
X299200000Y-116300000D01*
X233822177Y-116300000D01*
X233812600Y-99688483D01*
X305150940Y-99688483D01*
X305150943Y-99688567D01*
X305151050Y-99691632D01*
X305151050Y-99691636D01*
X305164490Y-100076494D01*
X305164986Y-100090708D01*
X305218215Y-100489642D01*
X305218915Y-100492626D01*
X305218916Y-100492632D01*
X305309416Y-100878481D01*
X305310119Y-100881478D01*
X305439821Y-101262475D01*
X305606083Y-101628998D01*
X305807318Y-101977546D01*
X305809107Y-101980044D01*
X305809109Y-101980048D01*
X305907854Y-102117973D01*
X306041605Y-102304795D01*
X306043632Y-102307110D01*
X306043634Y-102307113D01*
X306154580Y-102433846D01*
X306306707Y-102607619D01*
X306308955Y-102609730D01*
X306597840Y-102881011D01*
X306597847Y-102881017D01*
X306600095Y-102883128D01*
X306602545Y-102885015D01*
X306602550Y-102885019D01*
X306912609Y-103123797D01*
X306918967Y-103128693D01*
X306921566Y-103130317D01*
X306921576Y-103130324D01*
X307068944Y-103222409D01*
X307260281Y-103341969D01*
X307620777Y-103520921D01*
X307796384Y-103587628D01*
X307994130Y-103662745D01*
X307994135Y-103662747D01*
X307997016Y-103663841D01*
X308385406Y-103769364D01*
X308388449Y-103769879D01*
X308388455Y-103769880D01*
X308779198Y-103835970D01*
X308779205Y-103835971D01*
X308782239Y-103836484D01*
X308785310Y-103836699D01*
X308785312Y-103836699D01*
X309180662Y-103864345D01*
X309180670Y-103864345D01*
X309183728Y-103864559D01*
X309443632Y-103857299D01*
X309582967Y-103853407D01*
X309582970Y-103853407D01*
X309586041Y-103853321D01*
X309589094Y-103852935D01*
X309589098Y-103852935D01*
X309733665Y-103834672D01*
X309985337Y-103802878D01*
X309988341Y-103802196D01*
X309988344Y-103802195D01*
X310374809Y-103714393D01*
X310374815Y-103714391D01*
X310377805Y-103713712D01*
X310531017Y-103662745D01*
X310756775Y-103587645D01*
X310756781Y-103587643D01*
X310759699Y-103586672D01*
X310762509Y-103585421D01*
X311124573Y-103424220D01*
X311124579Y-103424217D01*
X311127373Y-103422973D01*
X311136740Y-103417652D01*
X311474650Y-103225693D01*
X311474656Y-103225689D01*
X311477318Y-103224177D01*
X311806194Y-102992180D01*
X312110862Y-102729198D01*
X312112983Y-102726971D01*
X312112989Y-102726965D01*
X312386295Y-102439964D01*
X312388412Y-102437741D01*
X312494238Y-102302291D01*
X312634287Y-102123036D01*
X312634289Y-102123033D01*
X312636197Y-102120591D01*
X312637853Y-102117981D01*
X312637859Y-102117973D01*
X312850197Y-101783382D01*
X312850201Y-101783375D01*
X312851851Y-101780775D01*
X312927168Y-101631674D01*
X313031931Y-101424277D01*
X313033316Y-101421536D01*
X313034423Y-101418682D01*
X313034427Y-101418673D01*
X313177744Y-101049180D01*
X313177747Y-101049170D01*
X313178859Y-101046304D01*
X313287091Y-100658661D01*
X313356979Y-100262305D01*
X313387856Y-99861022D01*
X313389462Y-99746000D01*
X313386498Y-99685387D01*
X313374973Y-99449753D01*
X313369801Y-99344011D01*
X313311007Y-98945859D01*
X313297716Y-98892549D01*
X313252336Y-98710541D01*
X313213641Y-98555344D01*
X313078632Y-98176195D01*
X312907269Y-97812030D01*
X312905702Y-97809401D01*
X312905697Y-97809392D01*
X312752192Y-97551886D01*
X312701187Y-97466325D01*
X312699373Y-97463865D01*
X312699368Y-97463857D01*
X312596492Y-97324320D01*
X312462354Y-97142379D01*
X312193050Y-96843286D01*
X311895844Y-96571900D01*
X311573574Y-96330811D01*
X311524007Y-96300792D01*
X311231944Y-96123912D01*
X311231935Y-96123907D01*
X311229316Y-96122321D01*
X310866356Y-95948420D01*
X310488158Y-95810767D01*
X310278349Y-95756897D01*
X310101317Y-95711443D01*
X310101314Y-95711442D01*
X310098333Y-95710677D01*
X309700601Y-95649105D01*
X309298759Y-95626638D01*
X309295681Y-95626767D01*
X309295677Y-95626767D01*
X309036149Y-95637645D01*
X308896643Y-95643492D01*
X308893599Y-95643920D01*
X308893597Y-95643920D01*
X308853367Y-95649574D01*
X308498090Y-95699505D01*
X308357705Y-95733468D01*
X308109896Y-95793419D01*
X308109888Y-95793421D01*
X308106905Y-95794143D01*
X308104008Y-95795152D01*
X308104004Y-95795153D01*
X308056140Y-95811821D01*
X307726822Y-95926501D01*
X307544146Y-96010909D01*
X307364267Y-96094025D01*
X307364257Y-96094030D01*
X307361470Y-96095318D01*
X307014334Y-96298981D01*
X306850099Y-96418304D01*
X306691210Y-96533744D01*
X306691204Y-96533749D01*
X306688729Y-96535547D01*
X306686443Y-96537576D01*
X306686440Y-96537579D01*
X306645444Y-96573977D01*
X306387763Y-96802757D01*
X306385684Y-96805002D01*
X306385677Y-96805009D01*
X306116395Y-97095808D01*
X306114309Y-97098061D01*
X305870976Y-97418640D01*
X305660088Y-97761434D01*
X305483657Y-98123171D01*
X305482586Y-98126052D01*
X305482583Y-98126058D01*
X305462859Y-98179094D01*
X305343367Y-98500399D01*
X305240558Y-98889516D01*
X305231245Y-98947017D01*
X305187596Y-99216517D01*
X305176211Y-99286808D01*
X305176017Y-99289888D01*
X305176017Y-99289890D01*
X305172419Y-99347084D01*
X305150940Y-99688483D01*
X233812600Y-99688483D01*
X233812036Y-98710000D01*
X253319459Y-98710000D01*
X253319500Y-98710099D01*
X253319617Y-98710383D01*
X253320000Y-98710541D01*
X253320099Y-98710500D01*
X263219901Y-98710500D01*
X263220000Y-98710541D01*
X263220099Y-98710500D01*
X263220383Y-98710383D01*
X263220541Y-98710000D01*
X263220500Y-98709901D01*
X263220500Y-94800000D01*
X266200000Y-94800000D01*
X266300000Y-95200000D01*
X266306009Y-95209013D01*
X266306010Y-95209016D01*
X266490877Y-95486315D01*
X266500000Y-95500000D01*
X266800000Y-95700000D01*
X266807968Y-95702656D01*
X266807970Y-95702657D01*
X267068956Y-95789652D01*
X267100000Y-95800000D01*
X267500000Y-95800000D01*
X267515521Y-95789653D01*
X267515523Y-95789652D01*
X267793469Y-95604354D01*
X267807012Y-95596494D01*
X268000000Y-95500000D01*
X268200000Y-95200000D01*
X268300000Y-95000000D01*
X268300000Y-94700000D01*
X268200000Y-94300000D01*
X268193991Y-94290987D01*
X268193990Y-94290984D01*
X268006920Y-94010380D01*
X268000000Y-94000000D01*
X267989620Y-93993080D01*
X267709016Y-93806010D01*
X267709013Y-93806009D01*
X267700000Y-93800000D01*
X267689490Y-93797373D01*
X267689489Y-93797372D01*
X267315048Y-93703762D01*
X267300000Y-93700000D01*
X266900000Y-93800000D01*
X266500000Y-94000000D01*
X266200000Y-94600000D01*
X266200000Y-94800000D01*
X263220500Y-94800000D01*
X263220500Y-93810099D01*
X263220541Y-93810000D01*
X263220383Y-93809617D01*
X263220099Y-93809500D01*
X263220000Y-93809459D01*
X263219901Y-93809500D01*
X253320099Y-93809500D01*
X253320000Y-93809459D01*
X253319901Y-93809500D01*
X253319617Y-93809617D01*
X253319459Y-93810000D01*
X253319500Y-93810099D01*
X253319500Y-98709901D01*
X253319459Y-98710000D01*
X233812036Y-98710000D01*
X233804541Y-85710000D01*
X253319459Y-85710000D01*
X253319500Y-85710099D01*
X253319617Y-85710383D01*
X253320000Y-85710541D01*
X253320099Y-85710500D01*
X263219901Y-85710500D01*
X263220000Y-85710541D01*
X263220099Y-85710500D01*
X263220383Y-85710383D01*
X263220541Y-85710000D01*
X270319459Y-85710000D01*
X270319500Y-85710099D01*
X270319617Y-85710383D01*
X270320000Y-85710541D01*
X270320099Y-85710500D01*
X280219901Y-85710500D01*
X280220000Y-85710541D01*
X280220099Y-85710500D01*
X280220383Y-85710383D01*
X280220541Y-85710000D01*
X286819459Y-85710000D01*
X286819500Y-85710099D01*
X286819617Y-85710383D01*
X286820000Y-85710541D01*
X286820099Y-85710500D01*
X296719901Y-85710500D01*
X296720000Y-85710541D01*
X296720099Y-85710500D01*
X296720383Y-85710383D01*
X296720541Y-85710000D01*
X296720500Y-85709901D01*
X296720500Y-84300000D01*
X317200000Y-84300000D01*
X317300000Y-84700000D01*
X317306009Y-84709013D01*
X317306010Y-84709016D01*
X317490877Y-84986315D01*
X317500000Y-85000000D01*
X317800000Y-85200000D01*
X317807968Y-85202656D01*
X317807970Y-85202657D01*
X318068956Y-85289652D01*
X318100000Y-85300000D01*
X318500000Y-85300000D01*
X318515521Y-85289653D01*
X318515523Y-85289652D01*
X318793469Y-85104354D01*
X318807012Y-85096494D01*
X319000000Y-85000000D01*
X319200000Y-84700000D01*
X319300000Y-84500000D01*
X319300000Y-84200000D01*
X319200000Y-83800000D01*
X319193991Y-83790987D01*
X319193990Y-83790984D01*
X319006920Y-83510380D01*
X319000000Y-83500000D01*
X318989620Y-83493080D01*
X318709016Y-83306010D01*
X318709013Y-83306009D01*
X318700000Y-83300000D01*
X318689490Y-83297373D01*
X318689489Y-83297372D01*
X318315048Y-83203762D01*
X318300000Y-83200000D01*
X317900000Y-83300000D01*
X317500000Y-83500000D01*
X317200000Y-84100000D01*
X317200000Y-84300000D01*
X296720500Y-84300000D01*
X296720500Y-80810099D01*
X296720541Y-80810000D01*
X296720383Y-80809617D01*
X296720099Y-80809500D01*
X296720000Y-80809459D01*
X296719901Y-80809500D01*
X286820099Y-80809500D01*
X286820000Y-80809459D01*
X286819901Y-80809500D01*
X286819617Y-80809617D01*
X286819459Y-80810000D01*
X286819500Y-80810099D01*
X286819500Y-85709901D01*
X286819459Y-85710000D01*
X280220541Y-85710000D01*
X280220500Y-85709901D01*
X280220500Y-80810099D01*
X280220541Y-80810000D01*
X280220383Y-80809617D01*
X280220099Y-80809500D01*
X280220000Y-80809459D01*
X280219901Y-80809500D01*
X270320099Y-80809500D01*
X270320000Y-80809459D01*
X270319901Y-80809500D01*
X270319617Y-80809617D01*
X270319459Y-80810000D01*
X270319500Y-80810099D01*
X270319500Y-85709901D01*
X270319459Y-85710000D01*
X263220541Y-85710000D01*
X263220500Y-85709901D01*
X263220500Y-80810099D01*
X263220541Y-80810000D01*
X263220383Y-80809617D01*
X263220099Y-80809500D01*
X263220000Y-80809459D01*
X263219901Y-80809500D01*
X253320099Y-80809500D01*
X253320000Y-80809459D01*
X253319901Y-80809500D01*
X253319617Y-80809617D01*
X253319459Y-80810000D01*
X253319500Y-80810099D01*
X253319500Y-85709901D01*
X253319459Y-85710000D01*
X233804541Y-85710000D01*
X233800506Y-78710516D01*
X233801388Y-78700000D01*
X233804786Y-78700000D01*
X233803115Y-78681961D01*
X233788215Y-78521166D01*
X233787678Y-78515371D01*
X233785398Y-78507355D01*
X233738529Y-78342631D01*
X233738529Y-78342630D01*
X233736935Y-78337029D01*
X233670326Y-78203261D01*
X233656884Y-78176265D01*
X233656883Y-78176263D01*
X233654286Y-78171048D01*
X233624445Y-78131532D01*
X233599356Y-78065117D01*
X233614156Y-77995680D01*
X233664147Y-77945268D01*
X233686023Y-77936167D01*
X233691918Y-77935323D01*
X233822428Y-77875984D01*
X233843766Y-77857598D01*
X233924237Y-77788260D01*
X233924240Y-77788257D01*
X233931037Y-77782400D01*
X234009015Y-77662095D01*
X234050093Y-77524739D01*
X234050969Y-77381376D01*
X234011572Y-77243529D01*
X233947341Y-77141728D01*
X233927908Y-77073447D01*
X233948172Y-77005964D01*
X233956523Y-76993080D01*
X234009015Y-76912095D01*
X234050093Y-76774739D01*
X234050969Y-76631376D01*
X234011572Y-76493529D01*
X233947341Y-76391728D01*
X233927908Y-76323447D01*
X233948172Y-76255964D01*
X233968259Y-76224973D01*
X234009015Y-76162095D01*
X234050093Y-76024739D01*
X234050969Y-75881376D01*
X234011572Y-75743529D01*
X233935070Y-75622280D01*
X233827612Y-75527377D01*
X233697837Y-75466447D01*
X233688965Y-75465066D01*
X233688204Y-75464833D01*
X233628907Y-75425788D01*
X233600133Y-75360884D01*
X233611016Y-75290727D01*
X233624488Y-75268411D01*
X233654286Y-75228952D01*
X233736935Y-75062971D01*
X233771934Y-74939964D01*
X233786085Y-74890229D01*
X233786086Y-74890225D01*
X233787678Y-74884629D01*
X233804786Y-74700000D01*
X233801260Y-74700000D01*
X233800519Y-74692250D01*
X233800528Y-74688483D01*
X305150940Y-74688483D01*
X305150943Y-74688567D01*
X305151050Y-74691632D01*
X305151050Y-74691636D01*
X305164200Y-75068188D01*
X305164986Y-75090708D01*
X305165392Y-75093752D01*
X305165393Y-75093762D01*
X305183464Y-75229198D01*
X305218215Y-75489642D01*
X305218915Y-75492626D01*
X305218916Y-75492632D01*
X305288745Y-75790351D01*
X305310119Y-75881478D01*
X305439821Y-76262475D01*
X305606083Y-76628998D01*
X305807318Y-76977546D01*
X305809107Y-76980044D01*
X305809109Y-76980048D01*
X306026888Y-77284238D01*
X306041605Y-77304795D01*
X306043632Y-77307110D01*
X306043634Y-77307113D01*
X306302783Y-77603137D01*
X306306707Y-77607619D01*
X306308955Y-77609730D01*
X306597840Y-77881011D01*
X306597847Y-77881017D01*
X306600095Y-77883128D01*
X306602545Y-77885015D01*
X306602550Y-77885019D01*
X306912609Y-78123797D01*
X306918967Y-78128693D01*
X306921566Y-78130317D01*
X306921576Y-78130324D01*
X307068944Y-78222409D01*
X307260281Y-78341969D01*
X307620777Y-78520921D01*
X307796429Y-78587645D01*
X307994130Y-78662745D01*
X307994135Y-78662747D01*
X307997016Y-78663841D01*
X308385406Y-78769364D01*
X308388449Y-78769879D01*
X308388455Y-78769880D01*
X308779198Y-78835970D01*
X308779205Y-78835971D01*
X308782239Y-78836484D01*
X308785310Y-78836699D01*
X308785312Y-78836699D01*
X309180662Y-78864345D01*
X309180670Y-78864345D01*
X309183728Y-78864559D01*
X309443632Y-78857299D01*
X309582967Y-78853407D01*
X309582970Y-78853407D01*
X309586041Y-78853321D01*
X309589094Y-78852935D01*
X309589098Y-78852935D01*
X309733665Y-78834672D01*
X309985337Y-78802878D01*
X309988341Y-78802196D01*
X309988344Y-78802195D01*
X310374809Y-78714393D01*
X310374815Y-78714391D01*
X310377805Y-78713712D01*
X310380724Y-78712741D01*
X310756775Y-78587645D01*
X310756781Y-78587643D01*
X310759699Y-78586672D01*
X310766664Y-78583571D01*
X311124573Y-78424220D01*
X311124579Y-78424217D01*
X311127373Y-78422973D01*
X311150613Y-78409771D01*
X311474650Y-78225693D01*
X311474656Y-78225689D01*
X311477318Y-78224177D01*
X311700979Y-78066401D01*
X311803671Y-77993960D01*
X311803674Y-77993958D01*
X311806194Y-77992180D01*
X312110862Y-77729198D01*
X312112983Y-77726971D01*
X312112989Y-77726965D01*
X312381822Y-77444661D01*
X312388412Y-77437741D01*
X312398571Y-77424739D01*
X312634287Y-77123036D01*
X312634289Y-77123033D01*
X312636197Y-77120591D01*
X312637853Y-77117981D01*
X312637859Y-77117973D01*
X312850197Y-76783382D01*
X312850201Y-76783375D01*
X312851851Y-76780775D01*
X312892654Y-76700000D01*
X312977832Y-76531376D01*
X313033316Y-76421536D01*
X313034423Y-76418682D01*
X313034427Y-76418673D01*
X313177744Y-76049180D01*
X313177747Y-76049170D01*
X313178859Y-76046304D01*
X313287091Y-75658661D01*
X313356979Y-75262305D01*
X313379610Y-74968188D01*
X313387706Y-74862973D01*
X313387706Y-74862969D01*
X313387856Y-74861022D01*
X313389462Y-74746000D01*
X313388095Y-74718039D01*
X313369951Y-74347084D01*
X313369801Y-74344011D01*
X313311007Y-73945859D01*
X313297716Y-73892549D01*
X313214389Y-73558346D01*
X313213641Y-73555344D01*
X313078632Y-73176195D01*
X312907269Y-72812030D01*
X312905702Y-72809401D01*
X312905697Y-72809392D01*
X312752192Y-72551886D01*
X312701187Y-72466325D01*
X312699373Y-72463865D01*
X312699368Y-72463857D01*
X312540205Y-72247974D01*
X312462354Y-72142379D01*
X312193050Y-71843286D01*
X311895844Y-71571900D01*
X311573574Y-71330811D01*
X311524007Y-71300792D01*
X311231944Y-71123912D01*
X311231935Y-71123907D01*
X311229316Y-71122321D01*
X310866356Y-70948420D01*
X310488158Y-70810767D01*
X310278349Y-70756897D01*
X310101317Y-70711443D01*
X310101314Y-70711442D01*
X310098333Y-70710677D01*
X309700601Y-70649105D01*
X309298759Y-70626638D01*
X309295681Y-70626767D01*
X309295677Y-70626767D01*
X309036149Y-70637645D01*
X308896643Y-70643492D01*
X308893599Y-70643920D01*
X308893597Y-70643920D01*
X308853367Y-70649574D01*
X308498090Y-70699505D01*
X308357705Y-70733468D01*
X308109896Y-70793419D01*
X308109888Y-70793421D01*
X308106905Y-70794143D01*
X308104008Y-70795152D01*
X308104004Y-70795153D01*
X308056140Y-70811821D01*
X307726822Y-70926501D01*
X307573130Y-70997517D01*
X307364267Y-71094025D01*
X307364257Y-71094030D01*
X307361470Y-71095318D01*
X307014334Y-71298981D01*
X306893807Y-71386549D01*
X306691210Y-71533744D01*
X306691204Y-71533749D01*
X306688729Y-71535547D01*
X306686443Y-71537576D01*
X306686440Y-71537579D01*
X306645444Y-71573977D01*
X306387763Y-71802757D01*
X306385684Y-71805002D01*
X306385677Y-71805009D01*
X306116395Y-72095808D01*
X306114309Y-72098061D01*
X306080670Y-72142379D01*
X305913230Y-72362973D01*
X305870976Y-72418640D01*
X305767014Y-72587628D01*
X305691398Y-72710541D01*
X305660088Y-72761434D01*
X305483657Y-73123171D01*
X305482586Y-73126052D01*
X305482583Y-73126058D01*
X305462859Y-73179094D01*
X305343367Y-73500399D01*
X305240558Y-73889516D01*
X305231245Y-73947017D01*
X305201771Y-74128998D01*
X305176211Y-74286808D01*
X305176017Y-74289888D01*
X305176017Y-74289890D01*
X305172419Y-74347084D01*
X305150940Y-74688483D01*
X233800528Y-74688483D01*
X233805416Y-72710000D01*
X253319459Y-72710000D01*
X253319500Y-72710099D01*
X253319617Y-72710383D01*
X253320000Y-72710541D01*
X253320099Y-72710500D01*
X263219901Y-72710500D01*
X263220000Y-72710541D01*
X263220099Y-72710500D01*
X263220383Y-72710383D01*
X263220541Y-72710000D01*
X270319459Y-72710000D01*
X270319500Y-72710099D01*
X270319617Y-72710383D01*
X270320000Y-72710541D01*
X270320099Y-72710500D01*
X280219901Y-72710500D01*
X280220000Y-72710541D01*
X280220099Y-72710500D01*
X280220383Y-72710383D01*
X280220541Y-72710000D01*
X286819459Y-72710000D01*
X286819500Y-72710099D01*
X286819617Y-72710383D01*
X286820000Y-72710541D01*
X286820099Y-72710500D01*
X296719901Y-72710500D01*
X296720000Y-72710541D01*
X296720099Y-72710500D01*
X296720383Y-72710383D01*
X296720541Y-72710000D01*
X296720500Y-72709901D01*
X296720500Y-67810099D01*
X296720541Y-67810000D01*
X296720383Y-67809617D01*
X296720099Y-67809500D01*
X296720000Y-67809459D01*
X296719901Y-67809500D01*
X286820099Y-67809500D01*
X286820000Y-67809459D01*
X286819901Y-67809500D01*
X286819617Y-67809617D01*
X286819459Y-67810000D01*
X286819500Y-67810099D01*
X286819500Y-72709901D01*
X286819459Y-72710000D01*
X280220541Y-72710000D01*
X280220500Y-72709901D01*
X280220500Y-67810099D01*
X280220541Y-67810000D01*
X280220383Y-67809617D01*
X280220099Y-67809500D01*
X280220000Y-67809459D01*
X280219901Y-67809500D01*
X270320099Y-67809500D01*
X270320000Y-67809459D01*
X270319901Y-67809500D01*
X270319617Y-67809617D01*
X270319459Y-67810000D01*
X270319500Y-67810099D01*
X270319500Y-72709901D01*
X270319459Y-72710000D01*
X263220541Y-72710000D01*
X263220500Y-72709901D01*
X263220500Y-67810099D01*
X263220541Y-67810000D01*
X263220383Y-67809617D01*
X263220099Y-67809500D01*
X263220000Y-67809459D01*
X263219901Y-67809500D01*
X253320099Y-67809500D01*
X253320000Y-67809459D01*
X253319901Y-67809500D01*
X253319617Y-67809617D01*
X253319459Y-67810000D01*
X253319500Y-67810099D01*
X253319500Y-72709901D01*
X253319459Y-72710000D01*
X233805416Y-72710000D01*
X233837535Y-59710000D01*
X253319459Y-59710000D01*
X253319500Y-59710099D01*
X253319617Y-59710383D01*
X253320000Y-59710541D01*
X253320099Y-59710500D01*
X263219901Y-59710500D01*
X263220000Y-59710541D01*
X263220099Y-59710500D01*
X263220383Y-59710383D01*
X263220541Y-59710000D01*
X270319459Y-59710000D01*
X270319500Y-59710099D01*
X270319617Y-59710383D01*
X270320000Y-59710541D01*
X270320099Y-59710500D01*
X280219901Y-59710500D01*
X280220000Y-59710541D01*
X280220099Y-59710500D01*
X280220383Y-59710383D01*
X280220541Y-59710000D01*
X286819459Y-59710000D01*
X286819500Y-59710099D01*
X286819617Y-59710383D01*
X286820000Y-59710541D01*
X286820099Y-59710500D01*
X296719901Y-59710500D01*
X296720000Y-59710541D01*
X296720099Y-59710500D01*
X296720383Y-59710383D01*
X296720541Y-59710000D01*
X296720500Y-59709901D01*
X296720500Y-54810099D01*
X296720541Y-54810000D01*
X296720383Y-54809617D01*
X296720099Y-54809500D01*
X296720000Y-54809459D01*
X296719901Y-54809500D01*
X286820099Y-54809500D01*
X286820000Y-54809459D01*
X286819901Y-54809500D01*
X286819617Y-54809617D01*
X286819459Y-54810000D01*
X286819500Y-54810099D01*
X286819500Y-59709901D01*
X286819459Y-59710000D01*
X280220541Y-59710000D01*
X280220500Y-59709901D01*
X280220500Y-54810099D01*
X280220541Y-54810000D01*
X280220383Y-54809617D01*
X280220099Y-54809500D01*
X280220000Y-54809459D01*
X280219901Y-54809500D01*
X270320099Y-54809500D01*
X270320000Y-54809459D01*
X270319901Y-54809500D01*
X270319617Y-54809617D01*
X270319459Y-54810000D01*
X270319500Y-54810099D01*
X270319500Y-59709901D01*
X270319459Y-59710000D01*
X263220541Y-59710000D01*
X263220500Y-59709901D01*
X263220500Y-54810099D01*
X263220541Y-54810000D01*
X263220383Y-54809617D01*
X263220099Y-54809500D01*
X263220000Y-54809459D01*
X263219901Y-54809500D01*
X253320099Y-54809500D01*
X253320000Y-54809459D01*
X253319901Y-54809500D01*
X253319617Y-54809617D01*
X253319459Y-54810000D01*
X253319500Y-54810099D01*
X253319500Y-59709901D01*
X253319459Y-59710000D01*
X233837535Y-59710000D01*
X233869654Y-46710000D01*
X253319459Y-46710000D01*
X253319500Y-46710099D01*
X253319617Y-46710383D01*
X253320000Y-46710541D01*
X253320099Y-46710500D01*
X263219901Y-46710500D01*
X263220000Y-46710541D01*
X263220099Y-46710500D01*
X263220383Y-46710383D01*
X263220541Y-46710000D01*
X270319459Y-46710000D01*
X270319500Y-46710099D01*
X270319617Y-46710383D01*
X270320000Y-46710541D01*
X270320099Y-46710500D01*
X280219901Y-46710500D01*
X280220000Y-46710541D01*
X280220099Y-46710500D01*
X280220383Y-46710383D01*
X280220541Y-46710000D01*
X286819459Y-46710000D01*
X286819500Y-46710099D01*
X286819617Y-46710383D01*
X286820000Y-46710541D01*
X286820099Y-46710500D01*
X296719901Y-46710500D01*
X296720000Y-46710541D01*
X296720099Y-46710500D01*
X296720383Y-46710383D01*
X296720541Y-46710000D01*
X296720500Y-46709901D01*
X296720500Y-45188483D01*
X305150940Y-45188483D01*
X305150943Y-45188567D01*
X305151050Y-45191632D01*
X305151050Y-45191636D01*
X305161946Y-45503642D01*
X305164986Y-45590708D01*
X305165392Y-45593752D01*
X305165393Y-45593762D01*
X305187474Y-45759249D01*
X305218215Y-45989642D01*
X305218915Y-45992626D01*
X305218916Y-45992632D01*
X305284807Y-46273558D01*
X305310119Y-46381478D01*
X305439821Y-46762475D01*
X305606083Y-47128998D01*
X305807318Y-47477546D01*
X305809107Y-47480044D01*
X305809109Y-47480048D01*
X305998951Y-47745216D01*
X306041605Y-47804795D01*
X306043632Y-47807110D01*
X306043634Y-47807113D01*
X306217904Y-48006180D01*
X306306707Y-48107619D01*
X306308955Y-48109730D01*
X306597840Y-48381011D01*
X306597847Y-48381017D01*
X306600095Y-48383128D01*
X306602545Y-48385015D01*
X306602550Y-48385019D01*
X306912609Y-48623797D01*
X306918967Y-48628693D01*
X306921566Y-48630317D01*
X306921576Y-48630324D01*
X307068240Y-48721969D01*
X307260281Y-48841969D01*
X307620777Y-49020921D01*
X307796429Y-49087645D01*
X307994130Y-49162745D01*
X307994135Y-49162747D01*
X307997016Y-49163841D01*
X308385406Y-49269364D01*
X308388449Y-49269879D01*
X308388455Y-49269880D01*
X308779198Y-49335970D01*
X308779205Y-49335971D01*
X308782239Y-49336484D01*
X308785310Y-49336699D01*
X308785312Y-49336699D01*
X309180662Y-49364345D01*
X309180670Y-49364345D01*
X309183728Y-49364559D01*
X309443632Y-49357299D01*
X309582967Y-49353407D01*
X309582970Y-49353407D01*
X309586041Y-49353321D01*
X309589094Y-49352935D01*
X309589098Y-49352935D01*
X309733665Y-49334672D01*
X309985337Y-49302878D01*
X309988341Y-49302196D01*
X309988344Y-49302195D01*
X310374809Y-49214393D01*
X310374815Y-49214391D01*
X310377805Y-49213712D01*
X310531017Y-49162745D01*
X310756775Y-49087645D01*
X310756781Y-49087643D01*
X310759699Y-49086672D01*
X310762509Y-49085421D01*
X311124573Y-48924220D01*
X311124579Y-48924217D01*
X311127373Y-48922973D01*
X311205556Y-48878559D01*
X311474650Y-48725693D01*
X311474656Y-48725689D01*
X311477318Y-48724177D01*
X311660276Y-48595114D01*
X311803671Y-48493960D01*
X311803674Y-48493958D01*
X311806194Y-48492180D01*
X312110862Y-48229198D01*
X312112983Y-48226971D01*
X312112989Y-48226965D01*
X312386295Y-47939964D01*
X312388412Y-47937741D01*
X312420143Y-47897128D01*
X312634287Y-47623036D01*
X312634289Y-47623033D01*
X312636197Y-47620591D01*
X312637853Y-47617981D01*
X312637859Y-47617973D01*
X312850197Y-47283382D01*
X312850201Y-47283375D01*
X312851851Y-47280775D01*
X312927168Y-47131674D01*
X313031931Y-46924277D01*
X313033316Y-46921536D01*
X313034423Y-46918682D01*
X313034427Y-46918673D01*
X313177744Y-46549180D01*
X313177747Y-46549170D01*
X313178859Y-46546304D01*
X313287091Y-46158661D01*
X313356979Y-45762305D01*
X313387856Y-45361022D01*
X313389462Y-45246000D01*
X313386498Y-45185387D01*
X313371413Y-44876973D01*
X313369801Y-44844011D01*
X313311007Y-44445859D01*
X313297716Y-44392549D01*
X313214389Y-44058346D01*
X313213641Y-44055344D01*
X313078632Y-43676195D01*
X312907269Y-43312030D01*
X312905702Y-43309401D01*
X312905697Y-43309392D01*
X312752192Y-43051886D01*
X312701187Y-42966325D01*
X312699373Y-42963865D01*
X312699368Y-42963857D01*
X312562568Y-42778306D01*
X312462354Y-42642379D01*
X312193050Y-42343286D01*
X311895844Y-42071900D01*
X311573574Y-41830811D01*
X311524007Y-41800792D01*
X311231944Y-41623912D01*
X311231935Y-41623907D01*
X311229316Y-41622321D01*
X310866356Y-41448420D01*
X310551246Y-41333729D01*
X310491054Y-41311821D01*
X310491053Y-41311821D01*
X310488158Y-41310767D01*
X310187293Y-41233518D01*
X310101317Y-41211443D01*
X310101314Y-41211442D01*
X310098333Y-41210677D01*
X309700601Y-41149105D01*
X309298759Y-41126638D01*
X309295681Y-41126767D01*
X309295677Y-41126767D01*
X309067734Y-41136321D01*
X308896643Y-41143492D01*
X308893599Y-41143920D01*
X308893597Y-41143920D01*
X308691087Y-41172381D01*
X308498090Y-41199505D01*
X308368902Y-41230759D01*
X308109896Y-41293419D01*
X308109888Y-41293421D01*
X308106905Y-41294143D01*
X308104008Y-41295152D01*
X308104004Y-41295153D01*
X307729728Y-41425489D01*
X307726822Y-41426501D01*
X307582856Y-41493023D01*
X307364267Y-41594025D01*
X307364257Y-41594030D01*
X307361470Y-41595318D01*
X307014334Y-41798981D01*
X306936951Y-41855203D01*
X306691210Y-42033744D01*
X306691204Y-42033749D01*
X306688729Y-42035547D01*
X306686443Y-42037576D01*
X306686440Y-42037579D01*
X306645444Y-42073977D01*
X306387763Y-42302757D01*
X306385684Y-42305002D01*
X306385677Y-42305009D01*
X306116395Y-42595808D01*
X306114309Y-42598061D01*
X305870976Y-42918640D01*
X305660088Y-43261434D01*
X305483657Y-43623171D01*
X305482586Y-43626052D01*
X305482583Y-43626058D01*
X305462859Y-43679094D01*
X305343367Y-44000399D01*
X305240558Y-44389516D01*
X305231245Y-44447017D01*
X305189869Y-44702483D01*
X305176211Y-44786808D01*
X305176017Y-44789888D01*
X305176017Y-44789890D01*
X305172419Y-44847084D01*
X305150940Y-45188483D01*
X296720500Y-45188483D01*
X296720500Y-41810099D01*
X296720541Y-41810000D01*
X296720383Y-41809617D01*
X296720099Y-41809500D01*
X296720000Y-41809459D01*
X296719901Y-41809500D01*
X286820099Y-41809500D01*
X286820000Y-41809459D01*
X286819901Y-41809500D01*
X286819617Y-41809617D01*
X286819459Y-41810000D01*
X286819500Y-41810099D01*
X286819500Y-46709901D01*
X286819459Y-46710000D01*
X280220541Y-46710000D01*
X280220500Y-46709901D01*
X280220500Y-41810099D01*
X280220541Y-41810000D01*
X280220383Y-41809617D01*
X280220099Y-41809500D01*
X280220000Y-41809459D01*
X280219901Y-41809500D01*
X270320099Y-41809500D01*
X270320000Y-41809459D01*
X270319901Y-41809500D01*
X270319617Y-41809617D01*
X270319459Y-41810000D01*
X270319500Y-41810099D01*
X270319500Y-46709901D01*
X270319459Y-46710000D01*
X263220541Y-46710000D01*
X263220500Y-46709901D01*
X263220500Y-41810099D01*
X263220541Y-41810000D01*
X263220383Y-41809617D01*
X263220099Y-41809500D01*
X263220000Y-41809459D01*
X263219901Y-41809500D01*
X253320099Y-41809500D01*
X253320000Y-41809459D01*
X253319901Y-41809500D01*
X253319617Y-41809617D01*
X253319459Y-41810000D01*
X253319500Y-41810099D01*
X253319500Y-46709901D01*
X253319459Y-46710000D01*
X233869654Y-46710000D01*
X233882105Y-41670375D01*
X233883904Y-41652882D01*
X233886696Y-41652910D01*
X233885720Y-41623912D01*
X233883215Y-41549547D01*
X233872573Y-41233518D01*
X233821714Y-40816981D01*
X233821137Y-40814264D01*
X233735087Y-40409223D01*
X233735086Y-40409217D01*
X233734511Y-40406513D01*
X233611636Y-40005276D01*
X233454037Y-39616365D01*
X233447518Y-39603620D01*
X233351112Y-39415162D01*
X233262930Y-39242778D01*
X233072721Y-38939848D01*
X233041257Y-38889737D01*
X233041256Y-38889735D01*
X233039787Y-38887396D01*
X233020923Y-38862505D01*
X232787996Y-38555158D01*
X232787991Y-38555152D01*
X232786329Y-38552959D01*
X232747917Y-38510581D01*
X232506368Y-38244095D01*
X232506359Y-38244086D01*
X232504510Y-38242046D01*
X232345108Y-38094554D01*
X232198528Y-37958926D01*
X232198519Y-37958919D01*
X232196503Y-37957053D01*
X231881397Y-37713117D01*
X231866865Y-37701867D01*
X231866862Y-37701865D01*
X231864683Y-37700178D01*
X231521414Y-37479700D01*
X231513942Y-37474901D01*
X231513940Y-37474900D01*
X231511608Y-37473402D01*
X231509153Y-37472114D01*
X231509144Y-37472109D01*
X231142464Y-37279765D01*
X231140001Y-37278473D01*
X230752727Y-37116895D01*
X230750098Y-37116060D01*
X230750089Y-37116057D01*
X230355396Y-36990745D01*
X230355387Y-36990743D01*
X230352771Y-36989912D01*
X230183396Y-36952109D01*
X229945917Y-36899106D01*
X229945908Y-36899104D01*
X229943218Y-36898504D01*
X229527225Y-36843375D01*
X229348979Y-36835542D01*
X229126099Y-36825747D01*
X229126098Y-36825747D01*
X229108000Y-36824952D01*
X229108000Y-36827976D01*
X229095502Y-36829488D01*
X212604852Y-36813787D01*
X197610415Y-36799510D01*
X197600000Y-36798628D01*
X197600000Y-36795214D01*
X197583573Y-36796736D01*
X197583572Y-36796736D01*
X197421166Y-36811785D01*
X197415371Y-36812322D01*
X197409775Y-36813914D01*
X197409771Y-36813915D01*
X197242631Y-36861471D01*
X197237029Y-36863065D01*
X197071048Y-36945714D01*
X197066402Y-36949223D01*
X197066398Y-36949225D01*
X197047932Y-36963171D01*
X197028253Y-36978032D01*
X196961839Y-37003122D01*
X196892402Y-36988323D01*
X196841989Y-36938332D01*
X196831172Y-36912107D01*
X196818564Y-36867994D01*
X196811572Y-36843529D01*
X196735070Y-36722280D01*
X196627612Y-36627377D01*
X196497837Y-36566447D01*
X196388991Y-36549500D01*
X196314060Y-36549500D01*
X196272661Y-36555429D01*
X196216968Y-36563404D01*
X196216965Y-36563405D01*
X196208082Y-36564677D01*
X196077572Y-36624016D01*
X196070771Y-36629876D01*
X196070765Y-36629880D01*
X196057701Y-36641137D01*
X195993039Y-36670451D01*
X195922793Y-36660152D01*
X195892045Y-36640124D01*
X195884341Y-36633320D01*
X195877612Y-36627377D01*
X195747837Y-36566447D01*
X195638991Y-36549500D01*
X195564060Y-36549500D01*
X195522661Y-36555429D01*
X195466968Y-36563404D01*
X195466965Y-36563405D01*
X195458082Y-36564677D01*
X195327572Y-36624016D01*
X195320771Y-36629876D01*
X195320765Y-36629880D01*
X195307701Y-36641137D01*
X195243039Y-36670451D01*
X195172793Y-36660152D01*
X195142045Y-36640124D01*
X195134341Y-36633320D01*
X195127612Y-36627377D01*
X194997837Y-36566447D01*
X194888991Y-36549500D01*
X194814060Y-36549500D01*
X194772661Y-36555429D01*
X194716968Y-36563404D01*
X194716965Y-36563405D01*
X194708082Y-36564677D01*
X194577572Y-36624016D01*
X194570768Y-36629878D01*
X194570769Y-36629878D01*
X194475763Y-36711740D01*
X194475760Y-36711743D01*
X194468963Y-36717600D01*
X194390985Y-36837905D01*
X194388411Y-36846512D01*
X194368361Y-36913555D01*
X194329680Y-36973089D01*
X194264953Y-37002259D01*
X194194730Y-36991805D01*
X194171713Y-36978005D01*
X194133600Y-36949224D01*
X194128952Y-36945714D01*
X193962971Y-36863065D01*
X193957369Y-36861471D01*
X193790229Y-36813915D01*
X193790225Y-36813914D01*
X193784629Y-36812322D01*
X193600000Y-36795214D01*
X193600000Y-36798770D01*
X193592464Y-36799500D01*
X105310479Y-36799500D01*
X105300000Y-36798618D01*
X105300000Y-36795214D01*
X105283574Y-36796736D01*
X105283573Y-36796736D01*
X105121166Y-36811785D01*
X105115371Y-36812322D01*
X105109775Y-36813914D01*
X105109771Y-36813915D01*
X104942631Y-36861471D01*
X104937029Y-36863065D01*
X104771048Y-36945714D01*
X104766402Y-36949223D01*
X104766398Y-36949225D01*
X104747932Y-36963171D01*
X104728253Y-36978032D01*
X104661839Y-37003122D01*
X104592402Y-36988323D01*
X104541989Y-36938332D01*
X104531172Y-36912107D01*
X104518564Y-36867994D01*
X104511572Y-36843529D01*
X104435070Y-36722280D01*
X104327612Y-36627377D01*
X104197837Y-36566447D01*
X104088991Y-36549500D01*
X104014060Y-36549500D01*
X103972661Y-36555429D01*
X103916968Y-36563404D01*
X103916965Y-36563405D01*
X103908082Y-36564677D01*
X103777572Y-36624016D01*
X103770771Y-36629876D01*
X103770765Y-36629880D01*
X103757701Y-36641137D01*
X103693039Y-36670451D01*
X103622793Y-36660152D01*
X103592045Y-36640124D01*
X103584341Y-36633320D01*
X103577612Y-36627377D01*
X103447837Y-36566447D01*
X103338991Y-36549500D01*
X103264060Y-36549500D01*
X103222661Y-36555429D01*
X103166968Y-36563404D01*
X103166965Y-36563405D01*
X103158082Y-36564677D01*
X103027572Y-36624016D01*
X103020771Y-36629876D01*
X103020765Y-36629880D01*
X103007701Y-36641137D01*
X102943039Y-36670451D01*
X102872793Y-36660152D01*
X102842045Y-36640124D01*
X102834341Y-36633320D01*
X102827612Y-36627377D01*
X102697837Y-36566447D01*
X102588991Y-36549500D01*
X102514060Y-36549500D01*
X102472661Y-36555429D01*
X102416968Y-36563404D01*
X102416965Y-36563405D01*
X102408082Y-36564677D01*
X102277572Y-36624016D01*
X102270768Y-36629878D01*
X102270769Y-36629878D01*
X102175763Y-36711740D01*
X102175760Y-36711743D01*
X102168963Y-36717600D01*
X102090985Y-36837905D01*
X102088411Y-36846512D01*
X102068361Y-36913555D01*
X102029680Y-36973089D01*
X101964953Y-37002259D01*
X101894730Y-36991805D01*
X101871713Y-36978005D01*
X101833600Y-36949224D01*
X101828952Y-36945714D01*
X101662971Y-36863065D01*
X101657369Y-36861471D01*
X101490229Y-36813915D01*
X101490225Y-36813914D01*
X101484629Y-36812322D01*
X101478834Y-36811785D01*
X101318038Y-36796885D01*
X101318037Y-36796885D01*
X101300000Y-36795214D01*
X101300000Y-36798721D01*
X101292131Y-36799469D01*
X80640725Y-36718843D01*
X80623284Y-36717037D01*
X80623313Y-36714226D01*
X80608374Y-36714729D01*
X80560625Y-36716337D01*
X80203921Y-36728349D01*
X79787384Y-36779208D01*
X79784672Y-36779784D01*
X79784667Y-36779785D01*
X79379626Y-36865835D01*
X79379620Y-36865836D01*
X79376916Y-36866411D01*
X78975679Y-36989286D01*
X78586768Y-37146885D01*
X78584322Y-37148136D01*
X78584316Y-37148139D01*
X78568701Y-37156127D01*
X78213181Y-37337992D01*
X77995137Y-37474901D01*
X77874737Y-37550500D01*
X77857799Y-37561135D01*
X77855599Y-37562802D01*
X77855598Y-37562803D01*
X77525561Y-37812926D01*
X77525555Y-37812931D01*
X77523362Y-37814593D01*
X77521309Y-37816454D01*
X77214498Y-38094554D01*
X77214489Y-38094563D01*
X77212449Y-38096412D01*
X77171066Y-38141137D01*
X76929329Y-38402394D01*
X76929322Y-38402403D01*
X76927456Y-38404419D01*
X76759042Y-38621969D01*
X76709129Y-38686445D01*
X76670581Y-38736239D01*
X76443805Y-39089314D01*
X76442517Y-39091769D01*
X76442512Y-39091778D01*
X76329384Y-39307442D01*
X76248876Y-39460921D01*
X76087298Y-39848195D01*
X76086463Y-39850824D01*
X76086460Y-39850833D01*
X75972084Y-40211082D01*
X75960315Y-40248151D01*
X75959714Y-40250845D01*
X75872678Y-40640810D01*
X75868907Y-40657704D01*
X75868544Y-40660443D01*
X75866638Y-40674824D01*
X75813778Y-41073697D01*
X75807788Y-41210000D01*
X75797311Y-41448420D01*
X75795355Y-41492922D01*
X75798440Y-41492922D01*
X75799940Y-41505125D01*
X75899467Y-74589330D01*
X75898585Y-74600000D01*
X75895214Y-74600000D01*
X75896736Y-74616426D01*
X75903126Y-74685387D01*
X75912322Y-74784629D01*
X75913914Y-74790225D01*
X75913915Y-74790229D01*
X75942368Y-74890229D01*
X75963065Y-74962971D01*
X75965663Y-74968188D01*
X76036143Y-75109730D01*
X76045714Y-75128952D01*
X76074482Y-75167048D01*
X76075555Y-75168468D01*
X76100644Y-75234883D01*
X76085844Y-75304320D01*
X76035853Y-75354732D01*
X76013977Y-75363833D01*
X76008082Y-75364677D01*
X75877572Y-75424016D01*
X75870768Y-75429878D01*
X75870769Y-75429878D01*
X75775763Y-75511740D01*
X75775760Y-75511743D01*
X75768963Y-75517600D01*
X75690985Y-75637905D01*
X75649907Y-75775261D01*
X75649031Y-75918624D01*
X75688428Y-76056471D01*
X75752659Y-76158272D01*
X75772092Y-76226553D01*
X75751828Y-76294036D01*
X75690985Y-76387905D01*
X75649907Y-76525261D01*
X75649031Y-76668624D01*
X75688428Y-76806471D01*
X75752659Y-76908272D01*
X75772092Y-76976553D01*
X75751828Y-77044036D01*
X75690985Y-77137905D01*
X75649907Y-77275261D01*
X75649852Y-77284237D01*
X75649852Y-77284238D01*
X75649712Y-77307113D01*
X75649031Y-77418624D01*
X65229656Y-77418624D01*
X65202628Y-77310511D01*
X65202627Y-77310510D01*
X65200000Y-77300000D01*
X65193991Y-77290987D01*
X65193990Y-77290984D01*
X65006920Y-77010380D01*
X65000000Y-77000000D01*
X64989620Y-76993080D01*
X64709016Y-76806010D01*
X64709013Y-76806009D01*
X64700000Y-76800000D01*
X64689490Y-76797373D01*
X64689489Y-76797372D01*
X64315048Y-76703762D01*
X64300000Y-76700000D01*
X63900000Y-76800000D01*
X63500000Y-77000000D01*
X63200000Y-77600000D01*
X63200000Y-77800000D01*
X60220500Y-77800000D01*
X60220500Y-76310099D01*
X60220541Y-76310000D01*
X60220383Y-76309617D01*
X60220099Y-76309500D01*
X60220000Y-76309459D01*
X60219901Y-76309500D01*
X50320099Y-76309500D01*
X50320000Y-76309459D01*
X50319901Y-76309500D01*
X50319617Y-76309617D01*
X50319459Y-76310000D01*
X50319500Y-76310099D01*
X50319500Y-81209901D01*
X50319459Y-81210000D01*
X15270500Y-81210000D01*
X15270500Y-77800000D01*
X45200000Y-77800000D01*
X45300000Y-78200000D01*
X45306009Y-78209013D01*
X45306010Y-78209016D01*
X45444228Y-78416342D01*
X45500000Y-78500000D01*
X45800000Y-78700000D01*
X45807968Y-78702656D01*
X45807970Y-78702657D01*
X45990623Y-78763541D01*
X46100000Y-78800000D01*
X46500000Y-78800000D01*
X46515521Y-78789653D01*
X46515523Y-78789652D01*
X46793469Y-78604354D01*
X46807012Y-78596494D01*
X47000000Y-78500000D01*
X47200000Y-78200000D01*
X47300000Y-78000000D01*
X47300000Y-77700000D01*
X47294430Y-77677720D01*
X47202628Y-77310511D01*
X47202627Y-77310510D01*
X47200000Y-77300000D01*
X47193991Y-77290987D01*
X47193990Y-77290984D01*
X47006920Y-77010380D01*
X47000000Y-77000000D01*
X46989620Y-76993080D01*
X46709016Y-76806010D01*
X46709013Y-76806009D01*
X46700000Y-76800000D01*
X46689490Y-76797373D01*
X46689489Y-76797372D01*
X46315048Y-76703762D01*
X46300000Y-76700000D01*
X45900000Y-76800000D01*
X45500000Y-77000000D01*
X45200000Y-77600000D01*
X45200000Y-77800000D01*
X15270500Y-77800000D01*
X15270500Y-72188483D01*
X25150940Y-72188483D01*
X25150943Y-72188567D01*
X25151050Y-72191632D01*
X25151050Y-72191636D01*
X25160758Y-72469624D01*
X25164986Y-72590708D01*
X25165392Y-72593752D01*
X25165393Y-72593762D01*
X25187474Y-72759249D01*
X25218215Y-72989642D01*
X25218915Y-72992626D01*
X25218916Y-72992632D01*
X25261317Y-73173410D01*
X25310119Y-73381478D01*
X25439821Y-73762475D01*
X25606083Y-74128998D01*
X25807318Y-74477546D01*
X25809107Y-74480044D01*
X25809109Y-74480048D01*
X26031177Y-74790229D01*
X26041605Y-74804795D01*
X26043632Y-74807110D01*
X26043634Y-74807113D01*
X26294576Y-75093762D01*
X26306707Y-75107619D01*
X26308955Y-75109730D01*
X26597840Y-75381011D01*
X26597847Y-75381017D01*
X26600095Y-75383128D01*
X26602545Y-75385015D01*
X26602550Y-75385019D01*
X26916305Y-75626643D01*
X26918967Y-75628693D01*
X26921566Y-75630317D01*
X26921576Y-75630324D01*
X27074200Y-75725693D01*
X27260281Y-75841969D01*
X27620777Y-76020921D01*
X27796429Y-76087645D01*
X27994130Y-76162745D01*
X27994135Y-76162747D01*
X27997016Y-76163841D01*
X28385406Y-76269364D01*
X28388449Y-76269879D01*
X28388455Y-76269880D01*
X28779198Y-76335970D01*
X28779205Y-76335971D01*
X28782239Y-76336484D01*
X28785310Y-76336699D01*
X28785312Y-76336699D01*
X29180662Y-76364345D01*
X29180670Y-76364345D01*
X29183728Y-76364559D01*
X29443632Y-76357299D01*
X29582967Y-76353407D01*
X29582970Y-76353407D01*
X29586041Y-76353321D01*
X29589094Y-76352935D01*
X29589098Y-76352935D01*
X29752534Y-76332288D01*
X29985337Y-76302878D01*
X29988341Y-76302196D01*
X29988344Y-76302195D01*
X30374809Y-76214393D01*
X30374815Y-76214391D01*
X30377805Y-76213712D01*
X30471932Y-76182400D01*
X30756775Y-76087645D01*
X30756781Y-76087643D01*
X30759699Y-76086672D01*
X30762509Y-76085421D01*
X31124573Y-75924220D01*
X31124579Y-75924217D01*
X31127373Y-75922973D01*
X31150828Y-75909649D01*
X31474650Y-75725693D01*
X31474656Y-75725689D01*
X31477318Y-75724177D01*
X31746654Y-75534181D01*
X31803671Y-75493960D01*
X31803674Y-75493958D01*
X31806194Y-75492180D01*
X32110862Y-75229198D01*
X32112983Y-75226971D01*
X32112989Y-75226965D01*
X32386295Y-74939964D01*
X32388412Y-74937741D01*
X32425533Y-74890229D01*
X32634287Y-74623036D01*
X32634289Y-74623033D01*
X32636197Y-74620591D01*
X32637853Y-74617981D01*
X32637859Y-74617973D01*
X32850197Y-74283382D01*
X32850201Y-74283375D01*
X32851851Y-74280775D01*
X32927168Y-74131674D01*
X33019483Y-73948920D01*
X33033316Y-73921536D01*
X33034423Y-73918682D01*
X33034427Y-73918673D01*
X33177744Y-73549180D01*
X33177747Y-73549170D01*
X33178859Y-73546304D01*
X33281561Y-73178467D01*
X33286263Y-73161627D01*
X33286264Y-73161625D01*
X33287091Y-73158661D01*
X33356979Y-72762305D01*
X33387856Y-72361022D01*
X33389462Y-72246000D01*
X33386498Y-72185387D01*
X33369951Y-71847084D01*
X33369801Y-71844011D01*
X33311007Y-71445859D01*
X33297716Y-71392549D01*
X33230340Y-71122321D01*
X33213641Y-71055344D01*
X33169731Y-70932029D01*
X33090743Y-70710207D01*
X33078632Y-70676195D01*
X32907269Y-70312030D01*
X32905702Y-70309401D01*
X32905697Y-70309392D01*
X32752192Y-70051886D01*
X32701187Y-69966325D01*
X32699373Y-69963865D01*
X32699368Y-69963857D01*
X32596492Y-69824320D01*
X32462354Y-69642379D01*
X32193050Y-69343286D01*
X31895844Y-69071900D01*
X31573574Y-68830811D01*
X31524007Y-68800792D01*
X31231944Y-68623912D01*
X31231935Y-68623907D01*
X31229316Y-68622321D01*
X30866356Y-68448420D01*
X30488158Y-68310767D01*
X30278349Y-68256897D01*
X30101317Y-68211443D01*
X30101314Y-68211442D01*
X30098333Y-68210677D01*
X29700601Y-68149105D01*
X29298759Y-68126638D01*
X29295681Y-68126767D01*
X29295677Y-68126767D01*
X29036149Y-68137645D01*
X28896643Y-68143492D01*
X28893599Y-68143920D01*
X28893597Y-68143920D01*
X28853367Y-68149574D01*
X28498090Y-68199505D01*
X28357705Y-68233468D01*
X28109896Y-68293419D01*
X28109888Y-68293421D01*
X28106905Y-68294143D01*
X28104008Y-68295152D01*
X28104004Y-68295153D01*
X28056140Y-68311821D01*
X27726822Y-68426501D01*
X27544146Y-68510910D01*
X27364267Y-68594025D01*
X27364257Y-68594030D01*
X27361470Y-68595318D01*
X27014334Y-68798981D01*
X26850099Y-68918304D01*
X26691210Y-69033744D01*
X26691204Y-69033749D01*
X26688729Y-69035547D01*
X26686443Y-69037576D01*
X26686440Y-69037579D01*
X26645444Y-69073977D01*
X26387763Y-69302757D01*
X26385684Y-69305002D01*
X26385677Y-69305009D01*
X26116395Y-69595808D01*
X26114309Y-69598061D01*
X25870976Y-69918640D01*
X25660088Y-70261434D01*
X25483657Y-70623171D01*
X25482586Y-70626052D01*
X25482583Y-70626058D01*
X25451114Y-70710677D01*
X25343367Y-71000399D01*
X25240558Y-71389516D01*
X25176211Y-71786808D01*
X25176017Y-71789888D01*
X25176017Y-71789890D01*
X25172513Y-71845583D01*
X25150940Y-72188483D01*
X15270500Y-72188483D01*
X15270500Y-66710000D01*
X50319459Y-66710000D01*
X50319500Y-66710099D01*
X50319617Y-66710383D01*
X50320000Y-66710541D01*
X50320099Y-66710500D01*
X60219901Y-66710500D01*
X60220000Y-66710541D01*
X60220099Y-66710500D01*
X60220383Y-66710383D01*
X60220541Y-66710000D01*
X60220500Y-66709901D01*
X60220500Y-61810099D01*
X60220541Y-61810000D01*
X60220383Y-61809617D01*
X60220099Y-61809500D01*
X60220000Y-61809459D01*
X60219901Y-61809500D01*
X50320099Y-61809500D01*
X50320000Y-61809459D01*
X50319901Y-61809500D01*
X50319617Y-61809617D01*
X50319459Y-61810000D01*
X50319500Y-61810099D01*
X50319500Y-66709901D01*
X50319459Y-66710000D01*
X15270500Y-66710000D01*
X15270500Y-62300000D01*
X45200000Y-62300000D01*
X45300000Y-62700000D01*
X45306009Y-62709013D01*
X45306010Y-62709016D01*
X45490877Y-62986315D01*
X45500000Y-63000000D01*
X45800000Y-63200000D01*
X45807968Y-63202656D01*
X45807970Y-63202657D01*
X46068956Y-63289652D01*
X46100000Y-63300000D01*
X46500000Y-63300000D01*
X46515521Y-63289653D01*
X46515523Y-63289652D01*
X46793469Y-63104354D01*
X46807012Y-63096494D01*
X47000000Y-63000000D01*
X47200000Y-62700000D01*
X47300000Y-62500000D01*
X47300000Y-62200000D01*
X47204799Y-61819196D01*
X47202628Y-61810511D01*
X47202627Y-61810510D01*
X47200000Y-61800000D01*
X47193991Y-61790987D01*
X47193990Y-61790984D01*
X47006920Y-61510380D01*
X47000000Y-61500000D01*
X46989620Y-61493080D01*
X46709016Y-61306010D01*
X46709013Y-61306009D01*
X46700000Y-61300000D01*
X46689490Y-61297373D01*
X46689489Y-61297372D01*
X46315048Y-61203762D01*
X46300000Y-61200000D01*
X45900000Y-61300000D01*
X45500000Y-61500000D01*
X45200000Y-62100000D01*
X45200000Y-62300000D01*
X15270500Y-62300000D01*
X15270500Y-53710000D01*
X24519459Y-53710000D01*
X24519500Y-53710099D01*
X24519617Y-53710383D01*
X24520000Y-53710541D01*
X24520099Y-53710500D01*
X34419901Y-53710500D01*
X34420000Y-53710541D01*
X34420099Y-53710500D01*
X34420383Y-53710383D01*
X34420541Y-53710000D01*
X34420500Y-53709901D01*
X34420500Y-48810099D01*
X34420541Y-48810000D01*
X34420383Y-48809617D01*
X34420099Y-48809500D01*
X34420000Y-48809459D01*
X34419901Y-48809500D01*
X24520099Y-48809500D01*
X24520000Y-48809459D01*
X24519901Y-48809500D01*
X24519617Y-48809617D01*
X24519459Y-48810000D01*
X24519500Y-48810099D01*
X24519500Y-53709901D01*
X24519459Y-53710000D01*
X15270500Y-53710000D01*
X15270500Y-44702483D01*
X51150940Y-44702483D01*
X51150943Y-44702567D01*
X51151050Y-44705632D01*
X51151050Y-44705636D01*
X51155990Y-44847084D01*
X51164986Y-45104708D01*
X51165392Y-45107752D01*
X51165393Y-45107762D01*
X51183838Y-45246000D01*
X51218215Y-45503642D01*
X51218915Y-45506626D01*
X51218916Y-45506632D01*
X51278167Y-45759249D01*
X51310119Y-45895478D01*
X51439821Y-46276475D01*
X51606083Y-46642998D01*
X51807318Y-46991546D01*
X51809107Y-46994044D01*
X51809109Y-46994048D01*
X51907854Y-47131973D01*
X52041605Y-47318795D01*
X52306707Y-47621619D01*
X52308955Y-47623730D01*
X52597840Y-47895011D01*
X52597847Y-47895017D01*
X52600095Y-47897128D01*
X52602545Y-47899015D01*
X52602550Y-47899019D01*
X52912609Y-48137797D01*
X52918967Y-48142693D01*
X52921566Y-48144317D01*
X52921576Y-48144324D01*
X53068944Y-48236409D01*
X53260281Y-48355969D01*
X53620777Y-48534921D01*
X53796429Y-48601645D01*
X53994130Y-48676745D01*
X53994135Y-48676747D01*
X53997016Y-48677841D01*
X54385406Y-48783364D01*
X54388449Y-48783879D01*
X54388455Y-48783880D01*
X54779198Y-48849970D01*
X54779205Y-48849971D01*
X54782239Y-48850484D01*
X54785310Y-48850699D01*
X54785312Y-48850699D01*
X55180662Y-48878345D01*
X55180670Y-48878345D01*
X55183728Y-48878559D01*
X55443632Y-48871299D01*
X55582967Y-48867407D01*
X55582970Y-48867407D01*
X55586041Y-48867321D01*
X55589094Y-48866935D01*
X55589098Y-48866935D01*
X55733665Y-48848672D01*
X55985337Y-48816878D01*
X55988341Y-48816196D01*
X55988344Y-48816195D01*
X56374809Y-48728393D01*
X56374815Y-48728391D01*
X56377805Y-48727712D01*
X56531017Y-48676745D01*
X56756775Y-48601645D01*
X56756781Y-48601643D01*
X56759699Y-48600672D01*
X56762509Y-48599421D01*
X57124573Y-48438220D01*
X57124579Y-48438217D01*
X57127373Y-48436973D01*
X57222158Y-48383128D01*
X57474650Y-48239693D01*
X57474656Y-48239689D01*
X57477318Y-48238177D01*
X57806194Y-48006180D01*
X58110862Y-47743198D01*
X58112983Y-47740971D01*
X58112989Y-47740965D01*
X58386295Y-47453964D01*
X58388412Y-47451741D01*
X58494238Y-47316291D01*
X58634287Y-47137036D01*
X58634289Y-47137033D01*
X58636197Y-47134591D01*
X58637853Y-47131981D01*
X58637859Y-47131973D01*
X58850197Y-46797382D01*
X58850201Y-46797375D01*
X58851851Y-46794775D01*
X58869641Y-46759558D01*
X58977363Y-46546304D01*
X59033316Y-46435536D01*
X59034423Y-46432682D01*
X59034427Y-46432673D01*
X59177744Y-46063180D01*
X59177747Y-46063170D01*
X59178859Y-46060304D01*
X59287091Y-45672661D01*
X59356979Y-45276305D01*
X59387856Y-44875022D01*
X59389462Y-44760000D01*
X59386498Y-44699387D01*
X59374154Y-44447017D01*
X59369801Y-44358011D01*
X59311007Y-43959859D01*
X59297716Y-43906549D01*
X59279133Y-43832020D01*
X59213641Y-43569344D01*
X59078632Y-43190195D01*
X58907269Y-42826030D01*
X58905702Y-42823401D01*
X58905697Y-42823392D01*
X58752192Y-42565886D01*
X58701187Y-42480325D01*
X58699373Y-42477865D01*
X58699368Y-42477857D01*
X58568772Y-42300721D01*
X58462354Y-42156379D01*
X58193050Y-41857286D01*
X57895844Y-41585900D01*
X57573574Y-41344811D01*
X57524007Y-41314792D01*
X57231944Y-41137912D01*
X57231935Y-41137907D01*
X57229316Y-41136321D01*
X56866356Y-40962420D01*
X56488158Y-40824767D01*
X56278349Y-40770897D01*
X56101317Y-40725443D01*
X56101314Y-40725442D01*
X56098333Y-40724677D01*
X55700601Y-40663105D01*
X55298759Y-40640638D01*
X55295681Y-40640767D01*
X55295677Y-40640767D01*
X55036149Y-40651645D01*
X54896643Y-40657492D01*
X54893599Y-40657920D01*
X54893597Y-40657920D01*
X54853367Y-40663574D01*
X54498090Y-40713505D01*
X54357705Y-40747468D01*
X54109896Y-40807419D01*
X54109888Y-40807421D01*
X54106905Y-40808143D01*
X54104008Y-40809152D01*
X54104004Y-40809153D01*
X54007486Y-40842764D01*
X53726822Y-40940501D01*
X53593285Y-41002204D01*
X53364267Y-41108025D01*
X53364257Y-41108030D01*
X53361470Y-41109318D01*
X53014334Y-41312981D01*
X52859480Y-41425489D01*
X52691210Y-41547744D01*
X52691204Y-41547749D01*
X52688729Y-41549547D01*
X52686443Y-41551576D01*
X52686440Y-41551579D01*
X52645444Y-41587977D01*
X52387763Y-41816757D01*
X52385684Y-41819002D01*
X52385677Y-41819009D01*
X52183280Y-42037579D01*
X52114309Y-42112061D01*
X52080670Y-42156379D01*
X51940381Y-42341203D01*
X51870976Y-42432640D01*
X51660088Y-42775434D01*
X51483657Y-43137171D01*
X51482586Y-43140052D01*
X51482583Y-43140058D01*
X51395046Y-43375439D01*
X51343367Y-43514399D01*
X51240558Y-43903516D01*
X51176211Y-44300808D01*
X51176017Y-44303888D01*
X51176017Y-44303890D01*
X51172419Y-44361084D01*
X51150940Y-44702483D01*
X15270500Y-44702483D01*
X15270500Y-41210000D01*
X33819459Y-41210000D01*
X33819500Y-41210099D01*
X33819617Y-41210383D01*
X33820000Y-41210541D01*
X33820099Y-41210500D01*
X43719901Y-41210500D01*
X43720000Y-41210541D01*
X43720099Y-41210500D01*
X43720383Y-41210383D01*
X43720541Y-41210000D01*
X43720500Y-41209901D01*
X43720500Y-36310099D01*
X43720541Y-36310000D01*
X43720383Y-36309617D01*
X43720099Y-36309500D01*
X43720000Y-36309459D01*
X43719901Y-36309500D01*
X33820099Y-36309500D01*
X33820000Y-36309459D01*
X33819901Y-36309500D01*
X33819617Y-36309617D01*
X33819459Y-36310000D01*
X33819500Y-36310099D01*
X33819500Y-41209901D01*
X33819459Y-41210000D01*
X15270500Y-41210000D01*
X15270500Y-34088554D01*
X22029499Y-34088554D01*
X22029503Y-34088615D01*
X22045536Y-34366675D01*
X22046361Y-34370880D01*
X22046362Y-34370888D01*
X22057193Y-34426092D01*
X22099169Y-34640047D01*
X22100556Y-34644097D01*
X22100557Y-34644102D01*
X22176631Y-34866295D01*
X22189407Y-34903610D01*
X22314580Y-35152488D01*
X22472371Y-35382076D01*
X22659861Y-35588125D01*
X22663156Y-35590880D01*
X22867994Y-35762150D01*
X22873580Y-35766821D01*
X22877207Y-35769096D01*
X23105933Y-35912577D01*
X23105937Y-35912579D01*
X23109573Y-35914860D01*
X23191975Y-35952066D01*
X23359563Y-36027735D01*
X23359567Y-36027737D01*
X23363475Y-36029501D01*
X23367594Y-36030721D01*
X23626473Y-36107405D01*
X23626478Y-36107406D01*
X23630586Y-36108623D01*
X23634820Y-36109271D01*
X23634825Y-36109272D01*
X23868361Y-36145008D01*
X23905963Y-36150762D01*
X24047862Y-36152991D01*
X24180221Y-36155070D01*
X24180227Y-36155070D01*
X24184512Y-36155137D01*
X24461077Y-36121669D01*
X24730542Y-36050977D01*
X24734502Y-36049337D01*
X24734507Y-36049335D01*
X24971963Y-35950977D01*
X24987919Y-35944368D01*
X25228446Y-35803815D01*
X25447673Y-35631919D01*
X25451832Y-35627628D01*
X25584349Y-35490880D01*
X25641542Y-35431861D01*
X25644075Y-35428413D01*
X25644079Y-35428408D01*
X25803929Y-35210798D01*
X25806467Y-35207343D01*
X25939396Y-34962520D01*
X26037868Y-34701921D01*
X26100061Y-34430369D01*
X26124826Y-34152889D01*
X26125275Y-34110000D01*
X26118289Y-34007519D01*
X26116996Y-33988554D01*
X314879499Y-33988554D01*
X314879503Y-33988615D01*
X314895536Y-34266675D01*
X314896361Y-34270880D01*
X314896362Y-34270888D01*
X314926812Y-34426092D01*
X314949169Y-34540047D01*
X314950556Y-34544097D01*
X314950557Y-34544102D01*
X315038018Y-34799554D01*
X315039407Y-34803610D01*
X315164580Y-35052488D01*
X315322371Y-35282076D01*
X315509861Y-35488125D01*
X315513156Y-35490880D01*
X315717994Y-35662150D01*
X315723580Y-35666821D01*
X315727207Y-35669096D01*
X315955933Y-35812577D01*
X315955937Y-35812579D01*
X315959573Y-35814860D01*
X316024926Y-35844368D01*
X316209563Y-35927735D01*
X316209567Y-35927737D01*
X316213475Y-35929501D01*
X316217594Y-35930721D01*
X316476473Y-36007405D01*
X316476478Y-36007406D01*
X316480586Y-36008623D01*
X316484820Y-36009271D01*
X316484825Y-36009272D01*
X316718361Y-36045008D01*
X316755963Y-36050762D01*
X316897862Y-36052991D01*
X317030221Y-36055070D01*
X317030227Y-36055070D01*
X317034512Y-36055137D01*
X317311077Y-36021669D01*
X317580542Y-35950977D01*
X317584502Y-35949337D01*
X317584507Y-35949335D01*
X317709230Y-35897673D01*
X317837919Y-35844368D01*
X318078446Y-35703815D01*
X318297673Y-35531919D01*
X318301832Y-35527628D01*
X318488559Y-35334939D01*
X318491542Y-35331861D01*
X318494075Y-35328413D01*
X318494079Y-35328408D01*
X318653929Y-35110798D01*
X318656467Y-35107343D01*
X318789396Y-34862520D01*
X318871929Y-34644102D01*
X318886350Y-34605939D01*
X318886351Y-34605935D01*
X318887868Y-34601921D01*
X318941746Y-34366675D01*
X318949103Y-34334553D01*
X318949104Y-34334549D01*
X318950061Y-34330369D01*
X318974826Y-34052889D01*
X318975275Y-34010000D01*
X318963198Y-33832846D01*
X318956619Y-33736339D01*
X318956618Y-33736333D01*
X318956327Y-33732062D01*
X318899834Y-33459267D01*
X318806841Y-33196663D01*
X318723198Y-33034609D01*
X318681034Y-32952917D01*
X318681034Y-32952916D01*
X318679069Y-32949110D01*
X318666218Y-32930824D01*
X318521345Y-32724692D01*
X318518882Y-32721187D01*
X318411491Y-32605620D01*
X318332166Y-32520256D01*
X318332163Y-32520253D01*
X318329245Y-32517113D01*
X318113666Y-32340664D01*
X317876135Y-32195105D01*
X317865447Y-32190413D01*
X317624979Y-32084855D01*
X317621047Y-32083129D01*
X317595916Y-32075970D01*
X317372949Y-32012456D01*
X317353122Y-32006808D01*
X317147475Y-31977541D01*
X317081571Y-31968161D01*
X317081569Y-31968161D01*
X317077319Y-31967556D01*
X317073030Y-31967534D01*
X317073023Y-31967533D01*
X316803026Y-31966119D01*
X316803019Y-31966119D01*
X316798740Y-31966097D01*
X316794495Y-31966656D01*
X316794493Y-31966656D01*
X316754966Y-31971860D01*
X316522540Y-32002460D01*
X316253831Y-32075970D01*
X316249883Y-32077654D01*
X316001536Y-32183583D01*
X316001532Y-32183585D01*
X315997584Y-32185269D01*
X315876914Y-32257488D01*
X315762224Y-32326128D01*
X315762220Y-32326131D01*
X315758542Y-32328332D01*
X315541127Y-32502514D01*
X315349363Y-32704591D01*
X315186798Y-32930824D01*
X315056441Y-33177026D01*
X315054969Y-33181049D01*
X315054967Y-33181053D01*
X315018372Y-33281053D01*
X314960703Y-33438642D01*
X314901357Y-33710830D01*
X314901021Y-33715100D01*
X314891816Y-33832062D01*
X314879499Y-33988554D01*
X26116996Y-33988554D01*
X26106619Y-33836339D01*
X26106618Y-33836333D01*
X26106327Y-33832062D01*
X26049834Y-33559267D01*
X25956841Y-33296663D01*
X25829069Y-33049110D01*
X25816218Y-33030824D01*
X25671345Y-32824692D01*
X25668882Y-32821187D01*
X25563768Y-32708071D01*
X25482166Y-32620256D01*
X25482163Y-32620253D01*
X25479245Y-32617113D01*
X25263666Y-32440664D01*
X25026135Y-32295105D01*
X25015447Y-32290413D01*
X24774979Y-32184855D01*
X24771047Y-32183129D01*
X24745916Y-32175970D01*
X24522949Y-32112456D01*
X24503122Y-32106808D01*
X24278486Y-32074838D01*
X24231571Y-32068161D01*
X24231569Y-32068161D01*
X24227319Y-32067556D01*
X24223030Y-32067534D01*
X24223023Y-32067533D01*
X23953026Y-32066119D01*
X23953019Y-32066119D01*
X23948740Y-32066097D01*
X23944495Y-32066656D01*
X23944493Y-32066656D01*
X23904966Y-32071860D01*
X23672540Y-32102460D01*
X23403831Y-32175970D01*
X23399883Y-32177654D01*
X23151536Y-32283583D01*
X23151532Y-32283585D01*
X23147584Y-32285269D01*
X23055025Y-32340664D01*
X22912224Y-32426128D01*
X22912220Y-32426131D01*
X22908542Y-32428332D01*
X22691127Y-32602514D01*
X22499363Y-32804591D01*
X22336798Y-33030824D01*
X22206441Y-33277026D01*
X22204969Y-33281049D01*
X22204967Y-33281053D01*
X22197776Y-33300704D01*
X22110703Y-33538642D01*
X22051357Y-33810830D01*
X22051021Y-33815100D01*
X22032316Y-34052768D01*
X22029499Y-34088554D01*
X15270500Y-34088554D01*
X15270500Y-27886500D01*
X15290502Y-27818379D01*
X15344158Y-27771886D01*
X15396500Y-27760500D01*
X325143500Y-27760500D01*
X325211621Y-27780502D01*
G37*
G04 #@! TD.AperFunction*
M02*
