%FSLAX45Y45*%
G04 Gerber Fmt 4.5, Leading zero omitted, Abs format (unit mm)*
G04 Created by KiCad (PCBNEW (6.0.0)) date 2022-08-19 12:32:02*
%MOMM*%
%LPD*%
G01*
G04 APERTURE LIST*
%TA.AperFunction,Profile*%
%ADD10C,0.100000*%
%TD*%
%ADD11C,0.200000*%
G04 APERTURE END LIST*
D10*
X10080000Y-12570000D02*
X8153400Y-12573000D01*
X22900274Y-12787273D02*
G75*
G03*
X23382560Y-12309908I4896J477365D01*
G01*
X19760000Y-3880000D02*
X22885400Y-3880390D01*
X23180000Y-7870000D02*
X23190200Y-12217400D01*
X23388165Y-4165286D02*
G75*
G03*
X22910800Y-3683000I-477365J4896D01*
G01*
X10530000Y-3680000D02*
X19360000Y-3680000D01*
X19360000Y-3880000D02*
X10530000Y-3880000D01*
X19370000Y-12570000D02*
X10480000Y-12570000D01*
X23164800Y-4191000D02*
X23165400Y-4160390D01*
X23180000Y-7470000D02*
X23164800Y-4191000D01*
X19770000Y-12570000D02*
X22936200Y-12573000D01*
X8097390Y-3886200D02*
G75*
G03*
X7772400Y-4166200I0J-328604D01*
G01*
X7790000Y-7860000D02*
X7797800Y-12293600D01*
X10130000Y-3880000D02*
X8097390Y-3886200D01*
X19760000Y-3680000D02*
X22910800Y-3683000D01*
X19770000Y-12770000D02*
X22900274Y-12787273D01*
X10480000Y-12770000D02*
X19370000Y-12770000D01*
X7590000Y-7860000D02*
X7583527Y-12283074D01*
X10130000Y-3680000D02*
X8062326Y-3671927D01*
X7583527Y-12283074D02*
G75*
G03*
X8060892Y-12765360I477365J-4896D01*
G01*
X10080000Y-12770000D02*
X8060892Y-12765360D01*
X7797800Y-12293600D02*
G75*
G03*
X8153400Y-12573000I355600J86591D01*
G01*
X22936200Y-12573000D02*
G75*
G03*
X23190200Y-12217400I-102261J341558D01*
G01*
X23380000Y-7870000D02*
X23382560Y-12309908D01*
X7790000Y-7460000D02*
X7772400Y-4166200D01*
X23165400Y-4160390D02*
G75*
G03*
X22885400Y-3880390I-280000J0D01*
G01*
X23380000Y-7470000D02*
X23388165Y-4165286D01*
X7590000Y-7460000D02*
X7580040Y-4149292D01*
X8062326Y-3671927D02*
G75*
G03*
X7580040Y-4149292I-4896J-477365D01*
G01*
D11*
X1778619Y-16592476D02*
X1778619Y-16392476D01*
X1826238Y-16392476D01*
X1854809Y-16402000D01*
X1873857Y-16421048D01*
X1883381Y-16440095D01*
X1892905Y-16478190D01*
X1892905Y-16506762D01*
X1883381Y-16544857D01*
X1873857Y-16563905D01*
X1854809Y-16582952D01*
X1826238Y-16592476D01*
X1778619Y-16592476D01*
X1978619Y-16592476D02*
X1978619Y-16459143D01*
X1978619Y-16497238D02*
X1988143Y-16478190D01*
X1997667Y-16468667D01*
X2016714Y-16459143D01*
X2035762Y-16459143D01*
X2102429Y-16592476D02*
X2102429Y-16459143D01*
X2102429Y-16392476D02*
X2092905Y-16402000D01*
X2102429Y-16411524D01*
X2111952Y-16402000D01*
X2102429Y-16392476D01*
X2102429Y-16411524D01*
X2226238Y-16592476D02*
X2207190Y-16582952D01*
X2197667Y-16563905D01*
X2197667Y-16392476D01*
X2331000Y-16592476D02*
X2311952Y-16582952D01*
X2302429Y-16563905D01*
X2302429Y-16392476D01*
X2559571Y-16592476D02*
X2559571Y-16392476D01*
X2626238Y-16535333D01*
X2692905Y-16392476D01*
X2692905Y-16592476D01*
X2873857Y-16592476D02*
X2873857Y-16487714D01*
X2864333Y-16468667D01*
X2845286Y-16459143D01*
X2807190Y-16459143D01*
X2788143Y-16468667D01*
X2873857Y-16582952D02*
X2854809Y-16592476D01*
X2807190Y-16592476D01*
X2788143Y-16582952D01*
X2778619Y-16563905D01*
X2778619Y-16544857D01*
X2788143Y-16525809D01*
X2807190Y-16516286D01*
X2854809Y-16516286D01*
X2873857Y-16506762D01*
X2969095Y-16459143D02*
X2969095Y-16659143D01*
X2969095Y-16468667D02*
X2988143Y-16459143D01*
X3026238Y-16459143D01*
X3045286Y-16468667D01*
X3054809Y-16478190D01*
X3064333Y-16497238D01*
X3064333Y-16554381D01*
X3054809Y-16573428D01*
X3045286Y-16582952D01*
X3026238Y-16592476D01*
X2988143Y-16592476D01*
X2969095Y-16582952D01*
X3150048Y-16573428D02*
X3159571Y-16582952D01*
X3150048Y-16592476D01*
X3140524Y-16582952D01*
X3150048Y-16573428D01*
X3150048Y-16592476D01*
X3150048Y-16468667D02*
X3159571Y-16478190D01*
X3150048Y-16487714D01*
X3140524Y-16478190D01*
X3150048Y-16468667D01*
X3150048Y-16487714D01*
M02*
