G04 #@! TF.GenerationSoftware,KiCad,Pcbnew,(6.0.0)*
G04 #@! TF.CreationDate,2022-08-19T12:31:47+02:00*
G04 #@! TF.ProjectId,Block Schematic Munin 400,426c6f63-6b20-4536-9368-656d61746963,rev?*
G04 #@! TF.SameCoordinates,Original*
G04 #@! TF.FileFunction,Profile,NP*
%FSLAX46Y46*%
G04 Gerber Fmt 4.6, Leading zero omitted, Abs format (unit mm)*
G04 Created by KiCad (PCBNEW (6.0.0)) date 2022-08-19 12:31:47*
%MOMM*%
%LPD*%
G01*
G04 APERTURE LIST*
G04 #@! TA.AperFunction,Profile*
%ADD10C,0.100000*%
G04 #@! TD*
G04 #@! TA.AperFunction,Profile*
%ADD11C,0.150000*%
G04 #@! TD*
G04 #@! TA.AperFunction,Profile*
%ADD12C,0.120000*%
G04 #@! TD*
G04 APERTURE END LIST*
D10*
X100800000Y-125700000D02*
X81534000Y-125730000D01*
X229002739Y-127872726D02*
G75*
G03*
X233825597Y-123099078I48959J4773648D01*
G01*
X197600000Y-38800000D02*
X228854000Y-38803899D01*
X231800000Y-78700000D02*
X231902000Y-122174000D01*
X233881648Y-41652858D02*
G75*
G03*
X229108000Y-36830000I-4773648J48959D01*
G01*
X105300000Y-36800000D02*
X193600000Y-36800000D01*
X193600000Y-38800000D02*
X105300000Y-38800000D01*
X193700000Y-125700000D02*
X104800000Y-125700000D01*
X231648000Y-41910000D02*
X231654000Y-41603899D01*
X231800000Y-74700000D02*
X231648000Y-41910000D01*
X197700000Y-125700000D02*
X229362000Y-125730000D01*
X80973899Y-38862001D02*
G75*
G03*
X77724000Y-41662000I-2J-3286041D01*
G01*
X77900000Y-78600000D02*
X77978000Y-122936000D01*
X101300000Y-38800000D02*
X80973899Y-38862000D01*
X197600000Y-36800000D02*
X229108000Y-36830000D01*
X197700000Y-127700000D02*
X229002739Y-127872726D01*
X104800000Y-127700000D02*
X193700000Y-127700000D01*
X75900000Y-78600000D02*
X75835274Y-122830739D01*
X101300000Y-36800000D02*
X80623261Y-36719274D01*
X75835274Y-122830739D02*
G75*
G03*
X80608922Y-127653597I4773648J-48959D01*
G01*
X100800000Y-127700000D02*
X80608922Y-127653597D01*
X77978000Y-122936000D02*
G75*
G03*
X81534000Y-125730000I3555998J865907D01*
G01*
X229362000Y-125730000D02*
G75*
G03*
X231902000Y-122174000I-1022614J3415581D01*
G01*
X233800000Y-78700000D02*
X233825597Y-123099078D01*
X77900000Y-74600000D02*
X77724000Y-41662000D01*
X231654000Y-41603899D02*
G75*
G03*
X228854000Y-38803899I-2800000J0D01*
G01*
X233800000Y-74700000D02*
X233881648Y-41652858D01*
X75900000Y-74600000D02*
X75800403Y-41492922D01*
X80623261Y-36719274D02*
G75*
G03*
X75800403Y-41492922I-48959J-4773648D01*
G01*
D11*
X193700000Y-127700000D02*
G75*
G03*
X193700000Y-125700000I0J1000000D01*
G01*
X197700000Y-125700000D02*
G75*
G03*
X197700000Y-127700000I0J-1000000D01*
G01*
X233800000Y-78700000D02*
G75*
G03*
X231800000Y-78700000I-1000000J0D01*
G01*
X231800000Y-74700000D02*
G75*
G03*
X233800000Y-74700000I1000000J0D01*
G01*
D12*
X24520000Y-48810000D02*
X34420000Y-48810000D01*
X34420000Y-48810000D02*
X34420000Y-53710000D01*
X34420000Y-53710000D02*
X24520000Y-53710000D01*
X24520000Y-53710000D02*
X24520000Y-48810000D01*
X122320000Y-141810000D02*
X132220000Y-141810000D01*
X132220000Y-141810000D02*
X132220000Y-146710000D01*
X132220000Y-146710000D02*
X122320000Y-146710000D01*
X122320000Y-146710000D02*
X122320000Y-141810000D01*
X253320000Y-67810000D02*
X263220000Y-67810000D01*
X263220000Y-67810000D02*
X263220000Y-72710000D01*
X263220000Y-72710000D02*
X253320000Y-72710000D01*
X253320000Y-72710000D02*
X253320000Y-67810000D01*
X286820000Y-67810000D02*
X296720000Y-67810000D01*
X296720000Y-67810000D02*
X296720000Y-72710000D01*
X296720000Y-72710000D02*
X286820000Y-72710000D01*
X286820000Y-72710000D02*
X286820000Y-67810000D01*
X270320000Y-54810000D02*
X280220000Y-54810000D01*
X280220000Y-54810000D02*
X280220000Y-59710000D01*
X280220000Y-59710000D02*
X270320000Y-59710000D01*
X270320000Y-59710000D02*
X270320000Y-54810000D01*
X26870000Y-140760000D02*
X43120000Y-140760000D01*
X43120000Y-140760000D02*
X43120000Y-157760000D01*
X43120000Y-157760000D02*
X26870000Y-157760000D01*
X26870000Y-157760000D02*
X26870000Y-140760000D01*
X160820000Y-141810000D02*
X170720000Y-141810000D01*
X170720000Y-141810000D02*
X170720000Y-146710000D01*
X170720000Y-146710000D02*
X160820000Y-146710000D01*
X160820000Y-146710000D02*
X160820000Y-141810000D01*
X50320000Y-105310000D02*
X60220000Y-105310000D01*
X60220000Y-105310000D02*
X60220000Y-110210000D01*
X60220000Y-110210000D02*
X50320000Y-110210000D01*
X50320000Y-110210000D02*
X50320000Y-105310000D01*
X180320000Y-141810000D02*
X190220000Y-141810000D01*
X190220000Y-141810000D02*
X190220000Y-146710000D01*
X190220000Y-146710000D02*
X180320000Y-146710000D01*
X180320000Y-146710000D02*
X180320000Y-141810000D01*
X304320000Y-131310000D02*
X314220000Y-131310000D01*
X314220000Y-131310000D02*
X314220000Y-136210000D01*
X314220000Y-136210000D02*
X304320000Y-136210000D01*
X304320000Y-136210000D02*
X304320000Y-131310000D01*
X304320000Y-115310000D02*
X314220000Y-115310000D01*
X314220000Y-115310000D02*
X314220000Y-120210000D01*
X314220000Y-120210000D02*
X304320000Y-120210000D01*
X304320000Y-120210000D02*
X304320000Y-115310000D01*
X50320000Y-76310000D02*
X60220000Y-76310000D01*
X60220000Y-76310000D02*
X60220000Y-81210000D01*
X60220000Y-81210000D02*
X50320000Y-81210000D01*
X50320000Y-81210000D02*
X50320000Y-76310000D01*
X304320000Y-147810000D02*
X314220000Y-147810000D01*
X314220000Y-147810000D02*
X314220000Y-152710000D01*
X314220000Y-152710000D02*
X304320000Y-152710000D01*
X304320000Y-152710000D02*
X304320000Y-147810000D01*
X141820000Y-141810000D02*
X151720000Y-141810000D01*
X151720000Y-141810000D02*
X151720000Y-146710000D01*
X151720000Y-146710000D02*
X141820000Y-146710000D01*
X141820000Y-146710000D02*
X141820000Y-141810000D01*
X33820000Y-36310000D02*
X43720000Y-36310000D01*
X43720000Y-36310000D02*
X43720000Y-41210000D01*
X43720000Y-41210000D02*
X33820000Y-41210000D01*
X33820000Y-41210000D02*
X33820000Y-36310000D01*
X286820000Y-41810000D02*
X296720000Y-41810000D01*
X296720000Y-41810000D02*
X296720000Y-46710000D01*
X296720000Y-46710000D02*
X286820000Y-46710000D01*
X286820000Y-46710000D02*
X286820000Y-41810000D01*
X242820000Y-147810000D02*
X252720000Y-147810000D01*
X252720000Y-147810000D02*
X252720000Y-152710000D01*
X252720000Y-152710000D02*
X242820000Y-152710000D01*
X242820000Y-152710000D02*
X242820000Y-147810000D01*
X253320000Y-41810000D02*
X263220000Y-41810000D01*
X263220000Y-41810000D02*
X263220000Y-46710000D01*
X263220000Y-46710000D02*
X253320000Y-46710000D01*
X253320000Y-46710000D02*
X253320000Y-41810000D01*
X286820000Y-80810000D02*
X296720000Y-80810000D01*
X296720000Y-80810000D02*
X296720000Y-85710000D01*
X296720000Y-85710000D02*
X286820000Y-85710000D01*
X286820000Y-85710000D02*
X286820000Y-80810000D01*
X253320000Y-80810000D02*
X263220000Y-80810000D01*
X263220000Y-80810000D02*
X263220000Y-85710000D01*
X263220000Y-85710000D02*
X253320000Y-85710000D01*
X253320000Y-85710000D02*
X253320000Y-80810000D01*
X83820000Y-141810000D02*
X93720000Y-141810000D01*
X93720000Y-141810000D02*
X93720000Y-146710000D01*
X93720000Y-146710000D02*
X83820000Y-146710000D01*
X83820000Y-146710000D02*
X83820000Y-141810000D01*
X48020000Y-147160000D02*
X63520000Y-147160000D01*
X63520000Y-147160000D02*
X63520000Y-155360000D01*
X63520000Y-155360000D02*
X48020000Y-155360000D01*
X48020000Y-155360000D02*
X48020000Y-147160000D01*
X103320000Y-141810000D02*
X113220000Y-141810000D01*
X113220000Y-141810000D02*
X113220000Y-146710000D01*
X113220000Y-146710000D02*
X103320000Y-146710000D01*
X103320000Y-146710000D02*
X103320000Y-141810000D01*
X270320000Y-67810000D02*
X280220000Y-67810000D01*
X280220000Y-67810000D02*
X280220000Y-72710000D01*
X280220000Y-72710000D02*
X270320000Y-72710000D01*
X270320000Y-72710000D02*
X270320000Y-67810000D01*
X253320000Y-54810000D02*
X263220000Y-54810000D01*
X263220000Y-54810000D02*
X263220000Y-59710000D01*
X263220000Y-59710000D02*
X253320000Y-59710000D01*
X253320000Y-59710000D02*
X253320000Y-54810000D01*
X270320000Y-41810000D02*
X280220000Y-41810000D01*
X280220000Y-41810000D02*
X280220000Y-46710000D01*
X280220000Y-46710000D02*
X270320000Y-46710000D01*
X270320000Y-46710000D02*
X270320000Y-41810000D01*
X50320000Y-90810000D02*
X60220000Y-90810000D01*
X60220000Y-90810000D02*
X60220000Y-95710000D01*
X60220000Y-95710000D02*
X50320000Y-95710000D01*
X50320000Y-95710000D02*
X50320000Y-90810000D01*
X50320000Y-61810000D02*
X60220000Y-61810000D01*
X60220000Y-61810000D02*
X60220000Y-66710000D01*
X60220000Y-66710000D02*
X50320000Y-66710000D01*
X50320000Y-66710000D02*
X50320000Y-61810000D01*
X286820000Y-54810000D02*
X296720000Y-54810000D01*
X296720000Y-54810000D02*
X296720000Y-59710000D01*
X296720000Y-59710000D02*
X286820000Y-59710000D01*
X286820000Y-59710000D02*
X286820000Y-54810000D01*
X15270000Y-27760000D02*
X325270000Y-27760000D01*
X325270000Y-27760000D02*
X325270000Y-162760000D01*
X325270000Y-162760000D02*
X15270000Y-162760000D01*
X15270000Y-162760000D02*
X15270000Y-27760000D01*
X199320000Y-141810000D02*
X209220000Y-141810000D01*
X209220000Y-141810000D02*
X209220000Y-146710000D01*
X209220000Y-146710000D02*
X199320000Y-146710000D01*
X199320000Y-146710000D02*
X199320000Y-141810000D01*
X218820000Y-141810000D02*
X228720000Y-141810000D01*
X228720000Y-141810000D02*
X228720000Y-146710000D01*
X228720000Y-146710000D02*
X218820000Y-146710000D01*
X218820000Y-146710000D02*
X218820000Y-141810000D01*
X253320000Y-93810000D02*
X263220000Y-93810000D01*
X263220000Y-93810000D02*
X263220000Y-98710000D01*
X263220000Y-98710000D02*
X253320000Y-98710000D01*
X253320000Y-98710000D02*
X253320000Y-93810000D01*
X270320000Y-80810000D02*
X280220000Y-80810000D01*
X280220000Y-80810000D02*
X280220000Y-85710000D01*
X280220000Y-85710000D02*
X270320000Y-85710000D01*
X270320000Y-85710000D02*
X270320000Y-80810000D01*
X59384000Y-44760000D02*
G75*
G03*
X59384000Y-44760000I-4114000J0D01*
G01*
X33384000Y-103246000D02*
G75*
G03*
X33384000Y-103246000I-4114000J0D01*
G01*
X318912670Y-156960000D02*
G75*
G03*
X318912670Y-156960000I-2042670J0D01*
G01*
X160920001Y-156960000D02*
G75*
G03*
X160920001Y-156960000I-2042670J0D01*
G01*
X26120001Y-34110000D02*
G75*
G03*
X26120001Y-34110000I-2042670J0D01*
G01*
X313384000Y-99746000D02*
G75*
G03*
X313384000Y-99746000I-4114000J0D01*
G01*
X33384000Y-72246000D02*
G75*
G03*
X33384000Y-72246000I-4114000J0D01*
G01*
X26120001Y-156960000D02*
G75*
G03*
X26120001Y-156960000I-2042670J0D01*
G01*
X59301486Y-127710000D02*
G75*
G03*
X59301486Y-127710000I-3231486J0D01*
G01*
X313384000Y-74746000D02*
G75*
G03*
X313384000Y-74746000I-4114000J0D01*
G01*
X313384000Y-45246000D02*
G75*
G03*
X313384000Y-45246000I-4114000J0D01*
G01*
X281807635Y-129260000D02*
G75*
G03*
X281807635Y-129260000I-4037635J0D01*
G01*
X318970001Y-34010000D02*
G75*
G03*
X318970001Y-34010000I-2042670J0D01*
G01*
X38001486Y-127728515D02*
G75*
G03*
X38001486Y-127728515I-3231486J0D01*
G01*
D11*
X77900000Y-78600000D02*
G75*
G03*
X75900000Y-78600000I-1000000J0D01*
G01*
X75900000Y-74600000D02*
G75*
G03*
X77900000Y-74600000I1000000J0D01*
G01*
X101300000Y-38800000D02*
G75*
G03*
X101300000Y-36800000I0J1000000D01*
G01*
X105300000Y-36800000D02*
G75*
G03*
X105300000Y-38800000I0J-1000000D01*
G01*
X193600000Y-38800000D02*
G75*
G03*
X193600000Y-36800000I0J1000000D01*
G01*
X197600000Y-36800000D02*
G75*
G03*
X197600000Y-38800000I0J-1000000D01*
G01*
X104800000Y-125700000D02*
G75*
G03*
X104800000Y-127700000I0J-1000000D01*
G01*
X100800000Y-127700000D02*
G75*
G03*
X100800000Y-125700000I0J1000000D01*
G01*
M02*
