G04 #@! TF.GenerationSoftware,KiCad,Pcbnew,(6.0.0)*
G04 #@! TF.CreationDate,2022-08-19T12:31:47+02:00*
G04 #@! TF.ProjectId,Block Schematic Munin 400,426c6f63-6b20-4536-9368-656d61746963,rev?*
G04 #@! TF.SameCoordinates,Original*
G04 #@! TF.FileFunction,Soldermask,Bot*
G04 #@! TF.FilePolarity,Negative*
%FSLAX46Y46*%
G04 Gerber Fmt 4.6, Leading zero omitted, Abs format (unit mm)*
G04 Created by KiCad (PCBNEW (6.0.0)) date 2022-08-19 12:31:47*
%MOMM*%
%LPD*%
G01*
G04 APERTURE LIST*
%ADD10C,0.150000*%
%ADD11C,0.500000*%
G04 APERTURE END LIST*
D10*
X271443438Y110009984D02*
X271442976Y109533794D01*
X271919121Y109485713D01*
X271871548Y109533379D01*
X271824021Y109628663D01*
X271824252Y109866758D01*
X271871963Y109961950D01*
X271919628Y110009523D01*
X272014913Y110057049D01*
X272253008Y110056818D01*
X272348200Y110009107D01*
X272395772Y109961442D01*
X272443299Y109866158D01*
X272443068Y109628063D01*
X272395357Y109532871D01*
X272347692Y109485298D01*
X272444407Y111009014D02*
X272443853Y110437586D01*
X272444130Y110723300D02*
X271444131Y110724270D01*
X271586895Y110628893D01*
X271682041Y110533563D01*
X271729568Y110438278D01*
X272349585Y111437678D02*
X272397250Y111485251D01*
X272444823Y111437585D01*
X272397158Y111390013D01*
X272349585Y111437678D01*
X272444823Y111437585D01*
X271445747Y112390936D02*
X271445285Y111914745D01*
X271921429Y111866665D01*
X271873856Y111914330D01*
X271826329Y112009614D01*
X271826560Y112247709D01*
X271874272Y112342901D01*
X271921937Y112390474D01*
X272017221Y112438001D01*
X272255316Y112437770D01*
X272350508Y112390058D01*
X272398081Y112342393D01*
X272445608Y112247109D01*
X272445377Y112009014D01*
X272397665Y111913822D01*
X272350000Y111866249D01*
X271446116Y112771888D02*
X271446762Y113438554D01*
X272446346Y113009013D01*
X271447316Y114009982D02*
X271447409Y114105220D01*
X271495120Y114200412D01*
X271542785Y114247985D01*
X271638069Y114295512D01*
X271828592Y114342946D01*
X272066687Y114342715D01*
X272257117Y114294912D01*
X272352309Y114247200D01*
X272399882Y114199535D01*
X272447408Y114104251D01*
X272447316Y114009013D01*
X272399605Y113913821D01*
X272351939Y113866248D01*
X272256655Y113818721D01*
X272066133Y113771287D01*
X271828038Y113771518D01*
X271637608Y113819322D01*
X271542416Y113867033D01*
X271494843Y113914698D01*
X271447316Y114009982D01*
X271448240Y114962363D02*
X271448332Y115057601D01*
X271496043Y115152793D01*
X271543709Y115200366D01*
X271638993Y115247892D01*
X271829515Y115295327D01*
X272067610Y115295096D01*
X272258040Y115247292D01*
X272353232Y115199581D01*
X272400805Y115151916D01*
X272448332Y115056631D01*
X272448239Y114961393D01*
X272400528Y114866201D01*
X272352863Y114818629D01*
X272257579Y114771102D01*
X272067056Y114723668D01*
X271828961Y114723898D01*
X271638531Y114771702D01*
X271543339Y114819413D01*
X271495766Y114867079D01*
X271448240Y114962363D01*
X272449717Y116485202D02*
X271783050Y116485849D01*
X271878288Y116485756D02*
X271830716Y116533421D01*
X271783189Y116628706D01*
X271783327Y116771563D01*
X271831039Y116866755D01*
X271926323Y116914281D01*
X272450132Y116913773D01*
X271926323Y116914281D02*
X271831131Y116961993D01*
X271783604Y117057277D01*
X271783743Y117200134D01*
X271831454Y117295326D01*
X271926738Y117342852D01*
X272450548Y117342345D01*
X272451009Y117818535D02*
X271784343Y117819181D01*
X271879581Y117819089D02*
X271832008Y117866754D01*
X271784482Y117962038D01*
X271784620Y118104895D01*
X271832331Y118200087D01*
X271927616Y118247614D01*
X272451425Y118247106D01*
X271927616Y118247614D02*
X271832424Y118295325D01*
X271784897Y118390610D01*
X271785036Y118533467D01*
X271832747Y118628658D01*
X271928031Y118676185D01*
X272451840Y118675677D01*
X272200000Y139889515D02*
X273756447Y139888006D01*
X272150000Y88319515D02*
X273706447Y88318006D01*
X273170027Y139888575D02*
X273150248Y119488096D01*
X273139806Y108719053D02*
X273120027Y88318575D01*
X273170027Y139888575D02*
X272582514Y138762640D01*
X273170027Y139888575D02*
X273755355Y138761503D01*
X273120027Y88318575D02*
X273707540Y89444510D01*
X273120027Y88318575D02*
X272534699Y89445647D01*
D11*
X195700000Y-127450000D03*
X194950000Y-125950000D03*
X196450000Y-125950000D03*
X196450000Y-127450000D03*
X194950000Y-127450000D03*
X195700000Y-125950000D03*
X232050000Y-75950000D03*
X233550000Y-75950000D03*
X233550000Y-77450000D03*
X233550000Y-76700000D03*
X232050000Y-76700000D03*
X232050000Y-77450000D03*
X76150000Y-77350000D03*
X77650000Y-75850000D03*
X77650000Y-77350000D03*
X76150000Y-75850000D03*
X76150000Y-76600000D03*
X77650000Y-76600000D03*
X104050000Y-37050000D03*
X104050000Y-38550000D03*
X102550000Y-37050000D03*
X103300000Y-38550000D03*
X103300000Y-37050000D03*
X102550000Y-38550000D03*
X195600000Y-38550000D03*
X195600000Y-37050000D03*
X194850000Y-37050000D03*
X194850000Y-38550000D03*
X196350000Y-38550000D03*
X196350000Y-37050000D03*
X103550000Y-127450000D03*
X102050000Y-125950000D03*
X102050000Y-127450000D03*
X103550000Y-125950000D03*
X102800000Y-127450000D03*
X102800000Y-125950000D03*
M02*
